<svg id="svg" version="1.1" xmlns="http://www.w3.org/2000/svg" xmlns:xlink="http://www.w3.org/1999/xlink" width="400" height="394.2857142857143" viewBox="0, 0, 400,394.2857142857143"><g id="svgg"><path id="path0" d="M390.730 0.367 C 388.913 0.804,387.796 1.501,385.010 3.935 C 383.600 5.166,380.929 7.404,379.075 8.906 C 377.220 10.408,373.581 13.438,370.988 15.638 C 368.394 17.839,363.698 21.799,360.552 24.439 C 357.406 27.079,351.815 31.788,348.126 34.903 C 344.438 38.017,337.160 44.153,331.953 48.537 C 326.746 52.921,319.911 58.686,316.765 61.349 C 313.619 64.012,307.406 69.248,302.959 72.985 C 288.774 84.902,279.653 92.591,266.864 103.414 C 263.176 106.535,257.424 111.393,254.084 114.209 C 250.743 117.025,244.885 121.968,241.066 125.192 C 237.247 128.417,231.037 133.653,227.266 136.829 C 197.827 161.623,181.835 175.274,165.301 189.720 C 152.157 201.205,147.353 205.691,130.454 222.258 C 121.329 231.203,115.615 236.522,115.069 236.576 C 114.592 236.625,112.634 236.937,110.719 237.271 C 108.804 237.606,107.086 237.785,106.900 237.671 C 106.715 237.556,106.447 237.651,106.304 237.882 C 106.161 238.113,105.750 238.266,105.389 238.223 C 105.029 238.179,104.467 238.249,104.142 238.378 C 103.817 238.507,101.775 239.082,99.606 239.657 C 71.799 247.019,49.895 267.704,40.508 295.464 C 40.178 296.440,39.686 297.771,39.415 298.422 C 39.144 299.073,38.885 299.739,38.840 299.901 C 38.794 300.064,38.713 300.286,38.659 300.394 C 38.605 300.503,38.516 300.769,38.462 300.986 C 38.407 301.203,38.327 301.425,38.283 301.479 C 38.240 301.534,38.150 301.844,38.085 302.170 C 38.020 302.495,36.513 307.102,34.738 312.407 C 26.407 337.299,17.311 354.997,4.732 370.786 C -3.557 381.191,-1.222 388.001,11.834 391.505 C 25.942 395.290,62.767 395.263,77.515 391.456 C 80.552 390.671,83.307 390.001,83.636 389.967 C 83.965 389.932,84.409 389.800,84.622 389.675 C 84.835 389.549,86.075 389.143,87.377 388.773 C 120.482 379.364,145.176 355.053,156.341 320.878 C 159.968 309.776,162.443 298.522,163.317 289.157 L 163.741 284.625 178.033 270.222 C 193.496 254.639,198.813 249.026,208.507 238.051 C 216.158 229.389,229.314 214.084,238.881 202.713 C 240.820 200.408,246.045 194.214,250.493 188.947 C 254.941 183.680,260.621 176.950,263.116 173.991 C 265.611 171.032,270.848 164.827,274.753 160.204 C 278.659 155.580,283.452 149.881,285.404 147.539 C 293.547 137.774,298.239 132.180,301.775 128.025 C 303.836 125.603,308.718 119.822,312.623 115.178 C 324.683 100.836,332.828 91.171,337.875 85.207 C 340.538 82.061,344.733 77.105,347.197 74.194 C 349.661 71.282,353.097 67.177,354.832 65.071 C 358.181 61.008,373.491 42.778,374.167 42.049 C 374.387 41.811,375.906 40.020,377.542 38.067 C 400.789 10.317,399.749 11.747,399.776 7.492 C 399.805 2.904,395.215 -0.711,390.730 0.367 M173.761 225.876 C 186.564 238.745,186.347 238.456,184.752 240.551 C 183.341 242.404,159.640 266.088,156.104 269.179 L 153.455 271.494 152.408 270.808 C 150.833 269.775,128.600 247.687,128.600 247.154 C 128.600 246.561,161.106 214.201,161.701 214.201 C 161.947 214.201,167.374 219.455,173.761 225.876 M117.647 260.173 C 120.239 261.871,127.150 268.425,135.271 276.887 L 142.370 284.284 141.728 288.197 C 141.375 290.349,140.984 292.199,140.859 292.308 C 140.734 292.416,140.584 293.393,140.526 294.477 C 140.469 295.562,140.246 296.509,140.031 296.582 C 139.816 296.655,139.747 296.887,139.878 297.099 C 140.175 297.579,139.210 302.564,138.821 302.564 C 138.664 302.564,138.628 302.919,138.742 303.353 C 138.855 303.787,138.755 304.142,138.520 304.142 C 138.284 304.142,138.181 304.374,138.290 304.657 C 138.557 305.354,136.106 313.768,134.296 318.367 C 123.771 345.114,105.597 361.302,77.373 369.071 C 74.630 369.825,72.076 370.364,71.696 370.268 C 71.317 370.172,71.006 370.233,71.006 370.404 C 71.006 371.738,40.799 373.434,33.235 372.525 C 30.644 372.214,30.619 372.400,33.941 367.129 C 41.833 354.602,52.161 330.647,58.205 310.848 C 62.998 295.148,66.447 288.169,73.388 280.125 C 84.770 266.933,110.357 255.398,117.647 260.173 " stroke="none" fill="#040404" fill-rule="evenodd"></path><path id="path1" d="M386.178 1.956 C 385.427 2.598,384.990 3.124,385.207 3.124 C 385.424 3.124,386.216 2.598,386.967 1.956 C 387.719 1.314,388.156 0.789,387.939 0.789 C 387.722 0.789,386.930 1.314,386.178 1.956 M398.421 2.663 C 398.937 3.368,399.421 3.945,399.496 3.945 C 399.796 3.945,398.818 2.465,398.171 1.940 C 397.745 1.594,397.840 1.869,398.421 2.663 M383.008 4.607 L 382.051 5.663 383.333 4.777 C 384.627 3.883,384.886 3.550,384.290 3.550 C 384.111 3.550,383.534 4.026,383.008 4.607 M380.436 6.764 C 379.690 7.604,379.690 7.607,380.550 7.156 C 381.509 6.653,382.099 5.917,381.544 5.917 C 381.348 5.917,380.849 6.298,380.436 6.764 M378.107 8.679 C 377.711 9.115,377.477 9.561,377.585 9.670 C 377.694 9.778,378.106 9.510,378.501 9.073 C 378.896 8.636,379.131 8.190,379.022 8.082 C 378.914 7.973,378.502 8.242,378.107 8.679 M373.964 12.148 C 371.653 14.477,371.849 14.457,374.852 12.055 C 375.883 11.230,376.726 10.400,376.726 10.209 C 376.726 9.549,376.125 9.971,373.964 12.148 M398.696 12.727 C 398.334 13.429,397.728 14.448,397.348 14.990 C 396.683 15.938,396.684 15.954,397.371 15.411 C 398.119 14.819,399.773 11.870,399.507 11.604 C 399.422 11.519,399.057 12.024,398.696 12.727 M370.179 15.446 L 369.428 16.296 370.513 15.598 C 371.631 14.878,371.843 14.596,371.264 14.596 C 371.081 14.596,370.593 14.978,370.179 15.446 M395.469 17.246 L 394.777 18.343 395.690 17.467 C 396.192 16.984,396.504 16.491,396.383 16.369 C 396.261 16.248,395.850 16.643,395.469 17.246 M365.255 19.582 C 364.344 20.572,364.340 20.599,365.165 20.170 C 366.081 19.694,366.662 18.996,366.379 18.713 C 366.286 18.620,365.780 19.011,365.255 19.582 M393.278 19.800 L 392.386 21.105 393.510 20.032 C 394.127 19.442,394.528 18.854,394.401 18.727 C 394.273 18.599,393.768 19.082,393.278 19.800 M362.130 21.839 C 361.371 22.556,360.394 23.569,359.961 24.090 L 359.172 25.036 359.961 24.462 C 360.394 24.146,361.016 23.657,361.341 23.375 C 361.667 23.093,362.421 22.498,363.018 22.053 C 364.046 21.287,364.451 20.500,363.807 20.523 C 363.644 20.529,362.890 21.121,362.130 21.839 M390.909 22.519 C 390.283 23.689,390.601 23.764,391.439 22.644 C 391.828 22.123,391.968 21.696,391.748 21.696 C 391.529 21.696,391.151 22.066,390.909 22.519 M388.780 24.940 C 387.840 26.282,388.049 26.677,389.152 25.641 C 389.694 25.131,390.138 24.568,390.138 24.389 C 390.138 23.765,389.390 24.069,388.780 24.940 M357.556 26.097 L 356.805 26.947 357.890 26.248 C 359.008 25.529,359.220 25.247,358.641 25.247 C 358.458 25.247,357.970 25.629,357.556 26.097 M386.791 27.502 L 386.098 28.600 387.011 27.723 C 387.514 27.241,387.825 26.747,387.704 26.626 C 387.583 26.505,387.172 26.899,386.791 27.502 M355.000 28.272 L 354.043 29.325 355.116 28.568 C 355.706 28.151,356.194 27.678,356.201 27.515 C 356.221 27.029,356.005 27.165,355.000 28.272 M384.634 30.084 L 383.723 31.361 384.839 30.288 C 385.452 29.698,385.862 29.123,385.750 29.011 C 385.637 28.899,385.135 29.381,384.634 30.084 M352.412 30.145 C 351.791 30.691,351.484 31.144,351.731 31.151 C 352.369 31.169,354.094 29.705,353.793 29.402 C 353.655 29.264,353.034 29.598,352.412 30.145 M349.704 32.347 C 349.311 32.781,349.118 33.136,349.274 33.136 C 349.838 33.136,351.085 32.311,351.085 31.939 C 351.085 31.320,350.469 31.502,349.704 32.347 M345.957 35.798 C 343.865 37.933,344.102 37.843,347.250 35.306 C 348.629 34.194,349.096 33.498,348.422 33.556 C 348.259 33.571,347.150 34.579,345.957 35.798 M380.371 35.103 C 379.649 36.259,379.775 36.511,380.671 35.700 C 381.472 34.975,381.704 34.320,381.160 34.320 C 380.995 34.320,380.640 34.672,380.371 35.103 M378.143 37.673 C 377.787 38.215,377.651 38.659,377.839 38.659 C 378.228 38.659,379.487 37.354,379.487 36.951 C 379.487 36.353,378.747 36.750,378.143 37.673 M375.937 40.350 L 374.951 41.603 376.233 40.696 C 376.938 40.197,377.515 39.623,377.515 39.421 C 377.515 38.743,376.931 39.087,375.937 40.350 M338.067 42.209 C 336.874 43.280,336.090 44.162,336.325 44.169 C 336.560 44.176,337.521 43.471,338.462 42.604 C 339.402 41.736,340.319 41.026,340.500 41.026 C 340.680 41.026,340.828 40.848,340.828 40.631 C 340.828 39.915,340.262 40.239,338.067 42.209 M334.381 45.297 C 334.022 45.694,333.728 46.146,333.728 46.302 C 333.728 46.675,335.672 45.256,335.688 44.872 C 335.710 44.343,335.049 44.559,334.381 45.297 M331.726 48.028 L 330.769 49.112 331.953 48.126 C 332.604 47.584,333.210 47.096,333.300 47.041 C 333.391 46.987,333.289 46.943,333.073 46.943 C 332.858 46.943,332.252 47.431,331.726 48.028 M369.822 47.732 C 369.427 48.168,369.193 48.614,369.301 48.723 C 369.410 48.831,369.822 48.563,370.217 48.126 C 370.612 47.690,370.847 47.244,370.738 47.135 C 370.630 47.027,370.218 47.295,369.822 47.732 M329.191 49.889 C 328.540 50.423,328.199 50.866,328.432 50.873 C 328.666 50.881,329.273 50.444,329.783 49.901 C 330.960 48.648,330.712 48.643,329.191 49.889 M367.973 49.998 C 366.832 51.326,366.765 51.866,367.874 50.801 C 368.489 50.211,368.896 49.633,368.780 49.516 C 368.664 49.400,368.301 49.617,367.973 49.998 M326.430 52.071 C 326.037 52.505,325.894 52.860,326.110 52.860 C 326.327 52.860,326.826 52.505,327.219 52.071 C 327.612 51.637,327.755 51.282,327.538 51.282 C 327.321 51.282,326.823 51.637,326.430 52.071 M365.089 53.254 C 364.696 53.688,364.552 54.043,364.769 54.043 C 364.986 54.043,365.485 53.688,365.878 53.254 C 366.270 52.821,366.414 52.465,366.197 52.465 C 365.980 52.465,365.481 52.821,365.089 53.254 M323.836 54.294 C 322.983 55.222,322.968 55.288,323.701 54.907 C 324.682 54.398,325.696 53.254,325.166 53.254 C 324.961 53.254,324.362 53.722,323.836 54.294 M321.302 56.410 C 320.907 56.847,320.672 57.293,320.781 57.401 C 320.889 57.510,321.301 57.241,321.696 56.805 C 322.091 56.368,322.326 55.922,322.217 55.814 C 322.109 55.705,321.697 55.974,321.302 56.410 M360.293 59.073 C 358.136 61.653,357.773 62.522,359.758 60.355 C 361.283 58.689,362.346 57.199,362.009 57.199 C 361.926 57.199,361.154 58.042,360.293 59.073 M315.946 61.000 C 315.093 61.928,315.079 61.994,315.812 61.614 C 316.792 61.104,317.806 59.961,317.277 59.961 C 317.071 59.961,316.472 60.428,315.946 61.000 M313.375 63.174 C 312.628 64.014,312.629 64.017,313.489 63.566 C 314.448 63.063,315.038 62.327,314.483 62.327 C 314.287 62.327,313.788 62.708,313.375 63.174 M357.120 62.811 C 356.225 63.966,356.170 64.435,357.024 63.620 C 357.530 63.138,357.846 62.646,357.727 62.526 C 357.607 62.406,357.334 62.535,357.120 62.811 M309.665 66.251 C 308.471 67.310,307.584 68.262,307.692 68.366 C 307.801 68.470,308.955 67.598,310.256 66.428 C 311.558 65.258,312.446 64.307,312.229 64.313 C 312.012 64.320,310.858 65.192,309.665 66.251 M354.627 65.690 C 353.865 66.608,354.409 66.782,355.225 65.880 C 355.619 65.445,355.758 65.089,355.534 65.089 C 355.309 65.089,354.902 65.359,354.627 65.690 M352.428 68.306 L 351.677 69.156 352.761 68.458 C 353.880 67.738,354.091 67.456,353.513 67.456 C 353.329 67.456,352.841 67.838,352.428 68.306 M305.771 69.652 C 305.264 70.180,305.017 70.611,305.223 70.611 C 305.679 70.611,307.098 69.096,306.862 68.861 C 306.770 68.769,306.279 69.125,305.771 69.652 M350.616 70.510 C 349.475 71.839,349.408 72.378,350.517 71.314 C 351.132 70.724,351.539 70.146,351.423 70.029 C 351.307 69.913,350.944 70.129,350.616 70.510 M301.775 73.027 C 300.582 74.125,300.138 74.665,300.789 74.227 C 302.580 73.021,304.785 71.038,304.339 71.035 C 304.122 71.033,302.968 71.929,301.775 73.027 M348.441 73.067 C 347.546 74.223,347.491 74.691,348.346 73.877 C 348.852 73.395,349.168 72.902,349.048 72.782 C 348.928 72.663,348.655 72.791,348.441 73.067 M346.469 75.434 C 345.574 76.590,345.519 77.058,346.373 76.244 C 346.879 75.762,347.195 75.269,347.076 75.149 C 346.956 75.030,346.683 75.158,346.469 75.434 M297.990 76.192 C 297.244 77.032,297.245 77.035,298.104 76.584 C 299.063 76.081,299.654 75.345,299.098 75.345 C 298.902 75.345,298.403 75.726,297.990 76.192 M295.661 78.107 C 295.266 78.543,295.031 78.989,295.140 79.098 C 295.248 79.206,295.660 78.938,296.055 78.501 C 296.450 78.064,296.685 77.618,296.576 77.510 C 296.468 77.401,296.056 77.670,295.661 78.107 M343.546 78.994 C 343.083 79.877,343.085 79.878,343.927 79.130 C 344.867 78.295,344.953 78.107,344.393 78.107 C 344.183 78.107,343.802 78.506,343.546 78.994 M292.651 80.545 C 292.155 81.242,292.011 81.653,292.329 81.471 C 293.280 80.923,294.280 79.977,294.280 79.623 C 294.280 78.909,293.503 79.348,292.651 80.545 M341.418 81.265 C 340.696 82.063,340.813 82.746,341.589 82.266 C 342.187 81.896,342.895 80.473,342.481 80.473 C 342.290 80.473,341.812 80.829,341.418 81.265 M290.101 82.898 C 289.354 83.738,289.355 83.741,290.215 83.290 C 291.174 82.787,291.764 82.051,291.209 82.051 C 291.013 82.051,290.514 82.432,290.101 82.898 M339.234 84.100 L 338.343 85.404 339.466 84.331 C 340.084 83.741,340.485 83.154,340.357 83.027 C 340.230 82.899,339.724 83.382,339.234 84.100 M286.391 86.042 C 284.002 88.237,284.854 87.850,287.577 85.503 C 288.521 84.689,289.129 84.029,288.927 84.036 C 288.725 84.043,287.584 84.946,286.391 86.042 M337.087 86.674 L 336.394 87.771 337.307 86.895 C 337.810 86.412,338.121 85.919,338.000 85.797 C 337.879 85.676,337.468 86.071,337.087 86.674 M335.114 89.041 L 334.422 90.138 335.335 89.261 C 335.837 88.779,336.149 88.286,336.028 88.164 C 335.906 88.043,335.495 88.438,335.114 89.041 M282.446 89.152 C 281.910 89.556,281.577 89.992,281.705 90.121 C 281.834 90.250,282.364 90.011,282.883 89.590 C 284.114 88.592,283.716 88.194,282.446 89.152 M279.686 91.320 C 279.177 91.861,278.853 92.397,278.965 92.509 C 279.232 92.775,281.262 91.177,281.262 90.701 C 281.262 90.061,280.639 90.305,279.686 91.320 M332.697 91.728 C 331.779 93.130,332.163 93.220,333.265 91.861 C 333.769 91.239,333.995 90.730,333.767 90.730 C 333.538 90.730,333.057 91.179,332.697 91.728 M277.083 93.947 L 276.331 94.797 277.416 94.099 C 278.535 93.379,278.746 93.097,278.168 93.097 C 277.984 93.097,277.496 93.479,277.083 93.947 M330.411 94.477 C 330.056 95.020,329.919 95.464,330.107 95.464 C 330.496 95.464,331.755 94.159,331.755 93.756 C 331.755 93.158,331.015 93.555,330.411 94.477 M274.526 96.154 L 273.570 97.239 274.753 96.252 C 275.404 95.710,276.011 95.222,276.101 95.168 C 276.192 95.113,276.089 95.069,275.874 95.069 C 275.659 95.069,275.052 95.557,274.526 96.154 M328.195 97.140 L 327.248 98.422 328.494 97.436 C 329.719 96.465,330.092 95.858,329.463 95.858 C 329.287 95.858,328.716 96.435,328.195 97.140 M272.159 98.095 L 271.203 99.148 272.276 98.390 C 272.865 97.974,273.354 97.500,273.360 97.337 C 273.381 96.851,273.164 96.988,272.159 98.095 M269.231 100.197 C 268.838 100.631,268.645 100.986,268.801 100.986 C 269.364 100.986,270.611 100.161,270.611 99.789 C 270.611 99.170,269.996 99.352,269.231 100.197 M266.925 102.102 C 265.967 103.161,266.129 103.465,267.258 102.725 C 268.225 102.091,268.571 101.381,267.911 101.381 C 267.728 101.381,267.284 101.705,266.925 102.102 M264.252 104.603 L 263.362 105.854 264.620 104.924 C 265.859 104.007,266.230 103.353,265.510 103.353 C 265.308 103.353,264.742 103.916,264.252 104.603 M321.708 105.030 C 321.044 106.164,321.037 106.247,321.644 105.752 C 322.477 105.074,323.230 103.748,322.781 103.748 C 322.604 103.748,322.120 104.324,321.708 105.030 M319.622 107.292 C 318.900 108.449,319.026 108.700,319.921 107.890 C 320.722 107.164,320.955 106.509,320.410 106.509 C 320.246 106.509,319.891 106.861,319.622 107.292 M258.974 109.085 C 258.323 109.619,257.982 110.056,258.215 110.057 C 258.449 110.058,259.057 109.615,259.566 109.073 C 260.735 107.829,260.501 107.834,258.974 109.085 M317.368 109.973 L 316.591 111.045 317.544 110.420 C 318.514 109.783,319.072 108.866,318.475 108.888 C 318.294 108.895,317.796 109.383,317.368 109.973 M256.213 111.243 C 255.820 111.677,255.660 112.026,255.856 112.019 C 256.315 112.003,257.594 111.036,257.594 110.706 C 257.594 110.205,256.912 110.470,256.213 111.243 M315.221 112.577 L 314.269 113.807 315.398 112.734 C 316.018 112.144,316.447 111.590,316.350 111.504 C 316.253 111.417,315.745 111.900,315.221 112.577 M252.564 114.339 C 251.425 115.389,250.493 116.392,250.493 116.568 C 250.493 116.896,251.389 116.204,253.427 114.300 C 254.065 113.703,254.731 113.215,254.907 113.215 C 255.083 113.215,255.227 113.037,255.227 112.821 C 255.227 112.090,254.645 112.422,252.564 114.339 M311.045 117.554 C 310.650 117.991,310.416 118.437,310.524 118.545 C 310.633 118.654,311.045 118.385,311.440 117.949 C 311.835 117.512,312.069 117.066,311.961 116.958 C 311.852 116.849,311.440 117.118,311.045 117.554 M245.730 120.172 C 244.876 121.100,244.862 121.166,245.595 120.785 C 246.575 120.276,247.589 119.132,247.060 119.132 C 246.854 119.132,246.255 119.600,245.730 120.172 M308.679 120.316 C 308.283 120.752,308.049 121.198,308.157 121.307 C 308.266 121.415,308.678 121.147,309.073 120.710 C 309.468 120.273,309.703 119.828,309.594 119.719 C 309.486 119.611,309.074 119.879,308.679 120.316 M243.158 122.345 C 242.412 123.186,242.412 123.189,243.272 122.738 C 244.231 122.235,244.821 121.499,244.266 121.499 C 244.070 121.499,243.571 121.880,243.158 122.345 M306.507 122.881 C 305.999 123.423,305.763 123.866,305.984 123.866 C 306.488 123.866,307.888 122.352,307.626 122.090 C 307.519 121.984,307.016 122.340,306.507 122.881 M239.448 125.422 C 238.254 126.482,237.367 127.433,237.475 127.537 C 237.584 127.641,238.738 126.769,240.039 125.599 C 241.341 124.430,242.229 123.478,242.012 123.485 C 241.795 123.491,240.641 124.363,239.448 125.422 M302.488 127.712 C 301.429 128.945,301.109 129.683,301.918 129.027 C 302.580 128.489,303.541 127.022,303.231 127.022 C 303.148 127.022,302.814 127.332,302.488 127.712 M300.315 130.267 C 299.420 131.422,299.365 131.890,300.220 131.076 C 300.726 130.594,301.042 130.101,300.922 129.982 C 300.802 129.862,300.529 129.990,300.315 130.267 M232.712 131.217 C 231.858 132.145,231.844 132.211,232.577 131.830 C 233.558 131.321,234.572 130.178,234.042 130.178 C 233.836 130.178,233.238 130.645,232.712 131.217 M298.028 132.939 C 297.633 133.375,297.398 133.821,297.506 133.930 C 297.615 134.038,298.027 133.770,298.422 133.333 C 298.817 132.897,299.052 132.451,298.943 132.342 C 298.835 132.234,298.423 132.502,298.028 132.939 M230.140 133.391 C 229.394 134.231,229.395 134.234,230.254 133.783 C 231.213 133.280,231.803 132.544,231.248 132.544 C 231.052 132.544,230.553 132.925,230.140 133.391 M226.430 136.468 C 225.237 137.527,224.349 138.479,224.458 138.583 C 224.566 138.686,225.720 137.814,227.022 136.645 C 228.323 135.475,229.211 134.524,228.994 134.530 C 228.777 134.537,227.623 135.409,226.430 136.468 M295.858 135.503 C 295.350 136.044,295.023 136.575,295.132 136.683 C 295.240 136.792,295.745 136.438,296.252 135.897 C 296.760 135.357,297.087 134.826,296.979 134.717 C 296.870 134.609,296.366 134.962,295.858 135.503 M293.292 138.464 C 292.283 139.578,292.712 139.682,293.773 138.580 C 294.253 138.081,294.503 137.673,294.327 137.673 C 294.152 137.673,293.686 138.029,293.292 138.464 M222.484 139.844 C 221.975 140.385,221.740 140.828,221.961 140.828 C 222.465 140.828,223.864 139.314,223.602 139.052 C 223.496 138.946,222.993 139.302,222.484 139.844 M291.636 140.523 C 290.742 141.678,290.686 142.147,291.541 141.332 C 292.047 140.850,292.363 140.358,292.243 140.238 C 292.124 140.118,291.850 140.247,291.636 140.523 M219.694 142.263 C 218.841 143.190,218.826 143.256,219.559 142.876 C 220.540 142.367,221.554 141.223,221.024 141.223 C 220.819 141.223,220.220 141.691,219.694 142.263 M289.136 143.666 L 288.244 144.970 289.368 143.898 C 289.985 143.307,290.386 142.720,290.259 142.593 C 290.131 142.465,289.626 142.948,289.136 143.666 M217.122 144.440 L 216.371 145.290 217.456 144.592 C 218.574 143.872,218.786 143.590,218.207 143.590 C 218.024 143.590,217.536 143.972,217.122 144.440 M214.566 146.618 L 213.609 147.675 214.892 146.789 C 216.185 145.895,216.445 145.562,215.848 145.562 C 215.669 145.562,215.092 146.037,214.566 146.618 M212.133 148.533 C 211.538 149.045,211.202 149.557,211.385 149.671 C 211.738 149.889,213.665 148.050,213.381 147.767 C 213.290 147.676,212.728 148.021,212.133 148.533 M284.805 148.530 C 284.042 149.449,284.586 149.622,285.402 148.720 C 285.796 148.285,285.935 147.929,285.711 147.929 C 285.487 147.929,285.079 148.200,284.805 148.530 M209.244 150.983 L 208.535 152.065 209.473 151.443 C 210.475 150.777,210.965 149.901,210.335 149.901 C 210.125 149.901,209.634 150.388,209.244 150.983 M282.764 150.986 C 281.769 152.145,281.456 152.830,282.089 152.466 C 283.024 151.929,284.024 150.980,284.024 150.629 C 284.024 150.075,283.393 150.254,282.764 150.986 M206.676 153.324 L 205.720 154.381 207.002 153.495 C 208.296 152.601,208.555 152.268,207.958 152.268 C 207.779 152.268,207.202 152.744,206.676 153.324 M280.282 154.130 L 279.589 155.227 280.503 154.350 C 281.005 153.868,281.317 153.374,281.195 153.253 C 281.074 153.132,280.663 153.526,280.282 154.130 M202.761 156.654 C 200.373 158.848,201.224 158.461,203.948 156.114 C 204.892 155.301,205.500 154.641,205.298 154.648 C 205.096 154.655,203.955 155.557,202.761 156.654 M278.310 156.497 L 277.617 157.594 278.530 156.717 C 279.032 156.235,279.344 155.741,279.223 155.620 C 279.102 155.499,278.691 155.893,278.310 156.497 M276.153 159.078 L 275.242 160.355 276.357 159.282 C 276.971 158.692,277.381 158.117,277.269 158.005 C 277.156 157.893,276.654 158.375,276.153 159.078 M198.422 159.961 C 197.728 160.699,197.646 160.947,198.095 160.947 C 198.681 160.947,200.000 159.764,200.000 159.239 C 200.000 158.695,199.319 159.006,198.422 159.961 M273.724 161.834 C 273.260 162.717,273.263 162.718,274.104 161.970 C 275.045 161.136,275.131 160.947,274.570 160.947 C 274.361 160.947,273.980 161.346,273.724 161.834 M194.477 163.608 C 192.386 165.744,192.622 165.654,195.770 163.116 C 197.150 162.004,197.617 161.308,196.943 161.367 C 196.780 161.381,195.671 162.390,194.477 163.608 M271.535 164.497 C 271.150 165.148,270.730 165.680,270.601 165.680 C 270.471 165.680,269.949 166.257,269.440 166.963 L 268.514 168.245 269.628 167.258 C 271.222 165.847,272.953 163.955,272.967 163.609 C 272.994 162.903,272.177 163.410,271.535 164.497 M187.497 169.458 L 186.391 170.475 187.673 169.768 C 188.378 169.379,188.955 168.921,188.955 168.751 C 188.955 168.246,188.664 168.387,187.497 169.458 M184.615 171.795 C 184.106 172.337,183.815 172.781,183.969 172.781 C 184.464 172.781,186.193 171.519,186.193 171.158 C 186.193 170.533,185.561 170.788,184.615 171.795 M181.844 174.458 L 180.897 175.740 182.143 174.753 C 183.368 173.783,183.741 173.176,183.112 173.176 C 182.935 173.176,182.365 173.752,181.844 174.458 M263.211 174.354 C 262.489 175.510,262.615 175.761,263.511 174.951 C 264.312 174.226,264.544 173.570,264.000 173.570 C 263.835 173.570,263.480 173.923,263.211 174.354 M261.045 176.911 C 260.048 178.283,260.198 178.589,261.341 177.515 C 262.312 176.602,262.611 175.925,262.032 175.949 C 261.869 175.956,261.425 176.389,261.045 176.911 M176.134 179.278 C 175.483 179.811,175.142 180.254,175.375 180.262 C 175.608 180.270,176.216 179.832,176.726 179.290 C 177.903 178.037,177.654 178.032,176.134 179.278 M258.591 179.795 L 257.813 180.868 258.767 180.242 C 259.737 179.606,260.294 178.688,259.698 178.711 C 259.517 178.717,259.019 179.206,258.591 179.795 M173.146 181.718 L 172.189 182.766 173.471 182.028 C 174.177 181.622,174.753 181.150,174.753 180.980 C 174.753 180.379,174.091 180.683,173.146 181.718 M256.444 182.399 L 255.492 183.629 256.620 182.556 C 257.241 181.966,257.670 181.413,257.573 181.326 C 257.476 181.240,256.968 181.723,256.444 182.399 M170.221 184.217 C 169.599 184.865,169.167 185.472,169.260 185.565 C 169.442 185.747,171.992 183.577,171.992 183.240 C 171.992 182.731,171.255 183.137,170.221 184.217 M252.392 187.276 C 251.250 188.605,251.184 189.144,252.292 188.079 C 252.907 187.489,253.315 186.911,253.198 186.795 C 253.082 186.678,252.719 186.895,252.392 187.276 M164.088 189.728 C 163.336 190.370,162.911 190.902,163.141 190.911 C 163.372 190.920,164.071 190.394,164.694 189.744 C 166.142 188.232,165.846 188.224,164.088 189.728 M249.901 190.138 C 249.506 190.575,249.272 191.021,249.380 191.129 C 249.489 191.238,249.901 190.969,250.296 190.533 C 250.691 190.096,250.925 189.650,250.817 189.542 C 250.709 189.433,250.296 189.701,249.901 190.138 M160.725 192.556 C 159.898 193.437,159.793 193.674,160.359 193.382 C 161.348 192.872,162.782 191.321,162.265 191.321 C 162.055 191.321,161.362 191.877,160.725 192.556 M247.531 192.904 C 246.909 193.552,246.580 194.083,246.800 194.083 C 247.308 194.083,249.115 192.179,248.855 191.919 C 248.748 191.812,248.152 192.255,247.531 192.904 M157.008 195.852 C 156.275 196.608,155.763 197.315,155.871 197.423 C 155.979 197.530,156.757 196.912,157.601 196.048 C 158.444 195.184,158.956 194.477,158.737 194.477 C 158.519 194.477,157.741 195.096,157.008 195.852 M243.319 197.927 C 242.177 199.255,242.111 199.795,243.219 198.730 C 243.834 198.140,244.242 197.562,244.125 197.445 C 244.009 197.329,243.646 197.546,243.319 197.927 M152.860 199.849 C 151.992 200.617,151.637 201.071,152.071 200.856 C 152.795 200.499,154.991 198.403,154.605 198.437 C 154.513 198.445,153.728 199.080,152.860 199.849 M241.143 200.484 C 240.249 201.639,240.193 202.107,241.048 201.293 C 241.554 200.811,241.870 200.318,241.750 200.199 C 241.631 200.079,241.357 200.207,241.143 200.484 M148.310 203.815 C 146.426 205.770,146.353 205.899,147.732 204.841 C 149.657 203.362,151.359 201.578,150.844 201.578 C 150.636 201.578,149.496 202.585,148.310 203.815 M238.979 203.055 C 237.838 204.384,237.771 204.923,238.880 203.858 C 239.495 203.268,239.902 202.690,239.786 202.574 C 239.670 202.457,239.307 202.674,238.979 203.055 M236.095 206.312 C 235.702 206.746,235.558 207.101,235.775 207.101 C 235.992 207.101,236.491 206.746,236.884 206.312 C 237.276 205.878,237.420 205.523,237.203 205.523 C 236.986 205.523,236.487 205.878,236.095 206.312 M140.039 211.764 C 136.245 215.558,136.019 215.844,138.659 213.509 C 142.303 210.287,144.995 207.572,144.748 207.369 C 144.653 207.292,142.535 209.270,140.039 211.764 M234.243 208.580 C 232.706 210.370,232.898 210.820,234.455 209.073 C 235.035 208.422,235.358 207.890,235.173 207.890 C 234.988 207.890,234.569 208.200,234.243 208.580 M232.070 211.134 C 231.176 212.290,231.120 212.758,231.975 211.944 C 232.481 211.462,232.797 210.969,232.677 210.850 C 232.558 210.730,232.284 210.858,232.070 211.134 M229.570 214.277 L 228.678 215.582 229.802 214.509 C 230.419 213.919,230.820 213.332,230.693 213.204 C 230.565 213.077,230.060 213.559,229.570 214.277 M154.013 221.873 C 149.908 225.876,146.746 229.160,146.987 229.171 C 147.229 229.182,150.618 225.999,154.519 222.098 L 161.612 215.005 162.532 215.984 C 163.037 216.522,163.631 216.963,163.851 216.963 C 164.070 216.963,163.740 216.430,163.116 215.779 C 161.616 214.213,162.430 213.668,154.013 221.873 M227.329 216.667 C 226.383 217.890,226.395 218.259,227.353 217.387 C 227.930 216.861,228.402 216.373,228.402 216.302 C 228.402 215.976,227.671 216.224,227.329 216.667 M224.776 219.625 C 224.195 220.302,223.559 221.696,223.831 221.696 C 223.907 221.696,224.443 221.075,225.023 220.316 C 226.084 218.923,225.877 218.343,224.776 219.625 M222.075 222.956 L 221.183 224.260 222.306 223.187 C 222.924 222.597,223.325 222.010,223.198 221.883 C 223.070 221.755,222.565 222.238,222.075 222.956 M219.743 225.744 L 218.832 227.022 219.947 225.949 C 220.561 225.359,220.971 224.784,220.858 224.672 C 220.746 224.559,220.244 225.042,219.743 225.744 M120.382 230.985 C 117.942 233.490,115.553 235.698,115.074 235.891 C 114.301 236.202,114.288 236.245,114.959 236.267 C 115.421 236.282,117.655 234.368,120.679 231.365 C 123.408 228.655,125.456 226.436,125.230 226.434 C 125.004 226.432,122.822 228.480,120.382 230.985 M217.341 228.478 L 216.450 229.783 217.573 228.710 C 218.190 228.120,218.591 227.533,218.464 227.405 C 218.336 227.278,217.831 227.761,217.341 228.478 M214.354 231.768 C 213.404 233.218,213.958 233.403,214.974 231.975 C 215.446 231.312,215.647 230.769,215.421 230.769 C 215.194 230.769,214.714 231.219,214.354 231.768 M180.276 233.377 C 180.276 233.585,181.283 234.725,182.514 235.911 C 184.468 237.794,184.598 237.868,183.539 236.489 C 182.060 234.564,180.276 232.862,180.276 233.377 M212.174 234.221 C 210.528 236.207,210.445 236.496,211.813 235.469 C 213.180 234.443,213.791 233.531,213.112 233.531 C 212.910 233.531,212.488 233.841,212.174 234.221 M208.509 238.578 L 207.383 240.039 208.701 238.770 C 209.426 238.072,209.933 237.414,209.827 237.309 C 209.722 237.204,209.129 237.775,208.509 238.578 M184.479 239.380 C 183.755 240.180,183.646 240.631,184.176 240.631 C 184.368 240.631,184.815 240.187,185.171 239.645 C 185.920 238.502,185.440 238.319,184.479 239.380 M205.301 242.308 L 204.142 243.590 205.424 242.431 C 206.129 241.794,206.706 241.217,206.706 241.149 C 206.706 240.844,206.381 241.113,205.301 242.308 M90.347 241.799 C 90.028 242.001,89.869 242.269,89.994 242.394 C 90.305 242.705,91.519 242.210,91.519 241.772 C 91.519 241.323,91.084 241.333,90.347 241.799 M177.353 246.984 C 174.334 250.001,171.994 252.599,172.151 252.756 C 172.429 253.033,181.836 243.501,182.657 242.110 C 183.272 241.069,183.242 241.098,177.353 246.984 M88.374 242.588 C 88.055 242.790,87.897 243.058,88.022 243.183 C 88.333 243.494,89.546 242.999,89.546 242.561 C 89.546 242.112,89.112 242.122,88.374 242.588 M85.996 243.787 C 85.496 244.221,84.906 244.576,84.687 244.576 C 84.467 244.576,84.383 244.672,84.501 244.790 C 84.782 245.071,87.574 243.736,87.574 243.319 C 87.574 242.775,86.949 242.961,85.996 243.787 M201.260 246.549 C 200.326 247.633,199.664 248.521,199.790 248.521 C 200.173 248.521,203.550 245.287,203.550 244.920 C 203.550 244.185,202.893 244.653,201.260 246.549 M79.976 246.901 C 77.386 248.421,77.099 248.830,79.487 247.598 C 81.853 246.377,82.783 245.767,82.249 245.785 C 82.032 245.793,81.009 246.295,79.976 246.901 M136.493 255.056 C 140.939 259.518,145.286 263.727,146.154 264.409 C 147.022 265.091,143.540 261.440,138.416 256.296 C 133.292 251.152,128.945 246.943,128.755 246.943 C 128.565 246.943,132.047 250.594,136.493 255.056 M196.466 251.859 L 194.313 254.241 196.645 251.987 C 197.927 250.747,198.896 249.675,198.798 249.605 C 198.700 249.535,197.650 250.550,196.466 251.859 M73.631 250.725 C 72.804 251.287,72.219 251.838,72.330 251.949 C 72.520 252.139,75.345 250.177,75.345 249.855 C 75.345 249.591,75.166 249.682,73.631 250.725 M68.642 254.024 C 67.884 254.652,67.381 255.283,67.524 255.427 C 67.667 255.570,68.123 255.348,68.538 254.934 C 68.952 254.519,69.588 254.066,69.951 253.927 C 70.603 253.677,70.889 252.850,70.316 252.871 C 70.153 252.876,69.400 253.395,68.642 254.024 M65.643 256.866 L 64.892 257.716 65.976 257.018 C 67.095 256.298,67.306 256.016,66.728 256.016 C 66.544 256.016,66.056 256.398,65.643 256.866 M163.594 260.824 C 160.825 263.437,158.362 265.954,158.121 266.417 C 157.881 266.880,157.785 267.170,157.908 267.061 C 159.339 265.803,168.836 256.279,168.749 256.191 C 168.684 256.126,166.364 258.211,163.594 260.824 M191.319 257.101 C 190.852 257.697,186.991 261.736,182.738 266.075 C 178.485 270.414,175.348 273.698,175.767 273.373 C 176.905 272.488,192.899 256.490,192.899 256.235 C 192.899 255.674,192.087 256.119,191.319 257.101 M59.783 262.137 C 57.407 264.396,55.576 266.359,55.715 266.497 C 55.854 266.636,57.892 264.778,60.245 262.369 C 65.605 256.880,65.412 256.783,59.783 262.137 M112.332 259.451 C 112.823 259.545,113.533 259.541,113.910 259.443 C 114.287 259.344,113.886 259.267,113.018 259.271 C 112.150 259.275,111.841 259.356,112.332 259.451 M116.317 260.378 C 117.046 260.823,117.728 261.101,117.833 260.997 C 118.031 260.798,115.851 259.565,115.306 259.568 C 115.132 259.568,115.587 259.933,116.317 260.378 M122.284 264.894 C 125.613 268.527,141.544 284.418,141.857 284.418 C 142.382 284.418,125.945 267.662,122.091 264.267 L 120.118 262.530 122.284 264.894 M94.675 264.892 C 94.132 265.202,93.866 265.455,94.083 265.455 C 94.300 265.455,94.921 265.202,95.464 264.892 C 96.006 264.581,96.272 264.328,96.055 264.328 C 95.838 264.328,95.217 264.581,94.675 264.892 M91.350 266.478 C 90.932 266.794,90.682 267.145,90.794 267.257 C 90.906 267.369,91.408 267.104,91.910 266.669 C 92.954 265.764,92.499 265.609,91.350 266.478 M54.241 268.245 C 53.848 268.679,53.725 269.034,53.968 269.034 C 54.211 269.034,54.600 268.679,54.832 268.245 C 55.065 267.811,55.187 267.456,55.105 267.456 C 55.022 267.456,54.633 267.811,54.241 268.245 M88.532 268.019 C 88.114 268.325,87.874 268.676,87.998 268.800 C 88.122 268.924,88.565 268.775,88.983 268.470 C 89.401 268.165,89.641 267.813,89.517 267.689 C 89.393 267.565,88.950 267.714,88.532 268.019 M150.690 268.836 C 151.426 269.596,152.117 270.217,152.226 270.217 C 152.334 270.217,151.821 269.596,151.085 268.836 C 150.349 268.077,149.658 267.456,149.549 267.456 C 149.441 267.456,149.954 268.077,150.690 268.836 M154.808 269.527 L 153.649 270.809 154.931 269.650 C 156.126 268.570,156.394 268.245,156.090 268.245 C 156.022 268.245,155.445 268.821,154.808 269.527 M84.685 270.668 C 83.421 271.545,82.471 272.347,82.575 272.450 C 82.734 272.609,86.166 270.390,87.357 269.358 C 88.446 268.415,86.695 269.273,84.685 270.668 M52.805 270.118 C 51.554 271.629,51.103 272.330,51.560 272.056 C 52.064 271.753,53.816 269.428,53.540 269.428 C 53.450 269.428,53.119 269.739,52.805 270.118 M48.933 275.560 C 48.023 277.001,47.349 278.250,47.435 278.336 C 47.522 278.422,48.341 277.318,49.256 275.883 C 50.171 274.448,50.845 273.199,50.753 273.107 C 50.662 273.016,49.843 274.120,48.933 275.560 M78.337 275.559 C 77.487 276.309,76.964 276.923,77.174 276.923 C 77.385 276.923,78.159 276.302,78.895 275.542 C 80.596 273.788,80.333 273.796,78.337 275.559 M73.597 280.276 C 73.018 281.036,72.697 281.657,72.884 281.657 C 73.283 281.657,75.345 279.573,75.345 279.170 C 75.345 278.510,74.569 279.001,73.597 280.276 M71.795 282.371 C 71.795 282.547,71.484 283.038,71.105 283.461 C 69.596 285.143,69.141 285.867,70.007 285.207 C 71.833 283.815,73.053 282.051,72.189 282.051 C 71.972 282.051,71.795 282.195,71.795 282.371 M43.457 285.421 C 42.906 286.629,42.894 286.785,43.347 286.785 C 43.659 286.785,44.254 284.760,44.013 284.515 C 43.959 284.460,43.709 284.868,43.457 285.421 M140.828 288.189 C 140.828 288.761,140.999 289.093,141.223 288.955 C 141.440 288.821,141.617 288.366,141.617 287.945 C 141.617 287.524,141.440 287.179,141.223 287.179 C 141.006 287.179,140.828 287.634,140.828 288.189 M65.660 291.954 C 64.884 293.495,64.313 294.820,64.392 294.898 C 64.471 294.977,65.191 293.716,65.992 292.097 C 66.793 290.477,67.364 289.152,67.260 289.152 C 67.156 289.152,66.436 290.413,65.660 291.954 M140.643 290.056 C 140.475 290.446,140.447 290.874,140.582 291.010 C 140.983 291.410,141.306 290.848,141.122 290.070 C 140.958 289.381,140.937 289.381,140.643 290.056 M139.645 295.266 C 139.645 295.592,139.822 295.858,140.039 295.858 C 140.256 295.858,140.434 295.592,140.434 295.266 C 140.434 294.941,140.256 294.675,140.039 294.675 C 139.822 294.675,139.645 294.941,139.645 295.266 M135.531 312.257 C 135.386 312.835,135.343 313.384,135.436 313.477 C 135.529 313.570,135.724 313.173,135.869 312.595 C 136.014 312.017,136.057 311.468,135.964 311.375 C 135.871 311.282,135.676 311.679,135.531 312.257 M132.608 320.530 C 131.948 321.980,132.074 322.290,132.788 320.971 C 133.122 320.355,133.321 319.778,133.231 319.687 C 133.141 319.597,132.861 319.976,132.608 320.530 M131.425 323.291 C 130.764 324.742,130.890 325.051,131.605 323.732 C 131.939 323.117,132.138 322.539,132.048 322.449 C 131.957 322.358,131.677 322.738,131.425 323.291 M155.426 324.655 C 155.062 325.843,155.081 326.754,155.457 326.119 C 155.687 325.731,155.787 325.199,155.680 324.936 C 155.574 324.673,155.459 324.546,155.426 324.655 M53.333 326.509 C 52.750 328.411,53.032 328.693,53.649 326.824 C 53.909 326.036,54.045 325.314,53.952 325.220 C 53.858 325.127,53.580 325.706,53.333 326.509 M130.178 326.139 C 130.178 326.376,129.934 326.814,129.637 327.111 C 128.796 327.953,127.745 330.178,128.188 330.178 C 128.670 330.178,130.718 326.247,130.401 325.931 C 130.278 325.807,130.178 325.901,130.178 326.139 M153.682 328.853 C 153.352 329.714,153.790 330.114,154.256 329.377 C 154.723 328.640,154.732 328.205,154.283 328.205 C 154.089 328.205,153.819 328.497,153.682 328.853 M152.508 331.590 C 152.137 332.556,152.218 332.651,152.860 332.009 C 153.531 331.338,153.616 330.966,153.099 330.966 C 152.906 330.966,152.639 331.247,152.508 331.590 M125.626 333.772 C 123.725 336.812,123.693 336.884,124.227 336.884 C 124.463 336.884,124.655 336.617,124.655 336.292 C 124.655 335.966,124.832 335.700,125.049 335.700 C 125.266 335.700,125.444 335.434,125.444 335.108 C 125.444 334.783,125.621 334.517,125.838 334.517 C 126.055 334.517,126.233 334.263,126.233 333.953 C 126.233 333.643,126.513 333.109,126.856 332.766 C 127.199 332.423,127.414 331.947,127.334 331.707 C 127.254 331.467,126.486 332.396,125.626 333.772 M25.514 334.732 C 25.150 335.496,24.856 336.337,24.861 336.601 C 24.865 336.865,25.224 336.300,25.657 335.346 C 26.595 333.278,26.468 332.732,25.514 334.732 M49.689 335.897 C 49.646 336.114,49.632 336.425,49.657 336.588 C 49.683 336.750,49.564 336.884,49.394 336.884 C 49.223 336.884,49.057 337.283,49.025 337.771 C 48.972 338.572,49.024 338.551,49.557 337.550 C 49.883 336.941,50.063 336.231,49.958 335.972 C 49.852 335.714,49.731 335.680,49.689 335.897 M149.391 338.670 C 148.808 339.857,148.416 340.828,148.518 340.828 C 148.784 340.828,150.774 336.835,150.596 336.658 C 150.516 336.577,149.973 337.483,149.391 338.670 M23.274 339.250 C 23.274 339.467,23.289 339.758,23.308 339.897 C 23.326 340.035,23.171 340.257,22.963 340.390 C 22.449 340.717,18.838 347.963,19.072 348.197 C 19.174 348.299,19.374 348.015,19.517 347.564 C 19.660 347.114,19.953 346.746,20.168 346.746 C 20.383 346.746,20.459 346.583,20.336 346.385 C 20.214 346.186,20.270 345.964,20.461 345.892 C 21.226 345.601,24.291 338.856,23.659 338.856 C 23.447 338.856,23.274 339.034,23.274 339.250 M48.132 339.744 C 48.137 340.461,48.211 340.518,48.521 340.039 C 49.015 339.275,49.015 338.856,48.521 338.856 C 48.304 338.856,48.129 339.255,48.132 339.744 M47.173 341.477 C 46.843 342.337,47.281 342.737,47.747 342.000 C 48.214 341.263,48.224 340.828,47.774 340.828 C 47.580 340.828,47.310 341.120,47.173 341.477 M119.391 342.733 C 118.671 343.528,118.513 344.170,119.130 343.788 C 119.542 343.534,120.453 342.012,120.193 342.012 C 120.111 342.012,119.750 342.336,119.391 342.733 M117.294 345.015 C 116.826 345.343,115.317 346.886,113.941 348.445 C 111.007 351.769,113.100 350.413,116.479 346.800 C 118.718 344.406,118.977 343.839,117.294 345.015 M143.590 348.521 C 143.590 348.846,143.412 349.112,143.195 349.112 C 142.978 349.112,142.801 349.364,142.801 349.671 C 142.801 349.979,142.651 350.289,142.467 350.362 C 142.284 350.434,141.450 351.469,140.615 352.663 L 139.097 354.832 140.472 353.452 C 142.816 351.098,144.831 347.929,143.984 347.929 C 143.767 347.929,143.590 348.195,143.590 348.521 M43.272 350.513 C 41.824 353.466,41.957 353.816,43.438 350.947 C 44.093 349.677,44.562 348.573,44.482 348.492 C 44.401 348.412,43.857 349.321,43.272 350.513 M16.371 352.663 C 16.034 353.314,15.848 353.846,15.956 353.846 C 16.065 353.846,16.429 353.314,16.765 352.663 C 17.102 352.012,17.289 351.479,17.180 351.479 C 17.072 351.479,16.707 352.012,16.371 352.663 M109.430 352.724 L 108.679 353.574 109.763 352.876 C 110.882 352.156,111.093 351.874,110.515 351.874 C 110.331 351.874,109.843 352.256,109.430 352.724 M14.476 355.793 C 14.108 356.416,13.807 357.077,13.808 357.260 C 13.809 357.444,14.174 356.997,14.618 356.267 C 15.063 355.538,15.364 354.877,15.287 354.800 C 15.209 354.723,14.845 355.169,14.476 355.793 M102.761 357.053 C 100.282 358.695,99.400 359.715,101.148 358.919 C 101.710 358.663,102.170 358.304,102.170 358.122 C 102.170 357.940,102.436 357.791,102.761 357.791 C 103.087 357.791,103.353 357.603,103.353 357.373 C 103.353 357.143,103.532 357.066,103.750 357.201 C 103.969 357.336,104.254 357.169,104.384 356.830 C 104.514 356.491,104.868 356.213,105.170 356.213 C 105.473 356.213,105.720 356.036,105.720 355.819 C 105.720 355.198,105.291 355.377,102.761 357.053 M99.408 359.392 C 99.408 359.622,99.231 359.700,99.014 359.566 C 98.797 359.432,98.619 359.487,98.619 359.689 C 98.619 359.891,96.935 360.821,94.875 361.755 C 92.816 362.688,91.201 363.522,91.287 363.607 C 91.572 363.893,99.803 359.823,99.803 359.396 C 99.803 359.164,99.714 358.974,99.606 358.974 C 99.497 358.974,99.408 359.162,99.408 359.392 M38.264 360.302 C 38.264 360.598,37.895 361.310,37.444 361.884 C 36.992 362.457,36.693 363.135,36.778 363.390 C 36.863 363.645,37.409 363.000,37.993 361.956 C 39.188 359.818,39.204 359.763,38.659 359.763 C 38.442 359.763,38.264 360.006,38.264 360.302 M131.143 363.779 C 129.419 365.541,128.540 366.615,129.191 366.165 C 130.734 365.099,134.725 361.023,134.473 360.771 C 134.365 360.664,132.867 362.018,131.143 363.779 M7.120 366.292 C 6.202 367.508,5.531 368.582,5.629 368.680 C 5.727 368.777,6.558 367.863,7.475 366.647 C 8.393 365.431,9.064 364.357,8.967 364.259 C 8.869 364.162,8.038 365.076,7.120 366.292 M35.766 364.366 C 35.389 364.743,35.442 365.286,35.855 365.286 C 36.049 365.286,36.310 365.020,36.435 364.694 C 36.665 364.093,36.245 363.886,35.766 364.366 M80.697 367.218 C 80.209 367.409,80.093 367.615,80.374 367.788 C 80.615 367.938,80.927 367.877,81.065 367.653 C 81.204 367.429,81.470 367.340,81.657 367.456 C 81.844 367.571,82.108 367.485,82.245 367.265 C 82.529 366.804,81.809 366.783,80.697 367.218 M124.711 369.455 C 123.549 370.424,122.229 371.476,121.777 371.793 C 121.325 372.109,121.092 372.505,121.259 372.673 C 121.427 372.840,121.790 372.667,122.068 372.287 C 122.345 371.908,122.656 371.598,122.758 371.598 C 122.860 371.598,123.905 370.711,125.081 369.628 C 127.726 367.190,127.535 367.101,124.711 369.455 M4.099 370.281 C 3.715 370.897,3.235 371.622,3.033 371.893 C 2.830 372.165,2.754 372.387,2.863 372.387 C 3.223 372.387,5.213 369.578,5.002 369.368 C 4.889 369.255,4.483 369.666,4.099 370.281 M69.034 370.414 C 69.034 370.631,69.300 370.809,69.625 370.809 C 69.951 370.809,70.217 370.631,70.217 370.414 C 70.217 370.197,69.951 370.020,69.625 370.020 C 69.300 370.020,69.034 370.197,69.034 370.414 M66.667 370.809 C 66.667 371.026,66.933 371.203,67.258 371.203 C 67.584 371.203,67.850 371.026,67.850 370.809 C 67.850 370.592,67.584 370.414,67.258 370.414 C 66.933 370.414,66.667 370.592,66.667 370.809 M64.300 371.203 C 64.300 371.420,64.566 371.598,64.892 371.598 C 65.217 371.598,65.483 371.420,65.483 371.203 C 65.483 370.986,65.217 370.809,64.892 370.809 C 64.566 370.809,64.300 370.986,64.300 371.203 M52.175 372.275 C 52.775 372.366,53.662 372.363,54.147 372.270 C 54.633 372.176,54.142 372.102,53.057 372.105 C 51.972 372.108,51.575 372.185,52.175 372.275 M119.799 373.354 C 119.463 373.690,118.998 373.964,118.766 373.964 C 118.533 373.964,118.343 374.142,118.343 374.359 C 118.343 374.941,118.815 374.828,119.915 373.983 C 120.454 373.568,120.786 373.120,120.653 372.986 C 120.519 372.853,120.135 373.018,119.799 373.354 M0.578 375.569 C 0.234 376.235,0.007 376.937,0.075 377.129 C 0.142 377.321,0.495 376.777,0.858 375.919 C 1.642 374.069,1.467 373.851,0.578 375.569 M108.679 380.286 C 106.726 381.359,105.288 382.240,105.483 382.243 C 105.921 382.250,112.426 378.725,112.426 378.480 C 112.426 378.220,112.511 378.179,108.679 380.286 M102.970 383.022 C 102.651 383.224,102.542 383.532,102.728 383.706 C 102.914 383.881,103.146 383.801,103.244 383.528 C 103.341 383.256,103.583 383.133,103.781 383.256 C 103.980 383.378,104.142 383.291,104.142 383.061 C 104.142 382.549,103.738 382.536,102.970 383.022 M99.704 384.520 C 99.324 384.604,99.014 384.838,99.014 385.039 C 99.014 385.501,99.442 385.496,100.186 385.025 C 100.894 384.577,100.641 384.311,99.704 384.520 M0.410 384.734 C 0.377 385.402,1.552 387.223,2.625 388.164 L 3.748 389.149 2.710 387.967 C 2.139 387.317,1.391 386.252,1.049 385.602 C 0.706 384.951,0.419 384.560,0.410 384.734 M3.945 389.148 C 3.945 389.418,6.360 390.616,6.541 390.435 C 6.626 390.349,6.077 389.984,5.320 389.623 C 4.564 389.263,3.945 389.049,3.945 389.148 M30.873 394.366 C 31.473 394.457,32.360 394.454,32.846 394.361 C 33.331 394.267,32.840 394.193,31.755 394.196 C 30.671 394.199,30.274 394.275,30.873 394.366 M57.303 394.366 C 57.903 394.457,58.790 394.454,59.276 394.361 C 59.761 394.267,59.270 394.193,58.185 394.196 C 57.101 394.199,56.704 394.275,57.303 394.366 " stroke="none" fill="#d1d1d1" fill-rule="evenodd"></path><path id="path2" d="M366.075 51.944 C 365.200 52.870,365.184 52.937,365.930 52.540 C 366.393 52.294,366.875 51.822,367.002 51.490 C 367.312 50.684,367.227 50.726,366.075 51.944 M323.171 55.095 C 322.897 55.205,322.488 55.680,322.262 56.149 C 321.909 56.880,321.926 56.917,322.383 56.410 C 322.676 56.085,323.165 55.597,323.470 55.325 C 324.051 54.808,323.993 54.764,323.171 55.095 M321.257 105.141 C 320.898 105.690,320.675 106.211,320.763 106.298 C 320.850 106.386,321.221 105.937,321.587 105.300 C 322.401 103.882,322.159 103.764,321.257 105.141 M187.179 170.046 C 186.455 170.511,186.240 170.805,186.625 170.807 C 186.971 170.808,187.576 170.454,187.968 170.020 C 188.836 169.061,188.711 169.066,187.179 170.046 M146.326 206.022 C 145.553 206.724,144.577 207.742,144.157 208.284 C 143.737 208.826,144.414 208.295,145.661 207.104 C 146.909 205.912,147.929 204.891,147.929 204.835 C 147.929 204.610,147.672 204.800,146.326 206.022 M132.493 219.399 C 129.158 222.691,127.318 224.656,128.402 223.766 C 130.583 221.975,139.181 213.412,138.798 213.412 C 138.665 213.412,135.828 216.106,132.493 219.399 M158.559 217.258 L 157.199 218.738 158.679 217.378 C 160.055 216.113,160.339 215.779,160.038 215.779 C 159.972 215.779,159.306 216.445,158.559 217.258 M168.037 220.924 C 172.337 225.457,180.276 233.177,180.276 232.825 C 180.276 232.526,164.797 216.963,164.500 216.963 C 164.379 216.963,165.971 218.745,168.037 220.924 M122.081 230.079 L 118.935 233.333 122.189 230.187 C 123.979 228.456,125.444 226.992,125.444 226.932 C 125.444 226.645,125.004 227.056,122.081 230.079 M213.491 232.426 C 212.934 232.983,212.872 233.531,213.366 233.531 C 213.558 233.531,213.808 233.176,213.921 232.742 C 214.162 231.821,214.124 231.793,213.491 232.426 M184.283 237.475 C 184.765 238.126,185.304 238.659,185.482 238.659 C 185.659 238.659,185.330 238.126,184.750 237.475 C 184.171 236.824,183.631 236.292,183.552 236.292 C 183.473 236.292,183.802 236.824,184.283 237.475 M205.896 241.321 L 204.536 242.801 206.016 241.441 C 207.393 240.176,207.676 239.842,207.375 239.842 C 207.309 239.842,206.644 240.508,205.896 241.321 M178.290 246.844 L 176.134 249.112 178.402 246.956 C 180.510 244.953,180.851 244.576,180.559 244.576 C 180.497 244.576,179.476 245.597,178.290 246.844 M132.347 251.282 C 133.416 252.367,134.379 253.254,134.487 253.254 C 134.596 253.254,133.810 252.367,132.742 251.282 C 131.673 250.197,130.710 249.310,130.602 249.310 C 130.493 249.310,131.279 250.197,132.347 251.282 M193.489 254.835 C 193.095 255.270,192.866 255.719,192.980 255.833 C 193.094 255.947,193.481 255.591,193.841 255.042 C 194.627 253.842,194.471 253.750,193.489 254.835 M165.275 259.862 L 162.722 262.525 165.385 259.972 C 167.858 257.601,168.228 257.199,167.937 257.199 C 167.877 257.199,166.679 258.397,165.275 259.862 M188.743 259.665 L 186.785 261.736 188.856 259.778 C 189.995 258.701,190.927 257.770,190.927 257.707 C 190.927 257.413,190.562 257.740,188.743 259.665 M112.032 258.931 C 112.032 259.016,112.640 259.156,113.385 259.243 C 114.129 259.330,114.651 259.261,114.545 259.089 C 114.354 258.780,112.032 258.634,112.032 258.931 M115.582 259.320 C 115.582 259.412,116.214 259.861,116.986 260.317 C 117.759 260.772,118.280 260.966,118.145 260.747 C 117.880 260.320,115.582 259.039,115.582 259.320 M59.570 262.915 C 59.302 263.238,58.880 263.387,58.634 263.246 C 58.387 263.105,58.317 263.135,58.478 263.313 C 58.639 263.490,58.557 263.918,58.296 264.264 C 58.035 264.609,58.391 264.370,59.088 263.733 C 59.785 263.096,60.355 262.519,60.355 262.451 C 60.355 262.170,60.027 262.363,59.570 262.915 M160.731 264.398 L 159.172 266.075 160.848 264.516 C 162.407 263.065,162.706 262.722,162.407 262.722 C 162.343 262.722,161.589 263.476,160.731 264.398 M147.119 265.617 C 148.567 267.155,148.718 267.259,148.718 266.713 C 148.718 266.522,148.052 265.872,147.239 265.269 L 145.759 264.173 147.119 265.617 M155.997 268.738 L 154.438 270.414 156.114 268.855 C 157.674 267.405,157.972 267.061,157.674 267.061 C 157.609 267.061,156.855 267.816,155.997 268.738 M178.698 270.020 C 177.740 270.996,177.045 271.795,177.153 271.795 C 177.262 271.795,178.135 270.996,179.093 270.020 C 180.051 269.043,180.746 268.245,180.638 268.245 C 180.529 268.245,179.656 269.043,178.698 270.020 M132.742 274.951 C 134.030 276.252,135.173 277.318,135.281 277.318 C 135.390 277.318,134.424 276.252,133.136 274.951 C 131.848 273.649,130.705 272.584,130.597 272.584 C 130.488 272.584,131.453 273.649,132.742 274.951 M171.977 276.824 C 167.576 281.379,165.888 283.235,166.148 283.235 C 166.276 283.235,168.373 281.105,170.809 278.501 C 173.244 275.897,175.168 273.767,175.084 273.767 C 175.001 273.767,173.603 275.143,171.977 276.824 M44.161 284.670 C 43.943 285.243,43.838 285.784,43.928 285.874 C 44.017 285.963,44.279 285.495,44.510 284.833 C 45.023 283.361,44.713 283.217,44.161 284.670 M50.954 332.130 C 50.723 332.792,50.618 333.333,50.721 333.333 C 50.987 333.333,51.731 331.284,51.536 331.089 C 51.446 330.999,51.184 331.468,50.954 332.130 M39.823 357.040 C 39.369 357.929,39.066 358.724,39.149 358.807 C 39.231 358.889,39.685 358.162,40.157 357.191 C 41.232 354.978,40.942 354.847,39.823 357.040 M130.367 364.201 L 126.824 367.850 130.473 364.308 C 133.862 361.018,134.302 360.552,134.015 360.552 C 133.957 360.552,132.315 362.194,130.367 364.201 " stroke="none" fill="#7c7c7c" fill-rule="evenodd"></path><path id="path3" d="M232.621 131.965 C 232.012 132.501,231.671 132.939,231.862 132.939 C 232.053 132.939,232.627 132.495,233.136 131.953 C 234.315 130.698,234.054 130.704,232.621 131.965 M166.247 188.659 L 165.089 189.941 166.371 188.782 C 167.076 188.145,167.653 187.568,167.653 187.500 C 167.653 187.195,167.327 187.464,166.247 188.659 M152.247 201.085 L 150.888 202.564 152.367 201.205 C 153.180 200.457,153.846 199.791,153.846 199.725 C 153.846 199.424,153.512 199.708,152.247 201.085 M146.524 206.410 L 145.365 207.692 146.647 206.534 C 147.842 205.454,148.110 205.128,147.806 205.128 C 147.738 205.128,147.161 205.705,146.524 206.410 M137.470 215.089 L 132.347 220.316 137.574 215.193 C 140.449 212.376,142.801 210.024,142.801 209.966 C 142.801 209.683,142.228 210.233,137.470 215.089 M229.364 213.905 L 228.205 215.187 229.487 214.029 C 230.192 213.392,230.769 212.815,230.769 212.747 C 230.769 212.442,230.444 212.710,229.364 213.905 M143.588 231.827 C 135.236 240.219,128.685 246.878,129.030 246.623 C 129.376 246.369,129.790 246.292,129.951 246.453 C 130.112 246.614,130.184 246.479,130.112 246.154 C 130.039 245.828,130.202 245.607,130.473 245.661 C 130.745 245.715,130.922 245.537,130.868 245.266 C 130.814 244.995,130.991 244.818,131.262 244.872 C 131.534 244.926,131.711 244.749,131.657 244.477 C 131.603 244.206,131.793 244.033,132.081 244.093 C 132.368 244.152,132.510 244.051,132.397 243.868 C 132.284 243.685,134.224 241.509,136.707 239.032 C 139.191 236.556,141.223 234.691,141.223 234.888 C 141.223 235.085,141.659 234.836,142.192 234.336 C 142.724 233.835,143.124 233.228,143.079 232.985 C 143.035 232.743,143.264 232.604,143.590 232.676 C 143.915 232.748,144.042 232.668,143.871 232.497 C 143.700 232.326,147.071 228.672,151.362 224.377 C 155.653 220.082,159.076 216.568,158.969 216.568 C 158.861 216.568,151.940 223.435,143.588 231.827 M171.992 224.260 C 174.480 226.755,176.604 228.797,176.713 228.797 C 176.821 228.797,174.875 226.755,172.387 224.260 C 169.899 221.765,167.774 219.724,167.666 219.724 C 167.557 219.724,169.504 221.765,171.992 224.260 M126.979 225.247 C 126.403 225.584,124.050 228.402,124.345 228.402 C 124.413 228.402,125.243 227.604,126.190 226.627 C 127.961 224.800,128.069 224.610,126.979 225.247 M217.529 227.712 L 216.371 228.994 217.653 227.835 C 218.358 227.198,218.935 226.621,218.935 226.553 C 218.935 226.249,218.609 226.517,217.529 227.712 M184.255 236.930 C 184.779 237.607,185.286 238.090,185.383 238.003 C 185.480 237.917,185.052 237.363,184.431 236.773 L 183.303 235.700 184.255 236.930 M110.256 237.081 C 109.759 237.295,109.686 237.420,110.059 237.420 C 110.385 237.420,111.006 237.267,111.440 237.081 C 111.937 236.867,112.010 236.742,111.637 236.742 C 111.312 236.742,110.690 236.894,110.256 237.081 M183.604 241.519 L 182.446 242.801 183.728 241.642 C 184.923 240.562,185.191 240.237,184.886 240.237 C 184.819 240.237,184.242 240.814,183.604 241.519 M173.775 251.647 C 171.833 253.583,170.060 255.064,169.836 254.937 C 169.611 254.810,169.566 254.858,169.735 255.044 C 169.904 255.229,168.841 256.633,167.371 258.164 C 165.902 259.694,167.583 258.109,171.107 254.640 C 174.631 251.171,177.515 248.286,177.515 248.229 C 177.515 247.956,177.062 248.370,173.775 251.647 M193.084 254.931 L 190.730 257.396 193.195 255.042 C 195.485 252.855,195.841 252.465,195.550 252.465 C 195.489 252.465,194.379 253.575,193.084 254.931 M63.690 259.270 L 62.130 260.947 63.807 259.387 C 65.366 257.937,65.665 257.594,65.366 257.594 C 65.302 257.594,64.547 258.348,63.690 259.270 M98.422 262.933 C 97.436 263.408,97.403 263.463,98.225 263.262 C 99.343 262.989,100.599 262.348,100.000 262.357 C 99.783 262.360,99.073 262.620,98.422 262.933 M183.826 264.497 C 182.868 265.473,182.173 266.272,182.281 266.272 C 182.390 266.272,183.263 265.473,184.221 264.497 C 185.179 263.521,185.874 262.722,185.766 262.722 C 185.657 262.722,184.785 263.521,183.826 264.497 M146.943 265.878 C 147.790 266.746,148.572 267.456,148.681 267.456 C 148.789 267.456,148.185 266.746,147.337 265.878 C 146.490 265.010,145.708 264.300,145.599 264.300 C 145.491 264.300,146.095 265.010,146.943 265.878 M129.586 271.400 C 132.617 274.438,135.187 276.923,135.295 276.923 C 135.404 276.923,133.012 274.438,129.980 271.400 C 126.949 268.363,124.379 265.878,124.271 265.878 C 124.162 265.878,126.554 268.363,129.586 271.400 M156.981 268.146 L 155.621 269.625 157.101 268.266 C 158.477 267.000,158.761 266.667,158.460 266.667 C 158.394 266.667,157.728 267.332,156.981 268.146 M151.278 269.774 C 152.421 271.101,153.441 271.570,153.987 271.019 C 154.326 270.677,154.280 270.625,153.803 270.806 C 153.420 270.952,152.637 270.615,151.830 269.956 C 150.764 269.085,150.652 269.048,151.278 269.774 M170.607 277.811 L 163.511 285.010 170.710 277.913 C 177.399 271.320,178.088 270.611,177.807 270.611 C 177.750 270.611,174.510 273.851,170.607 277.811 M75.726 277.613 L 73.570 279.882 75.838 277.726 C 77.086 276.540,78.107 275.519,78.107 275.457 C 78.107 275.164,77.729 275.506,75.726 277.613 M160.771 304.361 C 160.623 305.153,160.580 305.879,160.677 305.976 C 160.773 306.072,160.974 305.503,161.122 304.712 C 161.271 303.920,161.313 303.194,161.217 303.097 C 161.120 303.001,160.920 303.570,160.771 304.361 M159.982 307.911 C 159.834 308.703,159.791 309.430,159.888 309.526 C 159.984 309.623,160.185 309.054,160.333 308.262 C 160.482 307.470,160.524 306.744,160.428 306.647 C 160.331 306.551,160.131 307.120,159.982 307.911 M133.397 319.741 C 132.736 321.191,132.863 321.501,133.577 320.182 C 133.911 319.566,134.110 318.989,134.020 318.898 C 133.930 318.808,133.650 319.187,133.397 319.741 M54.285 322.541 C 53.719 324.223,53.410 325.432,53.598 325.226 C 54.028 324.756,55.669 319.838,55.465 319.633 C 55.381 319.550,54.850 320.858,54.285 322.541 M132.214 322.502 C 131.553 323.953,131.679 324.262,132.394 322.943 C 132.728 322.328,132.927 321.750,132.837 321.660 C 132.746 321.569,132.466 321.949,132.214 322.502 M114.581 348.817 L 112.623 350.888 114.694 348.930 C 115.833 347.853,116.765 346.921,116.765 346.859 C 116.765 346.565,116.400 346.892,114.581 348.817 M41.500 353.263 C 41.028 354.235,40.724 355.030,40.826 355.030 C 41.093 355.030,42.687 351.825,42.508 351.647 C 42.426 351.564,41.972 352.292,41.500 353.263 M134.517 359.566 C 133.685 360.451,133.665 360.552,134.317 360.552 C 134.716 360.552,134.924 360.434,134.779 360.288 C 134.634 360.143,134.809 359.700,135.169 359.302 C 136.165 358.202,135.574 358.441,134.517 359.566 M90.335 364.300 C 89.793 364.610,89.527 364.864,89.744 364.864 C 89.961 364.864,90.582 364.610,91.124 364.300 C 91.667 363.990,91.933 363.736,91.716 363.736 C 91.499 363.736,90.878 363.990,90.335 364.300 M35.017 372.672 C 35.726 372.760,36.791 372.758,37.384 372.668 C 37.977 372.578,37.396 372.507,36.095 372.509 C 34.793 372.511,34.308 372.585,35.017 372.672 M43.688 372.675 C 44.610 372.758,46.119 372.758,47.041 372.675 C 47.964 372.592,47.209 372.524,45.365 372.524 C 43.521 372.524,42.766 372.592,43.688 372.675 M86.907 388.895 C 85.781 389.253,84.746 389.664,84.607 389.808 C 84.231 390.198,88.498 388.923,88.935 388.515 C 89.384 388.096,89.460 388.082,86.907 388.895 M37.574 394.370 C 38.388 394.455,39.719 394.455,40.533 394.370 C 41.346 394.285,40.680 394.215,39.053 394.215 C 37.426 394.215,36.760 394.285,37.574 394.370 M49.408 394.370 C 50.222 394.455,51.553 394.455,52.367 394.370 C 53.180 394.285,52.515 394.215,50.888 394.215 C 49.260 394.215,48.595 394.285,49.408 394.370 " stroke="none" fill="#575757" fill-rule="evenodd"></path><path id="path4" d="M142.000 233.810 C 139.885 236.003,139.787 236.155,141.431 234.698 C 143.220 233.112,145.011 231.164,144.682 231.164 C 144.611 231.164,143.404 232.355,142.000 233.810 M131.943 243.862 C 130.213 245.639,129.149 246.837,129.579 246.525 C 130.009 246.212,130.719 245.587,131.157 245.136 C 134.057 242.147,135.445 240.631,135.280 240.631 C 135.175 240.631,133.674 242.085,131.943 243.862 M170.868 253.887 C 170.574 254.219,170.413 254.568,170.508 254.663 C 170.604 254.759,171.004 254.481,171.398 254.046 C 171.792 253.611,171.954 253.261,171.757 253.269 C 171.561 253.278,171.161 253.556,170.868 253.887 M143.984 262.919 C 144.720 263.679,145.411 264.300,145.520 264.300 C 145.628 264.300,145.115 263.679,144.379 262.919 C 143.643 262.160,142.952 261.538,142.843 261.538 C 142.735 261.538,143.248 262.160,143.984 262.919 M179.487 268.836 C 178.529 269.813,177.834 270.611,177.942 270.611 C 178.051 270.611,178.923 269.813,179.882 268.836 C 180.840 267.860,181.535 267.061,181.427 267.061 C 181.318 267.061,180.445 267.860,179.487 268.836 M166.676 282.042 C 165.612 283.122,164.823 284.087,164.923 284.187 C 165.023 284.286,165.955 283.403,166.995 282.223 C 169.355 279.546,169.213 279.466,166.676 282.042 M39.152 372.669 C 39.749 372.760,40.725 372.760,41.321 372.669 C 41.918 372.579,41.430 372.505,40.237 372.505 C 39.043 372.505,38.555 372.579,39.152 372.669 " stroke="none" fill="#747474" fill-rule="evenodd"></path></g></svg>