<svg id="svg" version="1.1" xmlns="http://www.w3.org/2000/svg" xmlns:xlink="http://www.w3.org/1999/xlink" width="400" height="400" viewBox="0, 0, 400,400"><g id="svgg"><path id="path0" d="M240.182 10.182 C 239.622 10.742,238.793 11.200,238.339 11.200 C 237.886 11.200,237.161 11.650,236.729 12.200 C 236.163 12.919,235.557 13.200,234.571 13.200 C 233.375 13.200,233.200 13.328,233.200 14.200 C 233.200 15.133,233.067 15.200,231.200 15.200 C 229.333 15.200,229.200 15.267,229.200 16.200 C 229.200 17.133,229.067 17.200,227.200 17.200 C 225.333 17.200,225.200 17.267,225.200 18.200 C 225.200 19.133,225.067 19.200,223.200 19.200 C 221.333 19.200,221.200 19.267,221.200 20.200 C 221.200 21.133,221.067 21.200,219.200 21.200 C 217.333 21.200,217.200 21.267,217.200 22.200 C 217.200 23.133,217.067 23.200,215.200 23.200 C 213.333 23.200,213.200 23.267,213.200 24.200 C 213.200 25.133,213.067 25.200,211.200 25.200 C 209.333 25.200,209.200 25.267,209.200 26.200 C 209.200 27.133,209.067 27.200,207.200 27.200 C 205.333 27.200,205.200 27.267,205.200 28.200 C 205.200 29.133,205.067 29.200,203.200 29.200 C 201.333 29.200,201.200 29.267,201.200 30.200 C 201.200 31.133,201.067 31.200,199.200 31.200 C 197.333 31.200,197.200 31.267,197.200 32.200 C 197.200 33.133,197.067 33.200,195.200 33.200 C 193.345 33.200,193.200 33.271,193.200 34.178 C 193.200 35.061,193.015 35.168,191.300 35.278 C 189.693 35.381,189.381 35.536,189.275 36.279 C 189.169 37.021,188.856 37.177,187.275 37.279 C 185.694 37.381,185.380 37.538,185.275 38.278 C 185.173 38.999,184.849 39.178,183.475 39.278 C 182.188 39.372,181.709 39.608,181.405 40.300 C 181.130 40.926,180.668 41.200,179.886 41.200 C 179.201 41.200,178.400 41.590,177.835 42.200 C 177.325 42.750,176.516 43.200,176.036 43.200 C 175.556 43.200,174.714 43.650,174.164 44.200 C 173.614 44.750,172.722 45.200,172.182 45.200 C 171.401 45.200,171.200 45.405,171.200 46.200 C 171.200 47.133,171.067 47.200,169.200 47.200 C 167.333 47.200,167.200 47.267,167.200 48.200 C 167.200 49.154,167.091 49.200,164.829 49.200 C 162.551 49.200,161.200 49.806,161.200 50.829 C 161.200 51.033,160.300 51.200,159.200 51.200 C 157.333 51.200,157.200 51.267,157.200 52.200 C 157.200 53.122,157.056 53.200,155.358 53.200 C 153.869 53.200,153.364 53.392,152.729 54.200 C 152.048 55.066,151.624 55.200,149.571 55.200 C 147.309 55.200,147.200 55.246,147.200 56.200 C 147.200 57.133,147.067 57.200,145.200 57.200 C 143.343 57.200,143.200 57.270,143.200 58.182 C 143.200 59.125,143.081 59.170,140.300 59.282 C 137.639 59.390,137.389 59.474,137.272 60.300 C 137.159 61.094,136.913 61.200,135.172 61.200 C 133.345 61.200,133.200 61.272,133.200 62.182 C 133.200 63.125,133.081 63.170,130.300 63.282 C 127.639 63.390,127.389 63.474,127.272 64.300 C 127.159 65.094,126.913 65.200,125.172 65.200 C 123.335 65.200,123.200 65.269,123.200 66.200 C 123.200 67.146,123.081 67.200,120.981 67.200 C 119.128 67.200,118.609 67.365,117.835 68.200 C 117.103 68.990,116.518 69.200,115.054 69.200 C 113.343 69.200,113.200 69.277,113.200 70.200 C 113.200 71.133,113.067 71.200,111.200 71.200 C 109.333 71.200,109.200 71.267,109.200 72.200 C 109.200 73.178,109.133 73.200,106.200 73.200 C 103.267 73.200,103.200 73.222,103.200 74.200 C 103.200 75.133,103.067 75.200,101.200 75.200 C 99.343 75.200,99.200 75.270,99.200 76.182 C 99.200 77.125,99.081 77.170,96.300 77.282 C 93.639 77.390,93.389 77.474,93.272 78.300 C 93.159 79.094,92.913 79.200,91.172 79.200 C 89.345 79.200,89.200 79.272,89.200 80.182 C 89.200 81.115,89.068 81.169,86.500 81.282 C 84.143 81.385,83.750 81.514,83.405 82.300 C 83.075 83.052,82.697 83.200,81.105 83.200 C 79.340 83.200,79.200 83.273,79.200 84.200 C 79.200 85.000,79.000 85.200,78.200 85.200 C 77.400 85.200,77.200 85.400,77.200 86.200 C 77.200 87.000,77.000 87.200,76.200 87.200 C 75.267 87.200,75.200 87.333,75.200 89.200 C 75.200 91.067,75.133 91.200,74.200 91.200 C 73.405 91.200,73.200 91.401,73.200 92.182 C 73.200 92.722,72.750 93.614,72.200 94.164 C 71.650 94.714,71.200 95.622,71.200 96.182 C 71.200 97.001,71.005 97.200,70.200 97.200 C 69.267 97.200,69.200 97.333,69.200 99.200 C 69.200 101.067,69.133 101.200,68.200 101.200 C 67.405 101.200,67.200 101.401,67.200 102.182 C 67.200 102.722,66.750 103.614,66.200 104.164 C 65.650 104.714,65.200 105.622,65.200 106.182 C 65.200 107.001,65.005 107.200,64.200 107.200 C 63.267 107.200,63.200 107.333,63.200 109.200 C 63.200 111.067,63.133 111.200,62.200 111.200 C 61.446 111.200,61.200 111.410,61.200 112.054 C 61.200 112.524,60.750 113.325,60.200 113.835 C 59.555 114.433,59.200 115.194,59.200 115.981 C 59.200 117.015,59.048 117.200,58.200 117.200 C 57.267 117.200,57.200 117.333,57.200 119.200 C 57.200 121.067,57.133 121.200,56.200 121.200 C 55.400 121.200,55.200 121.400,55.200 122.200 C 55.200 122.750,55.033 123.200,54.829 123.200 C 54.022 123.200,53.200 124.527,53.200 125.829 C 53.200 127.025,53.072 127.200,52.200 127.200 C 51.267 127.200,51.200 127.333,51.200 129.200 C 51.200 131.067,51.133 131.200,50.200 131.200 C 49.428 131.200,49.200 131.406,49.200 132.105 C 49.200 132.660,48.852 133.163,48.300 133.405 C 47.605 133.710,47.372 134.187,47.277 135.500 C 47.168 137.002,47.040 137.200,46.177 137.200 C 45.271 137.200,45.200 137.346,45.200 139.200 C 45.200 141.067,45.133 141.200,44.200 141.200 C 43.428 141.200,43.200 141.406,43.200 142.105 C 43.200 142.660,42.852 143.163,42.300 143.405 C 41.605 143.710,41.372 144.187,41.277 145.500 C 41.168 147.002,41.040 147.200,40.177 147.200 C 39.271 147.200,39.200 147.346,39.200 149.200 C 39.200 151.067,39.133 151.200,38.200 151.200 C 37.408 151.200,37.200 151.402,37.200 152.172 C 37.200 152.876,36.951 153.180,36.300 153.272 C 35.532 153.381,35.382 153.679,35.278 155.300 C 35.168 157.015,35.061 157.200,34.178 157.200 C 33.271 157.200,33.200 157.345,33.200 159.200 C 33.200 161.067,33.133 161.200,32.200 161.200 C 31.408 161.200,31.200 161.402,31.200 162.172 C 31.200 162.876,30.951 163.180,30.300 163.272 C 29.532 163.381,29.382 163.679,29.278 165.300 C 29.168 167.015,29.061 167.200,28.178 167.200 C 27.271 167.200,27.200 167.345,27.200 169.200 C 27.200 171.067,27.133 171.200,26.200 171.200 C 25.408 171.200,25.200 171.402,25.200 172.172 C 25.200 172.876,24.951 173.180,24.300 173.272 C 23.532 173.381,23.382 173.679,23.278 175.300 C 23.168 177.015,23.061 177.200,22.178 177.200 C 21.271 177.200,21.200 177.345,21.200 179.200 C 21.200 181.067,21.133 181.200,20.200 181.200 C 19.408 181.200,19.200 181.402,19.200 182.172 C 19.200 182.876,18.951 183.180,18.300 183.272 C 17.532 183.381,17.382 183.679,17.278 185.300 C 17.168 187.015,17.061 187.200,16.178 187.200 C 15.271 187.200,15.200 187.345,15.200 189.200 C 15.200 191.067,15.133 191.200,14.200 191.200 C 13.408 191.200,13.200 191.402,13.200 192.172 C 13.200 192.876,12.951 193.180,12.300 193.272 C 11.532 193.381,11.382 193.679,11.278 195.300 C 11.168 197.015,11.061 197.200,10.178 197.200 C 9.271 197.200,9.200 197.345,9.200 199.200 C 9.200 201.067,9.133 201.200,8.200 201.200 L 7.200 201.200 7.200 206.000 L 7.200 210.800 8.182 210.800 C 9.115 210.800,9.169 210.932,9.282 213.500 C 9.385 215.857,9.514 216.250,10.300 216.595 C 11.052 216.925,11.200 217.303,11.200 218.895 C 11.200 220.660,11.273 220.800,12.200 220.800 C 13.133 220.800,13.200 220.933,13.200 222.800 C 13.200 224.657,13.270 224.800,14.182 224.800 C 15.125 224.800,15.170 224.919,15.282 227.700 C 15.390 230.361,15.474 230.611,16.300 230.728 C 17.094 230.841,17.200 231.087,17.200 232.828 C 17.200 234.665,17.269 234.800,18.200 234.800 C 19.135 234.800,19.200 234.932,19.200 236.818 C 19.200 238.438,19.398 239.034,20.200 239.836 C 20.998 240.634,21.200 241.238,21.200 242.818 C 21.200 244.665,21.268 244.800,22.200 244.800 C 23.133 244.800,23.200 244.933,23.200 246.800 C 23.200 248.657,23.270 248.800,24.182 248.800 C 25.125 248.800,25.170 248.919,25.282 251.700 C 25.390 254.361,25.474 254.611,26.300 254.728 C 27.094 254.841,27.200 255.087,27.200 256.828 C 27.200 258.665,27.269 258.800,28.200 258.800 C 29.133 258.800,29.200 258.933,29.200 260.800 C 29.200 262.667,29.267 262.800,30.200 262.800 L 31.200 262.800 31.200 267.642 C 31.200 272.325,31.233 272.511,32.196 273.268 L 33.191 274.051 33.296 290.326 L 33.400 306.600 34.300 306.728 C 35.197 306.855,35.200 306.883,35.200 314.348 C 35.200 322.650,35.244 322.800,37.680 322.800 C 39.035 322.800,39.200 322.909,39.200 323.800 C 39.200 324.733,39.333 324.800,41.200 324.800 C 43.067 324.800,43.200 324.867,43.200 325.800 C 43.200 326.572,43.406 326.800,44.105 326.800 C 44.660 326.800,45.163 327.148,45.405 327.700 C 45.710 328.395,46.187 328.628,47.500 328.723 C 49.002 328.832,49.200 328.960,49.200 329.823 C 49.200 330.729,49.346 330.800,51.200 330.800 C 53.067 330.800,53.200 330.867,53.200 331.800 C 53.200 332.592,53.402 332.800,54.172 332.800 C 54.876 332.800,55.180 333.049,55.272 333.700 C 55.381 334.468,55.679 334.618,57.300 334.722 C 59.015 334.832,59.200 334.939,59.200 335.822 C 59.200 336.729,59.345 336.800,61.200 336.800 C 63.067 336.800,63.200 336.867,63.200 337.800 C 63.200 338.592,63.402 338.800,64.172 338.800 C 64.876 338.800,65.180 339.049,65.272 339.700 C 65.381 340.468,65.679 340.618,67.300 340.722 C 69.015 340.832,69.200 340.939,69.200 341.822 C 69.200 342.729,69.345 342.800,71.200 342.800 C 73.067 342.800,73.200 342.867,73.200 343.800 C 73.200 344.592,73.402 344.800,74.172 344.800 C 74.876 344.800,75.180 345.049,75.272 345.700 C 75.381 346.468,75.679 346.618,77.300 346.722 C 79.015 346.832,79.200 346.939,79.200 347.822 C 79.200 348.729,79.345 348.800,81.200 348.800 C 83.067 348.800,83.200 348.867,83.200 349.800 C 83.200 350.731,83.335 350.800,85.172 350.800 C 86.913 350.800,87.159 350.906,87.272 351.700 L 87.400 352.600 113.206 352.703 L 139.013 352.806 139.406 353.703 C 139.784 354.564,140.029 354.604,145.500 354.711 L 151.200 354.822 151.200 355.811 C 151.200 356.731,151.339 356.800,153.200 356.800 C 155.067 356.800,155.200 356.867,155.200 357.800 C 155.200 358.554,155.410 358.800,156.054 358.800 C 156.524 358.800,157.325 359.250,157.835 359.800 C 158.433 360.445,159.194 360.800,159.981 360.800 C 161.015 360.800,161.200 360.952,161.200 361.800 C 161.200 362.733,161.333 362.800,163.200 362.800 C 165.067 362.800,165.200 362.867,165.200 363.800 C 165.200 364.733,165.333 364.800,167.200 364.800 C 169.067 364.800,169.200 364.867,169.200 365.800 C 169.200 366.733,169.333 366.800,171.200 366.800 C 173.067 366.800,173.200 366.867,173.200 367.800 C 173.200 368.592,173.402 368.800,174.172 368.800 C 174.876 368.800,175.180 369.049,175.272 369.700 C 175.381 370.468,175.679 370.618,177.300 370.722 C 179.015 370.832,179.200 370.939,179.200 371.822 C 179.200 372.729,179.345 372.800,181.200 372.800 C 183.067 372.800,183.200 372.867,183.200 373.800 C 183.200 374.733,183.333 374.800,185.200 374.800 C 187.067 374.800,187.200 374.867,187.200 375.800 C 187.200 376.554,187.410 376.800,188.054 376.800 C 188.524 376.800,189.325 377.250,189.835 377.800 C 190.433 378.445,191.194 378.800,191.981 378.800 C 193.015 378.800,193.200 378.952,193.200 379.800 C 193.200 380.733,193.333 380.800,195.200 380.800 C 197.067 380.800,197.200 380.867,197.200 381.800 C 197.200 382.733,197.333 382.800,199.200 382.800 C 201.067 382.800,201.200 382.867,201.200 383.800 C 201.200 384.733,201.333 384.800,203.200 384.800 C 205.067 384.800,205.200 384.867,205.200 385.800 C 205.200 386.592,205.402 386.800,206.172 386.800 C 206.876 386.800,207.180 387.049,207.272 387.700 C 207.381 388.468,207.679 388.618,209.300 388.722 C 211.015 388.832,211.200 388.939,211.200 389.822 C 211.200 390.729,211.345 390.800,213.200 390.800 C 215.067 390.800,215.200 390.867,215.200 391.800 L 215.200 392.800 221.371 392.800 C 227.564 392.800,228.800 392.529,228.800 391.171 C 228.800 390.967,230.150 390.800,231.800 390.800 C 234.733 390.800,234.800 390.778,234.800 389.800 C 234.800 388.822,234.867 388.800,237.800 388.800 C 240.721 388.800,240.800 388.774,240.800 387.815 C 240.800 386.848,240.866 386.828,244.500 386.715 C 247.898 386.609,248.232 386.527,248.595 385.700 C 248.951 384.887,249.267 384.800,251.851 384.800 C 254.557 384.800,254.727 384.746,254.960 383.817 C 255.190 382.902,255.404 382.827,258.103 382.717 C 260.746 382.610,261.011 382.522,261.126 381.715 C 261.244 380.884,261.479 380.822,264.926 380.715 C 268.391 380.607,268.607 380.549,268.728 379.700 C 268.847 378.860,269.052 378.800,271.784 378.800 C 274.561 378.800,274.726 378.749,274.960 377.817 C 275.190 376.902,275.404 376.827,278.103 376.717 C 280.746 376.610,281.011 376.522,281.126 375.715 C 281.244 374.884,281.479 374.822,284.926 374.715 C 288.391 374.607,288.607 374.549,288.728 373.700 C 288.847 372.859,289.050 372.800,291.820 372.800 C 294.649 372.800,294.796 372.754,295.036 371.800 C 295.274 370.850,295.430 370.800,298.149 370.800 C 300.733 370.800,301.049 370.713,301.405 369.900 C 301.759 369.094,302.155 368.979,305.200 368.800 C 308.351 368.615,308.609 368.534,308.728 367.700 C 308.847 366.859,309.050 366.800,311.828 366.800 C 314.731 366.800,314.800 366.777,314.800 365.800 C 314.800 364.822,314.865 364.800,317.818 364.800 C 320.504 364.800,320.946 364.690,321.836 363.800 C 322.724 362.912,323.171 362.800,325.818 362.800 C 328.732 362.800,328.800 362.777,328.800 361.800 C 328.800 360.822,328.867 360.800,331.800 360.800 C 334.719 360.800,334.800 360.773,334.800 359.818 C 334.800 358.875,334.919 358.830,337.700 358.718 L 340.600 358.600 340.721 356.725 C 340.823 355.144,340.979 354.831,341.721 354.725 C 342.457 354.620,342.619 354.306,342.718 352.787 C 342.811 351.366,343.027 350.890,343.718 350.587 C 344.381 350.296,344.629 349.800,344.719 348.587 C 344.808 347.374,345.056 346.878,345.719 346.587 C 346.393 346.291,346.629 345.801,346.723 344.500 C 346.791 343.565,347.003 342.800,347.194 342.800 C 347.947 342.800,348.800 341.481,348.800 340.317 C 348.800 339.524,349.153 338.765,349.800 338.165 C 350.439 337.573,350.800 336.804,350.800 336.037 C 350.800 335.290,351.177 334.459,351.800 333.836 C 352.350 333.286,352.800 332.386,352.800 331.836 C 352.800 331.286,353.250 330.386,353.800 329.836 C 354.483 329.154,354.800 328.396,354.800 327.447 C 354.800 326.442,355.076 325.841,355.800 325.271 C 356.608 324.636,356.800 324.131,356.800 322.642 C 356.800 320.944,356.878 320.800,357.800 320.800 C 358.733 320.800,358.800 320.667,358.800 318.800 C 358.800 316.933,358.867 316.800,359.800 316.800 C 360.733 316.800,360.800 316.667,360.800 314.800 C 360.800 312.933,360.867 312.800,361.800 312.800 C 362.733 312.800,362.800 312.667,362.800 310.800 C 362.800 308.933,362.867 308.800,363.800 308.800 C 364.733 308.800,364.800 308.667,364.800 306.800 C 364.800 304.933,364.867 304.800,365.800 304.800 C 366.733 304.800,366.800 304.667,366.800 302.800 C 366.800 300.933,366.867 300.800,367.800 300.800 C 368.719 300.800,368.800 300.653,368.800 299.000 C 368.800 297.347,368.719 297.200,367.800 297.200 C 366.867 297.200,366.800 297.067,366.800 295.200 C 366.800 293.333,366.733 293.200,365.800 293.200 C 364.867 293.200,364.800 293.067,364.800 291.200 C 364.800 289.333,364.733 289.200,363.800 289.200 C 362.867 289.200,362.800 289.067,362.800 287.200 C 362.800 285.333,362.733 285.200,361.800 285.200 C 360.867 285.200,360.800 285.067,360.800 283.200 C 360.800 281.333,360.733 281.200,359.800 281.200 C 358.867 281.200,358.800 281.067,358.800 279.200 C 358.800 277.333,358.733 277.200,357.800 277.200 C 356.867 277.200,356.800 277.067,356.800 275.200 C 356.800 273.333,356.733 273.200,355.800 273.200 C 354.867 273.200,354.800 273.067,354.800 271.200 C 354.800 269.345,354.729 269.200,353.822 269.200 C 352.939 269.200,352.832 269.015,352.722 267.300 C 352.619 265.693,352.464 265.381,351.721 265.275 C 350.979 265.169,350.823 264.856,350.721 263.275 C 350.619 261.693,350.462 261.380,349.721 261.275 C 348.979 261.169,348.823 260.856,348.721 259.275 C 348.619 257.694,348.462 257.380,347.722 257.275 C 347.001 257.173,346.822 256.849,346.722 255.475 C 346.628 254.188,346.392 253.709,345.700 253.405 C 345.037 253.114,344.800 252.674,344.800 251.734 C 344.800 250.512,343.957 249.200,343.171 249.200 C 342.967 249.200,342.800 248.742,342.800 248.182 C 342.800 247.622,342.350 246.714,341.800 246.164 C 340.579 244.942,340.575 244.888,341.700 244.728 C 342.466 244.619,342.618 244.321,342.721 242.725 C 342.823 241.144,342.979 240.831,343.721 240.725 C 344.464 240.619,344.619 240.307,344.722 238.700 C 344.832 236.985,344.939 236.800,345.822 236.800 C 346.729 236.800,346.800 236.655,346.800 234.800 C 346.800 232.933,346.867 232.800,347.800 232.800 C 348.733 232.800,348.800 232.667,348.800 230.800 C 348.800 228.933,348.867 228.800,349.800 228.800 C 350.733 228.800,350.800 228.667,350.800 226.800 C 350.800 224.933,350.867 224.800,351.800 224.800 C 352.733 224.800,352.800 224.667,352.800 222.800 C 352.800 220.933,352.867 220.800,353.800 220.800 C 354.733 220.800,354.800 220.667,354.800 218.800 C 354.800 216.933,354.867 216.800,355.800 216.800 C 356.733 216.800,356.800 216.667,356.800 214.800 C 356.800 212.933,356.867 212.800,357.800 212.800 C 358.733 212.800,358.800 212.667,358.800 210.800 C 358.800 208.933,358.867 208.800,359.800 208.800 C 360.733 208.800,360.800 208.667,360.800 206.800 C 360.800 204.933,360.867 204.800,361.800 204.800 C 362.733 204.800,362.800 204.667,362.800 202.800 C 362.800 200.933,362.867 200.800,363.800 200.800 C 364.733 200.800,364.800 200.667,364.800 198.800 C 364.800 196.933,364.867 196.800,365.800 196.800 C 366.733 196.800,366.800 196.667,366.800 194.800 C 366.800 192.933,366.867 192.800,367.800 192.800 C 368.733 192.800,368.800 192.667,368.800 190.800 C 368.800 188.933,368.867 188.800,369.800 188.800 C 370.733 188.800,370.800 188.667,370.800 186.800 C 370.800 184.933,370.867 184.800,371.800 184.800 C 372.672 184.800,372.800 184.625,372.800 183.429 C 372.800 182.443,373.081 181.837,373.800 181.271 C 374.474 180.741,374.800 180.089,374.800 179.271 C 374.800 178.454,375.126 177.802,375.800 177.271 C 376.350 176.839,376.800 176.171,376.800 175.788 C 376.800 175.405,377.250 174.675,377.800 174.165 C 378.445 173.567,378.800 172.806,378.800 172.019 C 378.800 171.349,378.967 170.800,379.171 170.800 C 379.957 170.800,380.800 169.488,380.800 168.266 C 380.800 167.326,381.037 166.886,381.700 166.595 C 382.392 166.291,382.628 165.812,382.722 164.525 C 382.822 163.151,383.001 162.827,383.722 162.725 C 384.462 162.620,384.619 162.306,384.721 160.725 C 384.823 159.144,384.979 158.831,385.721 158.725 C 386.464 158.619,386.619 158.307,386.722 156.700 C 386.832 154.985,386.939 154.800,387.822 154.800 C 388.729 154.800,388.800 154.655,388.800 152.800 C 388.800 150.933,388.867 150.800,389.800 150.800 C 390.733 150.800,390.800 150.667,390.800 148.800 C 390.800 146.933,390.867 146.800,391.800 146.800 L 392.800 146.800 392.800 142.000 L 392.800 137.200 391.800 137.200 C 391.050 137.200,390.800 136.989,390.800 136.358 C 390.800 135.894,390.350 135.161,389.800 134.729 C 389.081 134.163,388.800 133.557,388.800 132.571 C 388.800 131.375,388.672 131.200,387.800 131.200 C 387.000 131.200,386.800 131.000,386.800 130.200 C 386.800 129.406,386.598 129.200,385.823 129.200 C 384.960 129.200,384.832 129.002,384.723 127.500 C 384.628 126.187,384.395 125.710,383.700 125.405 C 383.148 125.163,382.800 124.660,382.800 124.105 C 382.800 123.406,382.572 123.200,381.800 123.200 C 381.000 123.200,380.800 123.000,380.800 122.200 C 380.800 121.406,380.599 121.200,379.822 121.200 C 378.939 121.200,378.832 121.015,378.722 119.300 C 378.618 117.679,378.468 117.381,377.700 117.272 C 377.049 117.180,376.800 116.876,376.800 116.172 C 376.800 115.402,376.592 115.200,375.800 115.200 C 375.000 115.200,374.800 115.000,374.800 114.200 C 374.800 113.400,374.600 113.200,373.800 113.200 C 372.867 113.200,372.800 113.067,372.800 111.200 C 372.800 109.333,372.733 109.200,371.800 109.200 C 371.000 109.200,370.800 109.000,370.800 108.200 C 370.800 107.400,370.600 107.200,369.800 107.200 C 368.995 107.200,368.800 107.001,368.800 106.182 C 368.800 105.622,368.350 104.714,367.800 104.164 C 367.250 103.614,366.800 102.722,366.800 102.182 C 366.800 101.401,366.595 101.200,365.800 101.200 C 365.000 101.200,364.800 101.000,364.800 100.200 C 364.800 99.406,364.598 99.200,363.823 99.200 C 362.960 99.200,362.832 99.002,362.723 97.500 C 362.628 96.187,362.395 95.710,361.700 95.405 C 361.148 95.163,360.800 94.660,360.800 94.105 C 360.800 93.406,360.572 93.200,359.800 93.200 C 359.000 93.200,358.800 93.000,358.800 92.200 C 358.800 91.406,358.599 91.200,357.822 91.200 C 356.939 91.200,356.832 91.015,356.722 89.300 C 356.618 87.679,356.468 87.381,355.700 87.272 C 355.049 87.180,354.800 86.876,354.800 86.172 C 354.800 85.402,354.592 85.200,353.800 85.200 C 353.050 85.200,352.800 84.989,352.800 84.358 C 352.800 83.894,352.350 83.161,351.800 82.729 C 351.081 82.163,350.800 81.557,350.800 80.571 C 350.800 79.375,350.672 79.200,349.800 79.200 C 349.000 79.200,348.800 79.000,348.800 78.200 C 348.800 77.400,348.600 77.200,347.800 77.200 C 346.952 77.200,346.800 77.015,346.800 75.981 C 346.800 75.194,346.445 74.433,345.800 73.835 C 345.250 73.325,344.800 72.524,344.800 72.054 C 344.800 71.410,344.554 71.200,343.800 71.200 C 343.000 71.200,342.800 71.000,342.800 70.200 C 342.800 69.406,342.599 69.200,341.822 69.200 C 340.939 69.200,340.832 69.015,340.722 67.300 C 340.618 65.679,340.468 65.381,339.700 65.272 C 339.049 65.180,338.800 64.876,338.800 64.172 C 338.800 63.402,338.592 63.200,337.800 63.200 C 337.000 63.200,336.800 63.000,336.800 62.200 C 336.800 61.400,336.600 61.200,335.800 61.200 C 334.867 61.200,334.800 61.067,334.800 59.200 L 334.800 57.200 332.800 57.200 C 330.933 57.200,330.800 57.133,330.800 56.200 C 330.800 55.267,330.667 55.200,328.800 55.200 C 326.933 55.200,326.800 55.133,326.800 54.200 C 326.800 53.405,326.599 53.200,325.818 53.200 C 325.278 53.200,324.386 52.750,323.836 52.200 C 323.286 51.650,322.391 51.200,321.846 51.200 C 321.124 51.200,320.821 50.957,320.728 50.300 C 320.619 49.532,320.321 49.382,318.700 49.278 C 316.985 49.168,316.800 49.061,316.800 48.178 C 316.800 47.271,316.655 47.200,314.800 47.200 C 312.933 47.200,312.800 47.133,312.800 46.200 C 312.800 45.267,312.667 45.200,310.800 45.200 C 308.933 45.200,308.800 45.133,308.800 44.200 C 308.800 43.267,308.667 43.200,306.800 43.200 C 304.933 43.200,304.800 43.133,304.800 42.200 C 304.800 41.284,304.651 41.200,303.028 41.200 C 301.495 41.200,301.238 41.079,301.128 40.300 C 301.036 39.656,300.688 39.364,299.900 39.273 C 299.295 39.204,298.800 38.992,298.800 38.802 C 298.800 38.026,297.459 37.200,296.199 37.200 C 295.110 37.200,294.831 37.029,294.728 36.300 C 294.622 35.556,294.288 35.365,292.800 35.200 C 291.312 35.035,290.978 34.844,290.872 34.100 C 290.762 33.325,290.504 33.200,289.016 33.200 C 287.505 33.200,287.255 33.074,287.036 32.200 C 286.815 31.322,286.569 31.200,285.020 31.200 C 283.495 31.200,283.238 31.078,283.128 30.300 C 283.019 29.534,282.721 29.382,281.125 29.279 C 279.544 29.177,279.231 29.021,279.125 28.279 C 279.026 27.583,278.667 27.358,277.400 27.200 C 276.237 27.055,275.692 26.754,275.405 26.100 C 275.146 25.508,274.664 25.200,274.000 25.200 C 273.336 25.200,272.854 24.892,272.595 24.300 C 272.290 23.605,271.813 23.372,270.500 23.277 C 268.998 23.168,268.800 23.040,268.800 22.177 C 268.800 21.286,268.642 21.200,267.008 21.200 C 265.429 21.200,265.185 21.081,264.964 20.200 C 264.745 19.328,264.494 19.200,263.000 19.200 C 261.506 19.200,261.255 19.072,261.036 18.200 C 260.815 17.322,260.569 17.200,259.020 17.200 C 257.495 17.200,257.238 17.078,257.128 16.300 C 257.016 15.516,256.729 15.384,254.900 15.279 C 252.972 15.168,252.800 15.078,252.800 14.179 C 252.800 13.406,252.593 13.200,251.818 13.200 C 251.278 13.200,250.386 12.750,249.836 12.200 C 249.286 11.650,248.391 11.200,247.846 11.200 C 247.124 11.200,246.821 10.957,246.728 10.300 C 246.519 8.832,241.620 8.744,240.182 10.182 M233.289 44.700 C 233.398 50.476,233.419 50.603,234.300 50.728 C 235.168 50.851,235.200 51.006,235.200 55.023 L 235.200 59.191 218.500 59.296 L 201.800 59.400 201.405 60.300 C 201.018 61.183,200.890 61.199,194.805 61.126 C 191.392 61.085,189.545 60.986,190.700 60.905 C 192.621 60.771,192.800 60.675,192.800 59.779 C 192.800 58.871,192.945 58.800,194.800 58.800 C 196.667 58.800,196.800 58.733,196.800 57.800 C 196.800 56.867,196.933 56.800,198.800 56.800 C 200.655 56.800,200.800 56.729,200.800 55.822 C 200.800 54.939,200.985 54.832,202.700 54.722 C 204.321 54.618,204.619 54.468,204.728 53.700 C 204.828 52.997,205.116 52.800,206.047 52.800 C 206.804 52.800,207.576 52.435,208.165 51.800 C 208.675 51.250,209.476 50.800,209.946 50.800 C 210.590 50.800,210.800 50.554,210.800 49.800 C 210.800 48.867,210.933 48.800,212.800 48.800 C 214.667 48.800,214.800 48.733,214.800 47.800 C 214.800 46.867,214.933 46.800,216.800 46.800 C 218.667 46.800,218.800 46.733,218.800 45.800 C 218.800 44.867,218.933 44.800,220.800 44.800 C 222.667 44.800,222.800 44.733,222.800 43.800 C 222.800 42.867,222.933 42.800,224.800 42.800 C 226.667 42.800,226.800 42.733,226.800 41.800 C 226.800 40.867,226.933 40.800,228.800 40.800 C 230.667 40.800,230.800 40.733,230.800 39.800 C 230.800 38.958,230.987 38.800,231.989 38.800 L 233.179 38.800 233.289 44.700 M258.729 39.800 C 259.161 40.350,259.829 40.800,260.212 40.800 C 260.595 40.800,261.325 41.250,261.835 41.800 C 262.424 42.435,263.196 42.800,263.953 42.800 C 264.884 42.800,265.172 42.997,265.272 43.700 C 265.381 44.466,265.679 44.618,267.275 44.721 C 268.856 44.823,269.169 44.979,269.275 45.721 C 269.381 46.464,269.693 46.619,271.300 46.722 C 273.015 46.832,273.200 46.939,273.200 47.822 C 273.200 48.729,273.345 48.800,275.200 48.800 C 277.067 48.800,277.200 48.867,277.200 49.800 C 277.200 50.733,277.333 50.800,279.200 50.800 C 281.067 50.800,281.200 50.867,281.200 51.800 C 281.200 52.733,281.333 52.800,283.200 52.800 C 285.067 52.800,285.200 52.867,285.200 53.800 C 285.200 54.733,285.333 54.800,287.200 54.800 C 289.067 54.800,289.200 54.867,289.200 55.800 C 289.200 56.733,289.333 56.800,291.200 56.800 C 293.067 56.800,293.200 56.867,293.200 57.800 C 293.200 58.733,293.333 58.800,295.200 58.800 C 297.067 58.800,297.200 58.867,297.200 59.800 C 297.200 60.554,297.410 60.800,298.054 60.800 C 298.524 60.800,299.325 61.250,299.835 61.800 C 300.400 62.410,301.201 62.800,301.886 62.800 C 302.668 62.800,303.130 63.074,303.405 63.700 C 303.709 64.392,304.188 64.628,305.475 64.722 C 306.849 64.822,307.173 65.001,307.275 65.722 C 307.381 66.464,307.694 66.619,309.300 66.722 C 311.015 66.832,311.200 66.939,311.200 67.822 C 311.200 68.729,311.345 68.800,313.200 68.800 C 315.067 68.800,315.200 68.867,315.200 69.800 C 315.200 70.600,315.400 70.800,316.200 70.800 C 316.950 70.800,317.200 71.011,317.200 71.642 C 317.200 72.106,317.650 72.839,318.200 73.271 C 318.919 73.837,319.200 74.443,319.200 75.429 C 319.200 76.625,319.328 76.800,320.200 76.800 C 321.000 76.800,321.200 77.000,321.200 77.800 C 321.200 78.600,321.400 78.800,322.200 78.800 C 323.000 78.800,323.200 79.000,323.200 79.800 C 323.200 80.600,323.400 80.800,324.200 80.800 C 325.133 80.800,325.200 80.933,325.200 82.800 C 325.200 84.667,325.267 84.800,326.200 84.800 C 327.000 84.800,327.200 85.000,327.200 85.800 C 327.200 86.600,327.400 86.800,328.200 86.800 C 329.000 86.800,329.200 87.000,329.200 87.800 C 329.200 88.594,329.401 88.800,330.178 88.800 C 331.061 88.800,331.168 88.985,331.278 90.700 C 331.382 92.321,331.532 92.619,332.300 92.728 C 332.951 92.820,333.200 93.124,333.200 93.828 C 333.200 94.598,333.408 94.800,334.200 94.800 C 335.000 94.800,335.200 95.000,335.200 95.800 C 335.200 96.594,335.401 96.800,336.178 96.800 C 337.061 96.800,337.168 96.985,337.278 98.700 C 337.382 100.321,337.532 100.619,338.300 100.728 C 338.951 100.820,339.200 101.124,339.200 101.828 C 339.200 102.598,339.408 102.800,340.200 102.800 C 341.000 102.800,341.200 103.000,341.200 103.800 C 341.200 104.594,341.401 104.800,342.178 104.800 C 343.061 104.800,343.168 104.985,343.278 106.700 C 343.382 108.321,343.532 108.619,344.300 108.728 C 344.951 108.820,345.200 109.124,345.200 109.828 C 345.200 110.598,345.408 110.800,346.200 110.800 C 347.000 110.800,347.200 111.000,347.200 111.800 C 347.200 112.594,347.402 112.800,348.177 112.800 C 349.040 112.800,349.168 112.998,349.277 114.500 C 349.372 115.813,349.605 116.290,350.300 116.595 C 350.852 116.837,351.200 117.340,351.200 117.895 C 351.200 118.594,351.428 118.800,352.200 118.800 C 353.000 118.800,353.200 119.000,353.200 119.800 C 353.200 120.600,353.400 120.800,354.200 120.800 C 355.048 120.800,355.200 120.985,355.200 122.019 C 355.200 122.806,355.555 123.567,356.200 124.165 C 356.750 124.675,357.200 125.476,357.200 125.946 C 357.200 126.590,357.446 126.800,358.200 126.800 C 359.000 126.800,359.200 127.000,359.200 127.800 C 359.200 128.600,359.400 128.800,360.200 128.800 C 361.005 128.800,361.200 128.999,361.200 129.818 C 361.200 130.378,361.650 131.286,362.200 131.836 C 363.467 133.104,363.455 133.200,362.018 133.200 C 361.291 133.200,360.452 132.815,359.836 132.200 C 358.878 131.242,358.631 131.200,353.913 131.200 C 349.191 131.200,348.974 131.163,348.595 130.300 C 348.216 129.436,347.976 129.396,342.526 129.289 C 337.007 129.181,336.849 129.154,336.726 128.289 C 336.603 127.422,336.454 127.397,330.700 127.289 L 324.800 127.179 324.800 126.189 L 324.800 125.200 318.800 125.200 L 312.800 125.200 312.800 124.200 L 312.800 123.200 308.800 123.200 L 304.800 123.200 304.800 122.200 C 304.800 121.479,304.585 121.200,304.028 121.200 C 303.532 121.200,303.210 120.878,303.128 120.300 C 303.046 119.722,302.678 119.354,302.101 119.272 C 301.540 119.193,301.110 118.779,300.957 118.172 C 300.787 117.492,300.435 117.200,299.784 117.200 C 299.126 117.200,298.818 116.938,298.728 116.300 C 298.630 115.611,298.272 115.353,297.200 115.200 C 296.248 115.064,295.674 114.712,295.405 114.100 C 295.168 113.560,294.659 113.200,294.133 113.200 C 293.528 113.200,293.216 112.921,293.128 112.300 C 293.047 111.730,292.679 111.354,292.125 111.275 C 291.579 111.198,291.202 110.821,291.125 110.275 C 291.046 109.722,290.670 109.353,290.101 109.272 C 289.540 109.193,289.110 108.779,288.957 108.172 C 288.787 107.492,288.435 107.200,287.784 107.200 C 287.126 107.200,286.818 106.938,286.728 106.300 C 286.622 105.552,286.313 105.379,284.900 105.277 C 283.398 105.168,283.200 105.040,283.200 104.177 C 283.200 103.409,282.992 103.200,282.228 103.200 C 281.524 103.200,281.220 102.951,281.128 102.300 C 281.047 101.730,280.679 101.354,280.125 101.275 C 279.586 101.199,279.201 100.820,279.125 100.292 C 279.047 99.758,278.621 99.345,278.000 99.200 C 277.368 99.053,276.953 98.642,276.872 98.084 C 276.785 97.480,276.467 97.200,275.867 97.200 C 275.341 97.200,274.832 96.840,274.595 96.300 C 274.305 95.638,273.803 95.367,272.700 95.276 C 271.410 95.169,271.200 95.015,271.200 94.176 C 271.200 93.409,270.992 93.200,270.228 93.200 C 269.524 93.200,269.220 92.951,269.128 92.300 C 269.046 91.722,268.678 91.354,268.100 91.272 C 267.347 91.165,267.200 90.896,267.200 89.628 C 267.200 88.670,266.832 87.569,266.200 86.638 C 265.320 85.341,265.200 84.740,265.200 81.632 C 265.200 77.132,264.884 75.547,263.939 75.300 C 263.278 75.127,263.200 74.652,263.200 70.786 C 263.200 65.928,263.038 65.200,261.957 65.200 C 261.261 65.200,261.200 64.851,261.196 60.900 C 261.190 55.352,260.892 53.549,259.939 53.300 C 259.282 53.128,259.199 52.656,259.195 49.053 C 259.188 44.232,258.969 43.200,257.953 43.200 C 257.307 43.200,257.200 42.888,257.200 41.000 C 257.200 38.572,257.548 38.299,258.729 39.800 M168.457 120.618 C 169.127 120.831,169.200 121.329,169.200 125.669 C 169.200 130.329,169.232 130.510,170.200 131.271 C 171.178 132.041,171.200 132.176,171.200 137.429 L 171.200 142.800 172.200 142.800 L 173.200 142.800 173.200 148.800 L 173.200 154.800 174.189 154.800 L 175.179 154.800 175.289 160.700 C 175.397 166.454,175.422 166.603,176.289 166.726 C 177.154 166.849,177.181 167.007,177.289 172.515 C 177.399 178.105,177.413 178.184,178.400 178.683 C 179.285 179.130,179.022 179.189,176.100 179.194 C 172.845 179.200,172.800 179.186,172.800 178.200 L 172.800 177.200 167.895 177.200 C 163.192 177.200,162.973 177.163,162.595 176.300 C 162.250 175.514,161.857 175.385,159.500 175.282 L 156.800 175.163 156.800 172.611 C 156.800 170.364,156.920 169.964,157.800 169.271 C 158.768 168.510,158.800 168.331,158.800 163.642 L 158.800 158.800 159.800 158.800 L 160.800 158.800 160.800 153.800 L 160.800 148.800 161.800 148.800 L 162.800 148.800 162.800 143.800 L 162.800 138.800 163.800 138.800 L 164.800 138.800 164.800 133.800 L 164.800 128.800 165.800 128.800 L 166.800 128.800 166.827 123.700 C 166.848 119.761,166.952 118.803,167.284 119.491 C 167.521 119.981,168.049 120.488,168.457 120.618 M202.199 208.800 C 202.875 208.800,203.181 209.057,203.272 209.700 C 203.349 210.244,203.721 210.646,204.212 210.716 C 204.659 210.780,205.199 211.230,205.412 211.716 C 205.648 212.254,206.227 212.649,206.891 212.726 C 207.491 212.795,208.327 213.290,208.749 213.826 C 209.170 214.362,209.894 214.800,210.358 214.800 C 210.989 214.800,211.200 215.050,211.200 215.800 C 211.200 216.600,211.400 216.800,212.200 216.800 C 213.000 216.800,213.200 217.000,213.200 217.800 C 213.200 218.600,213.400 218.800,214.200 218.800 C 215.000 218.800,215.200 219.000,215.200 219.800 C 215.200 220.600,215.400 220.800,216.200 220.800 C 217.000 220.800,217.200 221.000,217.200 221.800 C 217.200 222.600,217.400 222.800,218.200 222.800 C 219.000 222.800,219.200 223.000,219.200 223.800 C 219.200 224.600,219.400 224.800,220.200 224.800 C 221.000 224.800,221.200 225.000,221.200 225.800 C 221.200 226.600,221.400 226.800,222.200 226.800 C 223.000 226.800,223.200 227.000,223.200 227.800 C 223.200 228.600,223.400 228.800,224.200 228.800 C 225.000 228.800,225.200 229.000,225.200 229.800 C 225.200 230.592,225.402 230.800,226.172 230.800 C 226.874 230.800,227.180 231.049,227.272 231.696 C 227.346 232.213,227.738 232.656,228.199 232.744 C 228.638 232.828,229.395 233.325,229.880 233.848 C 230.437 234.449,231.211 234.800,231.981 234.800 C 233.015 234.800,233.200 234.952,233.200 235.800 C 233.200 236.600,233.400 236.800,234.200 236.800 C 235.000 236.800,235.200 237.000,235.200 237.800 C 235.200 238.600,235.400 238.800,236.200 238.800 C 237.000 238.800,237.200 239.000,237.200 239.800 C 237.200 240.600,237.400 240.800,238.200 240.800 C 239.000 240.800,239.200 241.000,239.200 241.800 C 239.200 242.600,239.400 242.800,240.200 242.800 C 241.000 242.800,241.200 243.000,241.200 243.800 C 241.200 244.600,241.400 244.800,242.200 244.800 C 243.000 244.800,243.200 245.000,243.200 245.800 C 243.200 246.600,243.400 246.800,244.200 246.800 C 245.000 246.800,245.200 247.000,245.200 247.800 C 245.200 248.600,245.400 248.800,246.200 248.800 C 247.000 248.800,247.200 249.000,247.200 249.800 C 247.200 250.592,247.402 250.800,248.172 250.800 C 248.876 250.800,249.180 251.049,249.272 251.700 C 249.349 252.244,249.721 252.646,250.212 252.716 C 250.659 252.780,251.199 253.230,251.412 253.716 C 251.648 254.254,252.227 254.649,252.891 254.726 C 253.491 254.795,254.327 255.290,254.749 255.826 C 255.170 256.362,255.894 256.800,256.358 256.800 C 256.989 256.800,257.200 257.050,257.200 257.800 C 257.200 258.600,257.400 258.800,258.200 258.800 C 259.000 258.800,259.200 259.000,259.200 259.800 C 259.200 260.600,259.400 260.800,260.200 260.800 C 261.000 260.800,261.200 261.000,261.200 261.800 C 261.200 262.777,261.269 262.800,264.171 262.800 C 266.864 262.800,267.216 262.706,267.929 261.800 C 268.675 260.851,268.922 260.800,272.758 260.800 C 276.788 260.800,276.800 260.797,276.800 259.814 C 276.800 258.838,276.840 258.827,280.900 258.714 C 284.790 258.606,285.006 258.554,285.126 257.712 C 285.247 256.861,285.443 256.820,289.926 256.712 C 294.429 256.604,294.605 256.567,294.728 255.700 C 294.851 254.836,295.013 254.800,298.820 254.800 C 302.715 254.800,302.789 254.783,303.036 253.800 C 303.283 252.814,303.345 252.800,307.415 252.800 C 311.483 252.800,312.800 252.402,312.800 251.171 C 312.800 250.967,313.790 250.800,315.000 250.800 C 317.080 250.800,317.200 250.855,317.200 251.800 C 317.200 252.600,317.400 252.800,318.200 252.800 C 319.133 252.800,319.200 252.933,319.200 254.800 C 319.200 256.667,319.267 256.800,320.200 256.800 C 321.072 256.800,321.200 256.975,321.200 258.171 C 321.200 259.473,322.022 260.800,322.829 260.800 C 323.033 260.800,323.200 261.250,323.200 261.800 C 323.200 262.600,323.400 262.800,324.200 262.800 C 325.133 262.800,325.200 262.933,325.200 264.800 C 325.200 266.654,325.271 266.800,326.177 266.800 C 327.040 266.800,327.168 266.998,327.277 268.500 C 327.372 269.813,327.605 270.290,328.300 270.595 C 328.852 270.837,329.200 271.340,329.200 271.895 C 329.200 272.594,329.428 272.800,330.200 272.800 C 331.133 272.800,331.200 272.933,331.200 274.800 C 331.200 276.655,331.271 276.800,332.178 276.800 C 333.061 276.800,333.168 276.985,333.278 278.700 C 333.382 280.321,333.532 280.619,334.300 280.728 C 334.951 280.820,335.200 281.124,335.200 281.828 C 335.200 282.598,335.408 282.800,336.200 282.800 C 337.133 282.800,337.200 282.933,337.200 284.800 C 337.200 286.655,337.271 286.800,338.178 286.800 C 339.061 286.800,339.168 286.985,339.278 288.700 C 339.382 290.321,339.532 290.619,340.300 290.728 C 340.943 290.819,341.200 291.125,341.200 291.801 C 341.200 292.526,341.457 292.786,342.300 292.913 C 342.905 293.005,340.726 293.107,337.458 293.140 C 331.638 293.199,331.499 293.221,330.733 294.194 L 329.952 295.188 318.676 295.294 L 307.400 295.400 307.273 296.294 L 307.146 297.188 295.473 297.294 L 283.800 297.400 283.405 298.300 L 283.010 299.200 272.087 299.200 L 261.164 299.200 260.164 300.200 C 259.614 300.750,259.082 301.200,258.982 301.200 C 258.882 301.200,258.800 300.750,258.800 300.200 C 258.800 299.467,258.587 299.200,258.000 299.200 C 257.413 299.200,257.200 298.933,257.200 298.200 C 257.200 297.400,257.000 297.200,256.200 297.200 C 255.328 297.200,255.200 297.024,255.200 295.833 C 255.200 293.865,254.841 293.200,253.779 293.200 C 252.947 293.200,252.830 292.990,252.722 291.300 C 252.618 289.679,252.468 289.381,251.700 289.272 C 251.049 289.180,250.800 288.876,250.800 288.172 C 250.800 287.402,250.592 287.200,249.800 287.200 C 248.867 287.200,248.800 287.067,248.800 285.200 C 248.800 283.333,248.733 283.200,247.800 283.200 C 246.995 283.200,246.800 283.001,246.800 282.182 C 246.800 281.622,246.350 280.714,245.800 280.164 C 245.250 279.614,244.800 278.722,244.800 278.182 C 244.800 277.407,244.594 277.200,243.822 277.200 C 242.939 277.200,242.832 277.015,242.722 275.300 C 242.618 273.679,242.468 273.381,241.700 273.272 C 241.049 273.180,240.800 272.876,240.800 272.172 C 240.800 271.402,240.592 271.200,239.800 271.200 C 238.867 271.200,238.800 271.067,238.800 269.200 C 238.800 267.346,238.729 267.200,237.823 267.200 C 236.960 267.200,236.832 267.002,236.723 265.500 C 236.628 264.187,236.395 263.710,235.700 263.405 C 235.148 263.163,234.800 262.660,234.800 262.105 C 234.800 261.406,234.572 261.200,233.800 261.200 C 232.867 261.200,232.800 261.067,232.800 259.200 C 232.800 257.333,232.733 257.200,231.800 257.200 C 231.000 257.200,230.800 257.000,230.800 256.200 C 230.800 255.400,230.600 255.200,229.800 255.200 C 228.867 255.200,228.800 255.067,228.800 253.200 C 228.800 251.345,228.729 251.200,227.822 251.200 C 226.939 251.200,226.832 251.015,226.722 249.300 C 226.618 247.679,226.468 247.381,225.700 247.272 C 225.049 247.180,224.800 246.876,224.800 246.172 C 224.800 245.402,224.592 245.200,223.800 245.200 C 222.867 245.200,222.800 245.067,222.800 243.200 C 222.800 241.333,222.733 241.200,221.800 241.200 C 220.952 241.200,220.800 241.015,220.800 239.981 C 220.800 239.194,220.445 238.433,219.800 237.835 C 219.250 237.325,218.800 236.524,218.800 236.054 C 218.800 235.410,218.554 235.200,217.800 235.200 C 216.867 235.200,216.800 235.067,216.800 233.200 C 216.800 231.333,216.733 231.200,215.800 231.200 C 215.000 231.200,214.800 231.000,214.800 230.200 C 214.800 229.400,214.600 229.200,213.800 229.200 C 212.867 229.200,212.800 229.067,212.800 227.200 C 212.800 225.345,212.729 225.200,211.822 225.200 C 210.939 225.200,210.832 225.015,210.722 223.300 C 210.618 221.679,210.468 221.381,209.700 221.272 C 209.049 221.180,208.800 220.876,208.800 220.172 C 208.800 219.402,208.592 219.200,207.800 219.200 C 206.867 219.200,206.800 219.067,206.800 217.200 C 206.800 215.333,206.733 215.200,205.800 215.200 C 204.995 215.200,204.800 215.001,204.800 214.182 C 204.800 213.622,204.350 212.714,203.800 212.164 C 203.250 211.614,202.800 210.722,202.800 210.182 C 202.800 209.401,202.595 209.200,201.800 209.200 C 200.926 209.200,200.808 209.036,200.860 207.900 C 200.916 206.690,200.931 206.676,201.087 207.700 C 201.214 208.543,201.474 208.800,202.199 208.800 " stroke="none" fill="#040404" fill-rule="evenodd"></path><path id="path1" d="" stroke="none" fill="#080404" fill-rule="evenodd"></path><path id="path2" d="" stroke="none" fill="#080404" fill-rule="evenodd"></path><path id="path3" d="" stroke="none" fill="#080404" fill-rule="evenodd"></path><path id="path4" d="" stroke="none" fill="#080404" fill-rule="evenodd"></path></g></svg>