<svg id="svg" version="1.1" xmlns="http://www.w3.org/2000/svg" xmlns:xlink="http://www.w3.org/1999/xlink" width="400" height="495.45454545454544" viewBox="0, 0, 400,495.45454545454544"><g id="svgg"><path id="path0" d="M288.726 37.100 C 309.139 57.505,342.527 90.881,362.920 111.268 C 383.314 131.656,400.000 148.182,400.000 147.994 C 400.000 147.554,252.382 0.000,251.942 0.000 C 251.761 0.000,268.313 16.695,288.726 37.100 M39.600 2.000 C 39.600 2.220,39.870 2.400,40.200 2.400 C 40.530 2.400,40.800 2.220,40.800 2.000 C 40.800 1.780,40.530 1.600,40.200 1.600 C 39.870 1.600,39.600 1.780,39.600 2.000 M33.613 4.291 C 33.089 4.882,33.103 4.923,33.746 4.676 C 34.142 4.524,34.631 4.400,34.833 4.400 C 35.035 4.400,35.200 4.220,35.200 4.000 C 35.200 3.383,34.267 3.555,33.613 4.291 M28.900 6.634 C 28.185 6.946,27.600 7.386,27.600 7.611 C 27.600 7.845,28.072 7.765,28.700 7.425 C 31.293 6.021,31.416 5.533,28.900 6.634 M23.000 10.476 C 22.560 10.724,21.750 11.374,21.200 11.919 L 20.200 12.911 21.500 12.245 C 22.215 11.879,22.800 11.432,22.800 11.251 C 22.800 11.070,23.205 10.727,23.700 10.488 C 24.195 10.249,24.420 10.047,24.200 10.039 C 23.980 10.031,23.440 10.228,23.000 10.476 M18.733 13.588 C 18.660 13.801,17.538 15.064,16.241 16.395 C 14.943 17.726,13.976 18.909,14.091 19.024 C 14.305 19.238,19.290 14.240,19.533 13.568 C 19.607 13.366,19.487 13.200,19.267 13.200 C 19.047 13.200,18.807 13.374,18.733 13.588 M243.900 17.833 C 243.754 17.980,274.676 49.129,312.617 87.053 L 381.600 156.007 381.646 298.304 C 381.671 376.567,381.841 439.880,382.023 439.000 C 382.205 438.120,382.364 374.040,382.377 296.600 L 382.400 155.799 313.283 86.683 C 275.269 48.669,244.046 17.687,243.900 17.833 M46.400 19.200 C 46.400 19.420,46.670 19.600,47.000 19.600 C 47.330 19.600,47.600 19.420,47.600 19.200 C 47.600 18.980,47.330 18.800,47.000 18.800 C 46.670 18.800,46.400 18.980,46.400 19.200 M11.665 21.500 C 10.363 23.056,10.133 23.600,10.777 23.600 C 10.985 23.600,11.474 23.060,11.864 22.400 C 12.254 21.740,12.694 21.200,12.843 21.200 C 12.992 21.200,13.218 20.930,13.345 20.600 C 13.754 19.532,12.952 19.962,11.665 21.500 M40.800 21.224 C 40.800 21.457,40.620 21.536,40.400 21.400 C 40.180 21.264,40.000 21.343,40.000 21.576 C 40.000 22.067,40.107 22.087,40.967 21.757 C 41.665 21.489,41.833 20.800,41.200 20.800 C 40.980 20.800,40.800 20.991,40.800 21.224 M36.800 23.200 C 36.483 23.396,36.356 23.689,36.518 23.852 C 36.681 24.014,37.023 23.937,37.280 23.680 C 37.884 23.076,37.547 22.738,36.800 23.200 M214.400 104.000 C 214.400 157.735,214.535 185.200,214.799 185.200 C 215.063 185.200,215.232 157.802,215.299 104.402 L 215.400 23.603 295.900 104.026 C 340.175 148.259,376.400 184.263,376.400 184.036 C 376.400 183.407,215.580 22.800,214.950 22.800 C 214.485 22.800,214.400 35.347,214.400 104.000 M33.402 25.598 C 33.003 26.039,32.862 26.400,33.089 26.400 C 33.592 26.400,34.590 25.257,34.321 24.988 C 34.215 24.882,33.802 25.156,33.402 25.598 M29.887 28.712 C 28.629 29.983,27.600 31.187,27.600 31.386 C 27.600 31.586,28.680 30.646,30.000 29.297 C 32.108 27.143,32.695 26.400,32.287 26.400 C 32.226 26.400,31.146 27.440,29.887 28.712 M4.839 32.860 C 4.236 34.589,4.312 35.210,4.979 34.005 C 5.282 33.458,5.445 32.873,5.341 32.705 C 5.238 32.537,5.343 32.400,5.576 32.400 C 5.809 32.400,6.000 32.220,6.000 32.000 C 6.000 31.121,5.252 31.675,4.839 32.860 M25.990 33.218 C 25.586 33.974,25.615 33.997,26.376 33.522 C 27.242 32.981,27.469 32.400,26.814 32.400 C 26.602 32.400,26.231 32.768,25.990 33.218 M24.643 35.033 C 24.493 35.423,24.582 35.606,24.875 35.508 C 25.473 35.309,25.802 34.400,25.276 34.400 C 25.061 34.400,24.776 34.685,24.643 35.033 M3.390 36.030 C 3.149 36.790,3.394 37.562,3.750 37.167 C 4.174 36.697,4.405 35.200,4.054 35.200 C 3.834 35.200,3.535 35.574,3.390 36.030 M23.043 37.433 C 22.893 37.823,22.982 38.006,23.275 37.908 C 23.873 37.709,24.202 36.800,23.676 36.800 C 23.461 36.800,23.176 37.085,23.043 37.433 M21.232 41.139 C 20.707 42.121,20.676 42.800,21.157 42.800 C 21.548 42.800,22.152 40.819,21.852 40.519 C 21.749 40.416,21.470 40.695,21.232 41.139 M0.800 46.000 C 0.800 46.747,0.907 46.853,1.280 46.480 C 1.653 46.107,1.653 45.893,1.280 45.520 C 0.907 45.147,0.800 45.253,0.800 46.000 M18.800 49.000 C 18.800 49.330,18.980 49.600,19.200 49.600 C 19.420 49.600,19.600 49.330,19.600 49.000 C 19.600 48.670,19.420 48.400,19.200 48.400 C 18.980 48.400,18.800 48.670,18.800 49.000 M0.198 189.200 C 0.198 262.350,0.244 292.275,0.300 255.700 C 0.356 219.125,0.356 159.275,0.300 122.700 C 0.244 86.125,0.198 116.050,0.198 189.200 M233.200 66.997 C 233.530 67.435,255.940 89.935,283.000 116.997 L 332.200 166.200 282.400 166.402 L 232.600 166.605 282.900 166.702 C 310.565 166.756,333.200 166.701,333.200 166.579 C 333.200 166.316,234.514 67.668,233.382 66.800 C 232.640 66.230,232.630 66.240,233.200 66.997 M95.200 238.300 C 95.200 238.465,142.360 238.600,200.000 238.600 C 257.640 238.600,304.800 238.465,304.800 238.300 C 304.800 238.135,257.640 238.000,200.000 238.000 C 142.360 238.000,95.200 238.135,95.200 238.300 M113.468 256.266 C 113.019 256.715,113.149 286.000,113.600 286.000 C 113.859 286.000,114.000 280.867,114.000 271.400 L 114.000 256.800 200.000 256.800 L 286.000 256.800 286.000 271.400 C 286.000 280.984,286.139 286.000,286.405 286.000 C 286.673 286.000,286.774 280.955,286.705 271.100 L 286.600 256.200 200.168 256.099 C 152.630 256.044,113.615 256.119,113.468 256.266 M18.195 381.200 C 18.195 413.870,18.242 427.235,18.300 410.900 C 18.358 394.565,18.358 367.835,18.300 351.500 C 18.242 335.165,18.195 348.530,18.195 381.200 M95.200 333.900 C 95.200 334.065,142.360 334.200,200.000 334.200 C 257.640 334.200,304.800 334.065,304.800 333.900 C 304.800 333.735,257.640 333.600,200.000 333.600 C 142.360 333.600,95.200 333.735,95.200 333.900 M113.200 366.824 C 113.200 376.604,113.336 381.563,113.600 381.400 C 113.855 381.243,114.000 375.863,114.000 366.576 C 114.000 357.125,113.859 352.000,113.600 352.000 C 113.341 352.000,113.200 357.208,113.200 366.824 M286.000 366.800 C 286.000 376.400,286.141 381.600,286.400 381.600 C 286.659 381.600,286.800 376.400,286.800 366.800 C 286.800 357.200,286.659 352.000,286.400 352.000 C 286.141 352.000,286.000 357.200,286.000 366.800 M0.101 442.600 C 0.105 443.480,0.187 443.793,0.283 443.295 C 0.379 442.798,0.375 442.078,0.275 441.695 C 0.175 441.313,0.096 441.720,0.101 442.600 M399.701 442.600 C 399.705 443.480,399.787 443.793,399.883 443.295 C 399.979 442.798,399.975 442.078,399.875 441.695 C 399.775 441.313,399.696 441.720,399.701 442.600 M18.800 446.600 C 18.800 446.930,18.980 447.200,19.200 447.200 C 19.420 447.200,19.600 446.930,19.600 446.600 C 19.600 446.270,19.420 446.000,19.200 446.000 C 18.980 446.000,18.800 446.270,18.800 446.600 M380.400 446.600 C 380.400 446.930,380.580 447.200,380.800 447.200 C 381.020 447.200,381.200 446.930,381.200 446.600 C 381.200 446.270,381.020 446.000,380.800 446.000 C 380.580 446.000,380.400 446.270,380.400 446.600 M19.200 448.600 C 19.200 448.930,19.380 449.200,19.600 449.200 C 19.820 449.200,20.000 448.930,20.000 448.600 C 20.000 448.270,19.820 448.000,19.600 448.000 C 19.380 448.000,19.200 448.270,19.200 448.600 M380.000 448.600 C 380.000 448.930,380.180 449.200,380.400 449.200 C 380.620 449.200,380.800 448.930,380.800 448.600 C 380.800 448.270,380.620 448.000,380.400 448.000 C 380.180 448.000,380.000 448.270,380.000 448.600 M20.400 451.784 C 20.400 452.309,21.575 454.800,21.823 454.800 C 22.254 454.800,21.609 452.752,20.980 452.123 C 20.661 451.804,20.400 451.651,20.400 451.784 M377.983 454.053 C 377.683 454.962,377.227 455.915,376.971 456.172 C 376.357 456.786,375.855 458.400,376.278 458.400 C 376.602 458.400,379.224 453.298,379.208 452.700 C 379.184 451.813,378.457 452.616,377.983 454.053 M22.400 456.194 C 22.400 456.286,22.609 456.821,22.864 457.381 C 23.362 458.474,24.248 458.823,23.843 457.767 C 23.709 457.419,23.600 456.989,23.600 456.810 C 23.600 456.632,23.330 456.382,23.000 456.255 C 22.670 456.129,22.400 456.101,22.400 456.194 M3.200 458.367 C 3.200 459.014,3.676 460.000,3.987 460.000 C 4.153 460.000,4.203 459.550,4.098 459.000 C 3.919 458.065,3.200 457.558,3.200 458.367 M395.863 458.883 C 395.736 459.368,395.724 459.858,395.838 459.971 C 396.096 460.230,396.786 459.169,396.794 458.500 C 396.804 457.659,396.108 457.945,395.863 458.883 M24.606 460.011 C 24.944 460.665,25.392 461.200,25.602 461.200 C 26.146 461.200,25.212 459.290,24.541 459.033 C 24.099 458.863,24.111 459.055,24.606 460.011 M374.760 460.086 C 374.232 460.794,372.321 462.900,370.514 464.767 C 368.706 466.634,367.303 468.236,367.395 468.328 C 367.881 468.815,374.397 461.929,375.559 459.700 C 376.227 458.419,375.879 458.587,374.760 460.086 M395.008 461.284 C 394.846 461.788,394.733 462.335,394.757 462.500 C 394.781 462.665,394.620 462.800,394.400 462.800 C 394.180 462.800,394.000 462.980,394.000 463.200 C 394.000 463.420,394.166 463.600,394.369 463.600 C 394.779 463.600,395.790 460.857,395.491 460.557 C 395.387 460.453,395.169 460.780,395.008 461.284 M4.400 460.864 C 4.400 460.983,4.598 461.647,4.839 462.340 C 5.252 463.525,6.000 464.079,6.000 463.200 C 6.000 462.980,5.809 462.800,5.576 462.800 C 5.343 462.800,5.237 462.663,5.341 462.496 C 5.444 462.328,5.275 461.844,4.965 461.419 C 4.654 460.995,4.400 460.745,4.400 460.864 M26.400 462.325 C 26.400 462.815,28.758 464.975,29.014 464.720 C 29.136 464.597,28.674 463.936,27.987 463.249 C 26.686 461.947,26.400 461.781,26.400 462.325 M6.000 464.084 C 6.000 464.769,7.278 467.200,7.638 467.200 C 7.873 467.200,7.659 466.525,7.163 465.700 C 6.106 463.941,6.000 463.795,6.000 464.084 M393.002 465.326 C 391.913 467.099,391.878 467.200,392.361 467.200 C 392.753 467.200,394.158 464.424,393.898 464.164 C 393.836 464.102,393.433 464.625,393.002 465.326 M29.621 465.900 C 29.680 466.750,37.600 472.448,37.600 471.641 C 37.600 471.469,37.164 471.130,36.631 470.887 C 35.437 470.343,34.357 469.497,32.052 467.300 C 30.358 465.685,29.574 465.234,29.621 465.900 M364.243 470.233 C 364.093 470.623,364.182 470.806,364.475 470.708 C 365.073 470.509,365.402 469.600,364.876 469.600 C 364.661 469.600,364.376 469.885,364.243 470.233 M9.200 470.367 C 9.200 470.605,9.384 470.800,9.610 470.800 C 9.835 470.800,10.193 471.255,10.404 471.810 C 10.615 472.366,11.061 472.925,11.394 473.053 C 11.727 473.181,12.000 473.507,12.000 473.777 C 12.000 474.047,12.540 474.749,13.200 475.337 C 15.021 476.960,14.636 476.107,12.145 473.000 C 9.883 470.180,9.200 469.569,9.200 470.367 M389.867 470.267 C 389.381 470.753,389.590 471.179,390.200 470.945 C 390.530 470.818,390.800 470.554,390.800 470.357 C 390.800 469.938,390.249 469.884,389.867 470.267 M38.000 471.936 C 38.000 472.304,40.019 473.382,40.500 473.270 C 40.665 473.231,40.800 473.380,40.800 473.600 C 40.800 473.820,40.980 474.000,41.200 474.000 C 42.135 474.000,41.490 473.226,40.200 472.800 C 39.430 472.546,38.800 472.172,38.800 471.969 C 38.800 471.766,38.620 471.600,38.400 471.600 C 38.180 471.600,38.000 471.751,38.000 471.936 M360.813 472.291 C 360.289 472.882,360.303 472.923,360.946 472.676 C 361.342 472.524,361.741 472.400,361.833 472.400 C 361.925 472.400,362.000 472.220,362.000 472.000 C 362.000 471.412,361.481 471.539,360.813 472.291 M388.243 472.633 C 388.093 473.023,388.182 473.206,388.475 473.108 C 389.073 472.909,389.402 472.000,388.876 472.000 C 388.661 472.000,388.376 472.285,388.243 472.633 M358.812 473.184 C 358.488 473.389,358.344 473.678,358.493 473.826 C 358.641 473.974,359.053 473.804,359.410 473.448 C 360.113 472.744,359.757 472.587,358.812 473.184 M356.800 474.000 C 356.800 474.220,357.070 474.400,357.400 474.400 C 357.730 474.400,358.000 474.220,358.000 474.000 C 358.000 473.780,357.730 473.600,357.400 473.600 C 357.070 473.600,356.800 473.780,356.800 474.000 M386.000 475.400 C 385.524 476.170,384.939 476.800,384.701 476.800 C 384.462 476.800,384.384 476.918,384.528 477.061 C 384.801 477.334,387.588 474.825,387.596 474.300 C 387.606 473.559,386.790 474.121,386.000 475.400 M46.400 475.600 C 46.400 475.820,46.670 476.000,47.000 476.000 C 47.330 476.000,47.600 475.820,47.600 475.600 C 47.600 475.380,47.330 475.200,47.000 475.200 C 46.670 475.200,46.400 475.380,46.400 475.600 M349.600 476.000 C 349.600 476.220,349.960 476.400,350.400 476.400 C 350.840 476.400,351.200 476.220,351.200 476.000 C 351.200 475.780,350.840 475.600,350.400 475.600 C 349.960 475.600,349.600 475.780,349.600 476.000 M16.075 478.425 C 16.171 478.714,16.486 479.029,16.775 479.125 C 17.075 479.225,17.225 479.075,17.125 478.775 C 17.029 478.486,16.714 478.171,16.425 478.075 C 16.125 477.975,15.975 478.125,16.075 478.425 M380.295 481.064 C 379.473 481.649,378.800 482.279,378.800 482.464 C 378.800 483.113,379.413 482.778,380.756 481.396 C 382.382 479.722,382.282 479.650,380.295 481.064 M19.770 481.881 C 20.321 482.475,20.911 482.823,21.080 482.653 C 21.249 482.484,20.941 482.002,20.394 481.582 C 18.947 480.470,18.611 480.631,19.770 481.881 M377.500 483.232 C 376.748 483.670,376.552 484.400,377.186 484.400 C 377.398 484.400,377.765 484.040,378.000 483.600 C 378.487 482.690,378.462 482.672,377.500 483.232 M22.092 483.675 C 22.291 484.273,23.200 484.602,23.200 484.076 C 23.200 483.861,22.915 483.576,22.567 483.443 C 22.177 483.293,21.994 483.382,22.092 483.675 M24.243 485.367 C 24.376 485.715,24.661 486.000,24.876 486.000 C 25.402 486.000,25.073 485.091,24.475 484.892 C 24.182 484.794,24.093 484.977,24.243 485.367 M25.692 486.075 C 25.891 486.673,26.800 487.002,26.800 486.476 C 26.800 486.261,26.515 485.976,26.167 485.843 C 25.777 485.693,25.594 485.782,25.692 486.075 M372.701 486.543 C 371.251 487.372,370.776 488.000,371.600 488.000 C 371.820 488.000,372.000 487.842,372.000 487.649 C 372.000 487.455,372.540 487.073,373.200 486.800 C 373.860 486.527,374.400 486.145,374.400 485.951 C 374.400 485.758,374.355 485.620,374.300 485.643 C 374.245 485.667,373.525 486.072,372.701 486.543 M28.084 487.651 C 28.167 487.900,28.947 488.385,29.817 488.730 C 30.688 489.075,31.638 489.592,31.929 489.879 C 32.550 490.491,33.762 490.586,33.396 489.993 C 33.258 489.770,32.977 489.691,32.772 489.817 C 32.568 489.944,32.400 489.869,32.400 489.651 C 32.400 489.432,31.995 489.128,31.500 488.974 C 31.005 488.821,30.122 488.359,29.538 487.948 C 28.326 487.094,27.867 487.001,28.084 487.651 M368.300 488.920 C 367.112 489.389,366.829 490.000,367.800 490.000 C 368.130 490.000,368.400 489.820,368.400 489.600 C 368.400 489.380,368.659 489.200,368.976 489.200 C 369.293 489.200,369.664 489.020,369.800 488.800 C 370.098 488.318,369.755 488.345,368.300 488.920 M357.600 493.200 C 357.600 493.420,357.870 493.600,358.200 493.600 C 358.530 493.600,358.800 493.420,358.800 493.200 C 358.800 492.980,358.530 492.800,358.200 492.800 C 357.870 492.800,357.600 492.980,357.600 493.200 M127.300 495.100 C 167.285 495.156,232.715 495.156,272.700 495.100 C 312.685 495.044,279.970 494.998,200.000 494.998 C 120.030 494.998,87.315 495.044,127.300 495.100 " stroke="none" fill="#c7c7c7" fill-rule="evenodd"></path><path id="path1" d="M51.600 0.456 C 43.923 1.717,41.755 2.127,41.400 2.385 C 41.180 2.545,40.100 2.918,39.000 3.213 C 21.839 7.826,5.578 26.348,1.789 45.600 C 1.507 47.030,1.249 48.200,1.216 48.200 C 0.536 48.200,0.689 444.456,1.370 448.179 C 1.730 450.147,1.941 451.978,1.838 452.246 C 1.735 452.514,1.866 452.816,2.129 452.917 C 2.392 453.018,2.836 453.978,3.116 455.051 C 5.458 464.035,14.221 476.777,22.201 482.803 C 25.718 485.459,33.692 489.912,36.021 490.521 C 36.494 490.645,36.790 490.893,36.680 491.073 C 36.569 491.253,36.956 491.422,37.539 491.448 C 39.027 491.516,43.244 492.803,43.047 493.130 C 42.958 493.278,43.787 493.434,44.889 493.475 C 45.991 493.516,47.187 493.667,47.546 493.809 C 48.773 494.294,52.753 494.307,200.200 494.292 C 351.709 494.277,350.909 494.280,352.107 493.795 C 352.495 493.638,353.260 493.595,353.807 493.699 C 354.353 493.804,354.800 493.754,354.800 493.590 C 354.800 493.425,355.295 493.194,355.900 493.076 C 357.434 492.776,362.435 491.286,363.400 490.842 C 363.840 490.639,365.441 489.914,366.957 489.231 C 377.233 484.601,386.665 475.787,392.553 465.314 C 393.569 463.507,394.400 461.937,394.400 461.826 C 394.400 461.715,394.828 460.673,395.351 459.512 C 395.874 458.350,396.543 456.434,396.838 455.254 C 397.133 454.074,397.594 453.024,397.862 452.921 C 398.130 452.818,398.265 452.514,398.162 452.246 C 398.059 451.978,398.286 450.147,398.665 448.179 C 399.309 444.837,399.364 434.780,399.482 296.600 L 399.608 148.600 325.304 74.301 L 251.000 0.001 152.400 0.048 C 95.868 0.075,52.861 0.249,51.600 0.456 M313.300 86.300 L 382.400 155.399 382.400 299.033 C 382.400 378.031,382.292 442.775,382.160 442.907 C 382.028 443.039,381.868 443.924,381.806 444.874 C 381.210 453.930,372.183 467.154,363.406 471.829 C 362.963 472.065,362.240 472.460,361.800 472.708 C 359.369 474.073,356.599 475.208,356.133 475.030 C 355.840 474.917,355.600 475.020,355.600 475.259 C 355.600 475.498,355.240 475.599,354.800 475.484 C 354.360 475.369,354.000 475.394,354.000 475.540 C 354.000 476.070,350.529 476.934,347.600 477.133 C 341.526 477.547,55.497 477.612,55.001 477.201 C 54.726 476.972,53.719 476.909,52.664 477.053 C 51.511 477.211,50.606 477.137,50.269 476.857 C 49.970 476.610,49.624 476.509,49.499 476.634 C 48.675 477.459,39.338 473.732,35.015 470.854 C 28.574 466.565,19.600 454.898,19.600 450.812 C 19.600 450.601,19.307 449.567,18.950 448.514 C 18.592 447.461,18.249 445.880,18.187 445.000 C 18.126 444.120,17.967 443.130,17.835 442.800 C 17.293 441.449,17.846 50.542,18.390 50.206 C 18.623 50.062,18.717 49.790,18.600 49.600 C 17.349 47.576,23.517 34.941,28.218 29.897 C 33.923 23.776,46.258 16.939,49.414 18.150 C 49.736 18.274,50.000 18.178,50.000 17.937 C 50.000 17.652,50.700 17.565,52.000 17.690 C 53.100 17.796,54.000 17.729,54.000 17.541 C 54.000 17.354,96.795 17.200,149.100 17.200 L 244.199 17.200 313.300 86.300 M215.299 104.000 L 215.400 184.200 295.300 184.301 C 339.245 184.357,375.200 184.266,375.200 184.101 C 375.200 183.935,339.200 147.799,295.199 103.800 L 215.198 23.800 215.299 104.000 M283.459 116.100 C 311.255 143.875,333.997 166.735,333.998 166.900 C 333.999 167.065,311.140 167.200,283.200 167.200 L 232.400 167.200 232.400 116.400 C 232.400 88.460,232.518 65.600,232.661 65.600 C 232.805 65.600,255.664 88.325,283.459 116.100 M96.000 271.400 L 96.000 304.000 200.000 304.000 L 304.000 304.000 304.000 271.400 L 304.000 238.800 200.000 238.800 L 96.000 238.800 96.000 271.400 M287.000 271.200 L 287.000 286.200 200.100 286.301 L 113.200 286.402 113.200 271.200 L 113.200 255.998 200.100 256.099 L 287.000 256.200 287.000 271.200 M96.000 367.000 L 96.000 399.600 200.000 399.600 L 304.000 399.600 304.000 367.000 L 304.000 334.400 200.000 334.400 L 96.000 334.400 96.000 367.000 M287.004 352.100 C 287.124 352.595,287.173 359.480,287.112 367.400 L 287.000 381.800 200.100 381.901 L 113.200 382.002 113.200 366.601 L 113.200 351.200 199.992 351.200 L 286.785 351.200 287.004 352.100 " stroke="none" fill="#040404" fill-rule="evenodd"></path><path id="path2" d="M321.400 70.400 C 360.120 109.120,391.889 140.800,391.999 140.800 C 392.109 140.800,360.520 109.120,321.800 70.400 C 283.080 31.680,251.311 -0.000,251.201 -0.000 C 251.091 -0.000,282.680 31.680,321.400 70.400 M47.646 0.763 C 47.307 0.978,47.851 1.032,49.046 0.904 C 50.121 0.788,51.075 0.628,51.167 0.547 C 51.529 0.228,48.165 0.435,47.646 0.763 M41.200 1.933 C 41.200 2.190,40.851 2.400,40.424 2.400 C 39.997 2.400,39.552 2.554,39.436 2.742 C 39.319 2.930,39.671 2.999,40.218 2.894 C 41.256 2.696,41.851 2.118,41.440 1.707 C 41.308 1.575,41.200 1.677,41.200 1.933 M54.000 17.602 C 54.000 17.871,85.634 18.002,149.273 17.998 L 244.546 17.990 245.773 19.094 C 246.846 20.060,246.827 20.010,245.622 18.699 L 244.243 17.200 149.122 17.200 C 85.589 17.200,54.000 17.334,54.000 17.602 M47.200 18.400 C 46.376 18.664,46.341 18.726,47.000 18.754 C 47.440 18.773,48.070 18.613,48.400 18.400 C 49.101 17.947,48.614 17.947,47.200 18.400 M257.400 30.800 C 263.117 36.520,267.884 41.200,267.994 41.200 C 268.104 41.200,263.517 36.520,257.800 30.800 C 252.083 25.080,247.316 20.400,247.206 20.400 C 247.096 20.400,251.683 25.080,257.400 30.800 M8.200 28.000 C 7.859 28.660,7.669 29.200,7.779 29.200 C 7.889 29.200,8.259 28.660,8.600 28.000 C 8.941 27.340,9.131 26.800,9.021 26.800 C 8.911 26.800,8.541 27.340,8.200 28.000 M4.304 35.788 C 4.201 36.331,4.248 36.694,4.410 36.594 C 4.840 36.328,5.180 34.800,4.809 34.800 C 4.635 34.800,4.408 35.245,4.304 35.788 M272.800 46.200 C 275.323 48.730,277.477 50.800,277.587 50.800 C 277.697 50.800,275.723 48.730,273.200 46.200 C 270.677 43.670,268.523 41.600,268.413 41.600 C 268.303 41.600,270.277 43.670,272.800 46.200 M0.854 50.600 C 0.819 51.040,0.689 51.850,0.567 52.400 C 0.375 53.263,0.407 53.303,0.798 52.690 C 1.047 52.299,1.177 51.489,1.086 50.890 C 0.978 50.179,0.897 50.079,0.854 50.600 M282.400 55.800 C 284.923 58.330,287.077 60.400,287.187 60.400 C 287.297 60.400,285.323 58.330,282.800 55.800 C 280.277 53.270,278.123 51.200,278.013 51.200 C 277.903 51.200,279.877 53.270,282.400 55.800 M17.905 55.200 C 17.743 55.750,17.638 105.340,17.672 165.400 L 17.733 274.600 18.061 173.800 C 18.405 67.987,18.386 53.569,17.905 55.200 M0.598 211.800 C 0.598 297.380,0.644 332.330,0.700 289.467 C 0.756 246.605,0.756 176.585,0.700 133.867 C 0.644 91.150,0.598 126.220,0.598 211.800 M291.800 65.200 C 293.106 66.520,294.265 67.600,294.375 67.600 C 294.485 67.600,293.506 66.520,292.200 65.200 C 290.894 63.880,289.735 62.800,289.625 62.800 C 289.515 62.800,290.494 63.880,291.800 65.200 M232.434 116.400 C 232.420 149.464,232.549 167.189,232.800 166.800 C 233.289 166.043,233.289 67.339,232.800 66.200 C 232.606 65.748,232.447 87.585,232.434 116.400 M238.200 71.200 C 239.059 72.080,239.852 72.800,239.962 72.800 C 240.072 72.800,239.459 72.080,238.600 71.200 C 237.741 70.320,236.948 69.600,236.838 69.600 C 236.728 69.600,237.341 70.320,238.200 71.200 M303.000 76.400 C 304.971 78.380,306.673 80.000,306.783 80.000 C 306.893 80.000,305.371 78.380,303.400 76.400 C 301.429 74.420,299.727 72.800,299.617 72.800 C 299.507 72.800,301.029 74.420,303.000 76.400 M271.400 80.000 C 272.259 80.880,273.052 81.600,273.162 81.600 C 273.272 81.600,272.659 80.880,271.800 80.000 C 270.941 79.120,270.148 78.400,270.038 78.400 C 269.928 78.400,270.541 79.120,271.400 80.000 M248.800 81.800 C 250.217 83.230,251.467 84.400,251.577 84.400 C 251.687 84.400,250.617 83.230,249.200 81.800 C 247.783 80.370,246.533 79.200,246.423 79.200 C 246.313 79.200,247.383 80.370,248.800 81.800 M281.400 90.000 C 282.259 90.880,283.052 91.600,283.162 91.600 C 283.272 91.600,282.659 90.880,281.800 90.000 C 280.941 89.120,280.148 88.400,280.038 88.400 C 279.928 88.400,280.541 89.120,281.400 90.000 M259.400 92.400 C 260.259 93.280,261.052 94.000,261.162 94.000 C 261.272 94.000,260.659 93.280,259.800 92.400 C 258.941 91.520,258.148 90.800,258.038 90.800 C 257.928 90.800,258.541 91.520,259.400 92.400 M285.000 93.600 C 285.859 94.480,286.652 95.200,286.762 95.200 C 286.872 95.200,286.259 94.480,285.400 93.600 C 284.541 92.720,283.748 92.000,283.638 92.000 C 283.528 92.000,284.141 92.720,285.000 93.600 M294.794 103.300 C 297.761 106.325,300.236 108.800,300.294 108.800 C 300.581 108.800,300.009 108.206,294.900 103.194 L 289.400 97.800 294.794 103.300 M270.000 103.000 C 271.417 104.430,272.667 105.600,272.777 105.600 C 272.887 105.600,271.817 104.430,270.400 103.000 C 268.983 101.570,267.733 100.400,267.623 100.400 C 267.513 100.400,268.583 101.570,270.000 103.000 M338.001 146.600 C 358.570 167.280,375.482 184.148,375.583 184.083 C 375.684 184.019,358.854 167.099,338.184 146.483 L 300.602 109.000 338.001 146.600 M279.600 112.600 C 281.017 114.030,282.267 115.200,282.377 115.200 C 282.487 115.200,281.417 114.030,280.000 112.600 C 278.583 111.170,277.333 110.000,277.223 110.000 C 277.113 110.000,278.183 111.170,279.600 112.600 M290.200 123.200 C 292.171 125.180,293.873 126.800,293.983 126.800 C 294.093 126.800,292.571 125.180,290.600 123.200 C 288.629 121.220,286.927 119.600,286.817 119.600 C 286.707 119.600,288.229 121.220,290.200 123.200 M299.800 132.800 C 301.771 134.780,303.473 136.400,303.583 136.400 C 303.693 136.400,302.171 134.780,300.200 132.800 C 298.229 130.820,296.527 129.200,296.417 129.200 C 296.307 129.200,297.829 130.820,299.800 132.800 M305.583 138.500 C 306.564 139.545,307.419 140.400,307.483 140.400 C 307.784 140.400,307.466 140.041,305.700 138.383 L 303.800 136.600 305.583 138.500 M310.400 143.400 C 311.817 144.830,313.067 146.000,313.177 146.000 C 313.287 146.000,312.217 144.830,310.800 143.400 C 309.383 141.970,308.133 140.800,308.023 140.800 C 307.913 140.800,308.983 141.970,310.400 143.400 M393.800 142.800 C 394.659 143.680,395.452 144.400,395.562 144.400 C 395.672 144.400,395.059 143.680,394.200 142.800 C 393.341 141.920,392.548 141.200,392.438 141.200 C 392.328 141.200,392.941 141.920,393.800 142.800 M397.583 146.500 C 398.564 147.545,399.419 148.400,399.483 148.400 C 399.784 148.400,399.466 148.041,397.700 146.383 L 395.800 144.600 397.583 146.500 M315.183 148.100 C 316.841 149.866,317.200 150.184,317.200 149.883 C 317.200 149.819,316.345 148.964,315.300 147.983 L 313.400 146.200 315.183 148.100 M321.000 154.000 C 322.971 155.980,324.673 157.600,324.783 157.600 C 324.893 157.600,323.371 155.980,321.400 154.000 C 319.429 152.020,317.727 150.400,317.617 150.400 C 317.507 150.400,319.029 152.020,321.000 154.000 M329.409 162.400 C 331.824 164.930,333.882 166.948,333.982 166.884 C 334.082 166.821,332.106 164.751,329.591 162.284 L 325.017 157.800 329.409 162.400 M286.981 271.200 C 286.981 279.450,287.034 282.825,287.099 278.700 C 287.164 274.575,287.164 267.825,287.099 263.700 C 287.034 259.575,286.981 262.950,286.981 271.200 M156.700 286.300 C 180.515 286.357,219.485 286.357,243.300 286.300 C 267.115 286.243,247.630 286.196,200.000 286.196 C 152.370 286.196,132.885 286.243,156.700 286.300 M147.900 334.300 C 176.555 334.357,223.445 334.357,252.100 334.300 C 280.755 334.243,257.310 334.197,200.000 334.197 C 142.690 334.197,119.245 334.243,147.900 334.300 M156.500 351.500 C 180.425 351.557,219.575 351.557,243.500 351.500 C 267.425 351.443,247.850 351.396,200.000 351.396 C 152.150 351.396,132.575 351.443,156.500 351.500 M286.895 366.600 L 286.800 381.400 200.569 381.297 C 145.005 381.231,114.101 381.333,113.669 381.585 C 113.232 381.840,143.176 381.980,199.913 381.988 C 269.244 381.998,286.864 381.899,287.018 381.498 C 287.124 381.222,287.161 374.427,287.100 366.398 L 286.990 351.800 286.895 366.600 M0.514 441.800 C 0.517 442.900,0.595 443.303,0.687 442.695 C 0.779 442.086,0.777 441.186,0.682 440.695 C 0.587 440.203,0.511 440.700,0.514 441.800 M17.628 441.676 C 17.613 442.268,17.780 442.864,18.000 443.000 C 18.478 443.295,18.478 442.511,18.000 441.400 C 17.693 440.686,17.653 440.715,17.628 441.676 M381.888 441.733 C 381.442 442.866,381.515 443.445,382.038 442.922 C 382.278 442.682,382.408 442.151,382.326 441.742 C 382.182 441.026,382.166 441.026,381.888 441.733 M0.644 445.400 C 0.973 446.871,1.202 447.190,1.194 446.167 C 1.191 445.745,1.005 445.130,0.782 444.800 C 0.485 444.362,0.448 444.524,0.644 445.400 M18.262 445.800 C 18.396 446.680,18.572 447.475,18.653 447.567 C 18.956 447.910,18.729 445.768,18.381 445.000 C 18.129 444.442,18.093 444.685,18.262 445.800 M399.049 445.015 C 398.912 445.373,398.815 445.966,398.834 446.333 C 398.853 446.700,399.027 446.469,399.221 445.820 C 399.598 444.558,399.465 443.933,399.049 445.015 M381.449 445.415 C 381.312 445.773,381.218 446.456,381.241 446.933 C 381.267 447.481,381.403 447.286,381.610 446.403 C 381.960 444.916,381.865 444.333,381.449 445.415 M19.600 450.874 C 19.600 451.003,19.879 451.714,20.220 452.454 C 20.837 453.795,20.839 453.796,20.591 452.600 C 20.377 451.564,19.600 450.211,19.600 450.874 M379.179 453.055 C 378.958 453.636,378.852 454.185,378.943 454.276 C 379.033 454.367,379.299 453.892,379.533 453.220 C 380.053 451.728,379.739 451.582,379.179 453.055 M1.990 453.063 C 2.216 453.175,2.400 453.601,2.400 454.010 C 2.400 454.418,2.565 454.855,2.766 454.979 C 2.979 455.110,3.012 454.754,2.844 454.129 C 2.686 453.537,2.337 453.009,2.068 452.956 C 1.800 452.903,1.764 452.952,1.990 453.063 M397.423 453.300 C 397.339 453.575,397.084 454.385,396.856 455.100 C 396.628 455.815,396.592 456.400,396.776 456.400 C 396.960 456.400,397.238 455.725,397.392 454.901 C 397.547 454.076,397.882 453.269,398.137 453.107 C 398.473 452.893,398.460 452.811,398.087 452.806 C 397.806 452.803,397.506 453.025,397.423 453.300 M4.218 459.300 C 4.368 459.795,4.655 460.376,4.856 460.591 C 5.057 460.806,5.019 460.401,4.772 459.691 C 4.265 458.238,3.797 457.908,4.218 459.300 M28.783 465.730 C 29.764 466.759,30.627 467.600,30.702 467.600 C 31.036 467.600,29.349 465.707,28.233 464.830 C 27.415 464.187,27.601 464.490,28.783 465.730 M370.581 466.100 L 369.000 467.800 370.700 466.219 C 372.281 464.748,372.584 464.400,372.281 464.400 C 372.216 464.400,371.451 465.165,370.581 466.100 M358.000 473.872 C 358.000 474.095,357.595 474.473,357.100 474.712 C 356.605 474.951,356.391 475.158,356.624 475.173 C 357.296 475.216,358.630 474.096,358.299 473.766 C 358.135 473.601,358.000 473.649,358.000 473.872 M351.600 476.000 C 351.600 476.220,351.105 476.413,350.500 476.428 C 349.895 476.444,349.040 476.626,348.600 476.832 C 347.781 477.218,350.169 477.001,351.700 476.552 C 352.443 476.333,352.675 475.600,352.000 475.600 C 351.780 475.600,351.600 475.780,351.600 476.000 M16.600 478.000 C 17.683 479.100,18.660 480.000,18.770 480.000 C 18.880 480.000,18.083 479.100,17.000 478.000 C 15.917 476.900,14.940 476.000,14.830 476.000 C 14.720 476.000,15.517 476.900,16.600 478.000 M50.200 476.800 C 50.336 477.020,50.842 477.187,51.324 477.172 C 52.169 477.145,52.171 477.131,51.400 476.800 C 50.299 476.327,49.908 476.327,50.200 476.800 M55.000 477.200 C 55.336 477.743,343.959 477.743,344.800 477.200 C 345.188 476.949,294.046 476.810,200.076 476.806 C 103.294 476.802,54.835 476.934,55.000 477.200 M382.581 478.500 L 381.000 480.200 382.700 478.619 C 383.635 477.749,384.400 476.984,384.400 476.919 C 384.400 476.616,384.052 476.919,382.581 478.500 M378.200 482.260 C 376.995 483.336,376.905 483.485,377.836 482.863 C 378.941 482.124,380.332 480.776,379.949 480.815 C 379.867 480.823,379.080 481.473,378.200 482.260 M40.400 492.382 C 40.730 492.605,41.315 492.791,41.700 492.794 C 42.085 492.797,42.400 492.991,42.400 493.224 C 42.400 493.457,42.603 493.522,42.851 493.368 C 43.401 493.029,42.743 492.628,41.000 492.242 C 40.123 492.047,39.961 492.085,40.400 492.382 M358.200 492.400 C 357.429 492.731,357.431 492.745,358.276 492.772 C 358.758 492.787,359.264 492.620,359.400 492.400 C 359.692 491.927,359.301 491.927,358.200 492.400 M50.400 494.400 C 50.950 494.576,51.760 494.726,52.200 494.732 L 53.000 494.744 52.200 494.400 C 51.760 494.211,50.950 494.062,50.400 494.068 L 49.400 494.080 50.400 494.400 M347.800 494.419 C 347.242 494.671,347.485 494.707,348.600 494.538 C 349.480 494.404,350.275 494.228,350.367 494.147 C 350.710 493.844,348.568 494.071,347.800 494.419 M127.500 494.700 C 167.375 494.756,232.625 494.756,272.500 494.700 C 312.375 494.644,279.750 494.598,200.000 494.598 C 120.250 494.598,87.625 494.644,127.500 494.700 " stroke="none" fill="#585858" fill-rule="evenodd"></path><path id="path3" d="M18.190 162.600 C 18.191 179.980,18.240 187.032,18.300 178.270 C 18.360 169.509,18.360 155.289,18.300 146.670 C 18.240 138.052,18.190 145.220,18.190 162.600 M215.200 184.800 C 215.200 185.065,242.200 185.200,295.400 185.200 C 348.600 185.200,375.600 185.065,375.600 184.800 C 375.600 184.535,348.600 184.400,295.400 184.400 C 242.200 184.400,215.200 184.535,215.200 184.800 M304.191 271.200 C 304.191 288.910,304.240 296.155,304.300 287.300 C 304.360 278.445,304.360 263.955,304.300 255.100 C 304.240 246.245,304.191 253.490,304.191 271.200 M17.794 322.000 C 17.794 348.290,17.841 359.045,17.900 345.900 C 17.958 332.755,17.958 311.245,17.900 298.100 C 17.841 284.955,17.794 295.710,17.794 322.000 M304.191 366.400 C 304.191 384.110,304.240 391.355,304.300 382.500 C 304.360 373.645,304.360 359.155,304.300 350.300 C 304.240 341.445,304.191 348.690,304.191 366.400 " stroke="none" fill="#747474" fill-rule="evenodd"></path><path id="path4" d="M20.372 12.900 C 20.053 13.175,19.346 13.940,18.801 14.600 C 18.094 15.457,18.295 15.348,19.505 14.219 C 20.437 13.349,21.200 12.584,21.200 12.519 C 21.200 12.289,20.947 12.405,20.372 12.900 M26.562 32.058 C 25.804 32.912,25.805 32.914,26.700 32.444 C 27.195 32.184,27.600 31.798,27.600 31.586 C 27.600 31.018,27.409 31.105,26.562 32.058 M399.798 294.800 C 399.798 375.430,399.844 408.415,399.900 368.100 C 399.956 327.785,399.956 261.815,399.900 221.500 C 399.844 181.185,399.798 214.170,399.798 294.800 M283.000 166.800 L 232.600 167.005 283.100 167.102 C 316.565 167.167,333.600 167.065,333.600 166.800 C 333.600 166.580,333.555 166.444,333.500 166.498 C 333.445 166.551,310.720 166.687,283.000 166.800 M375.606 184.300 C 375.603 184.795,375.780 185.200,376.000 185.200 C 376.501 185.200,376.501 184.776,376.000 184.000 C 375.686 183.515,375.611 183.572,375.606 184.300 M18.195 258.000 C 18.195 293.310,18.242 307.755,18.300 290.100 C 18.358 272.445,18.358 243.555,18.300 225.900 C 18.242 208.245,18.195 222.690,18.195 258.000 M95.700 238.665 C 95.057 238.924,94.958 303.403,95.600 303.800 C 95.865 303.964,96.000 293.071,96.000 271.423 L 96.000 238.798 200.100 238.899 L 304.200 239.000 304.200 271.500 C 304.200 289.375,304.335 304.000,304.500 304.000 C 305.180 304.000,304.848 238.904,304.167 238.643 C 303.410 238.352,96.420 238.374,95.700 238.665 M0.195 381.600 C 0.195 414.490,0.242 427.945,0.300 411.500 C 0.358 395.055,0.358 368.145,0.300 351.700 C 0.242 335.255,0.195 348.710,0.195 381.600 M95.200 367.000 C 95.200 388.467,95.337 399.600,95.600 399.600 C 95.863 399.600,96.000 388.467,96.000 367.000 C 96.000 345.533,95.863 334.400,95.600 334.400 C 95.337 334.400,95.200 345.533,95.200 367.000 M304.400 366.800 C 304.290 384.730,304.245 399.475,304.300 399.567 C 304.733 400.289,304.793 395.467,304.702 366.764 L 304.600 334.200 304.400 366.800 M156.500 351.900 C 180.425 351.957,219.575 351.957,243.500 351.900 C 267.425 351.843,247.850 351.796,200.000 351.796 C 152.150 351.796,132.575 351.843,156.500 351.900 M17.791 404.800 C 17.791 424.270,17.840 432.235,17.900 422.500 C 17.960 412.765,17.960 396.835,17.900 387.100 C 17.840 377.365,17.791 385.330,17.791 404.800 M382.054 438.800 C 382.019 439.350,381.896 440.250,381.783 440.800 L 381.577 441.800 382.007 440.815 C 382.243 440.274,382.365 439.374,382.278 438.815 L 382.120 437.800 382.054 438.800 M27.688 464.213 C 28.286 464.843,28.847 465.277,28.935 465.179 C 29.023 465.080,28.533 464.565,27.847 464.034 L 26.600 463.069 27.688 464.213 M382.600 478.885 C 381.092 480.423,381.261 480.607,382.913 479.225 C 383.561 478.683,384.634 477.152,384.314 477.226 C 384.251 477.241,383.480 477.987,382.600 478.885 M17.600 479.489 C 17.600 479.992,18.743 480.990,19.012 480.721 C 19.118 480.615,18.844 480.202,18.402 479.802 C 17.961 479.403,17.600 479.262,17.600 479.489 " stroke="none" fill="#848484" fill-rule="evenodd"></path></g></svg>