<svg id="svg" version="1.1" xmlns="http://www.w3.org/2000/svg" xmlns:xlink="http://www.w3.org/1999/xlink" width="400" height="400" viewBox="0, 0, 400,400"><g id="svgg"><path id="path0" d="M157.000 4.357 C 63.037 11.693,-0.000 78.608,-0.000 171.018 C 0.000 224.272,20.012 272.643,57.651 310.367 C 130.824 383.706,227.457 409.496,305.408 376.491 C 328.761 366.604,339.703 349.899,338.908 325.349 C 338.654 317.502,337.526 313.599,328.120 288.041 C 314.359 250.650,312.987 243.773,316.544 230.015 C 322.290 207.791,336.533 213.101,353.167 243.667 C 362.098 260.077,371.873 265.229,383.500 259.653 C 392.072 255.543,396.647 248.484,398.470 236.558 C 405.208 192.480,390.740 144.473,357.262 99.820 C 316.329 45.223,259.075 12.236,192.333 4.795 C 186.676 4.165,163.197 3.874,157.000 4.357 M138.968 56.678 C 164.222 63.251,173.213 94.299,155.208 112.754 C 133.927 134.565,97.559 119.903,97.531 89.500 C 97.516 72.165,109.150 58.664,126.500 55.883 C 128.924 55.494,136.205 55.958,138.968 56.678 M245.725 58.951 C 276.218 67.001,280.625 107.918,252.500 121.860 C 237.588 129.251,218.894 124.367,209.880 110.723 C 192.886 85.002,216.301 51.184,245.725 58.951 M79.500 146.965 C 103.283 151.899,114.285 178.765,100.819 199.021 C 88.766 217.151,61.241 218.614,47.333 201.864 C 27.042 177.424,48.641 140.562,79.500 146.965 M131.500 233.985 C 156.352 240.804,164.899 271.302,147.182 289.943 C 129.415 308.637,97.736 300.797,90.535 275.923 C 83.347 251.098,106.708 227.182,131.500 233.985 " stroke="none" fill="#040404" fill-rule="evenodd"></path><path id="path1" d="" stroke="none" fill="#080404" fill-rule="evenodd"></path><path id="path2" d="" stroke="none" fill="#080404" fill-rule="evenodd"></path><path id="path3" d="" stroke="none" fill="#080404" fill-rule="evenodd"></path><path id="path4" d="" stroke="none" fill="#080404" fill-rule="evenodd"></path></g></svg>