<svg id="svg" version="1.1" xmlns="http://www.w3.org/2000/svg" xmlns:xlink="http://www.w3.org/1999/xlink" width="400" height="399.1836734693877" viewBox="0, 0, 400,399.1836734693877"><g id="svgg"><path id="path0" d="M322.156 4.192 C 321.607 4.505,321.337 4.762,321.557 4.762 C 321.776 4.762,322.405 4.505,322.954 4.192 C 323.503 3.878,323.772 3.621,323.553 3.621 C 323.333 3.621,322.705 3.878,322.156 4.192 M365.702 4.544 C 366.108 4.919,372.455 7.972,372.455 7.793 C 372.455 7.571,366.245 4.391,365.811 4.391 C 365.659 4.391,365.610 4.460,365.702 4.544 M318.862 5.616 C 318.039 6.051,317.365 6.495,317.365 6.604 C 317.365 6.782,320.518 5.309,320.925 4.941 C 321.384 4.525,320.185 4.918,318.862 5.616 M372.854 8.133 C 372.854 8.329,375.747 10.352,376.846 10.924 C 377.176 11.095,376.954 10.814,376.353 10.298 C 375.122 9.241,372.854 7.838,372.854 8.133 M310.084 11.409 C 309.265 12.160,308.727 12.769,308.888 12.763 C 309.279 12.747,311.892 10.361,311.713 10.183 C 311.637 10.107,310.904 10.658,310.084 11.409 M340.424 10.662 C 340.920 10.757,341.639 10.753,342.021 10.654 C 342.402 10.554,341.996 10.475,341.118 10.480 C 340.240 10.484,339.927 10.566,340.424 10.662 M379.641 13.063 C 379.641 13.565,380.782 14.561,381.050 14.293 C 381.156 14.187,380.882 13.774,380.442 13.375 C 380.001 12.977,379.641 12.836,379.641 13.063 M362.076 14.172 C 362.625 14.485,363.253 14.742,363.473 14.742 C 363.693 14.742,363.423 14.485,362.874 14.172 C 362.325 13.858,361.697 13.601,361.477 13.601 C 361.257 13.601,361.527 13.858,362.076 14.172 M298.802 22.276 L 292.415 28.935 299.002 22.622 C 302.625 19.150,305.649 16.143,305.722 15.939 C 306.115 14.846,304.587 16.245,298.802 22.276 M383.308 16.392 C 383.404 16.680,383.719 16.995,384.007 17.091 C 384.306 17.191,384.456 17.041,384.356 16.742 C 384.260 16.453,383.946 16.139,383.658 16.043 C 383.358 15.943,383.209 16.093,383.308 16.392 M318.463 17.721 C 317.692 18.307,317.555 18.762,318.150 18.762 C 318.361 18.762,318.727 18.403,318.962 17.964 C 319.460 17.034,319.405 17.007,318.463 17.721 M368.662 17.619 C 368.947 18.361,370.618 19.439,370.381 18.727 C 370.290 18.455,369.818 17.968,369.331 17.645 C 368.593 17.155,368.482 17.150,368.662 17.619 M314.817 20.987 C 313.745 21.974,312.988 22.901,313.135 23.048 C 313.282 23.195,314.336 22.381,315.479 21.238 C 318.019 18.698,317.514 18.506,314.817 20.987 M371.257 19.760 C 371.531 20.090,371.934 20.359,372.154 20.359 C 372.376 20.359,372.333 20.095,372.056 19.760 C 371.783 19.431,371.379 19.162,371.160 19.162 C 370.937 19.162,370.980 19.426,371.257 19.760 M386.663 20.160 C 387.023 20.709,387.508 21.158,387.740 21.158 C 387.973 21.158,387.741 20.709,387.226 20.160 C 386.710 19.611,386.225 19.162,386.149 19.162 C 386.072 19.162,386.304 19.611,386.663 20.160 M373.453 21.557 C 373.850 21.996,374.355 22.355,374.575 22.355 C 374.794 22.355,374.649 21.996,374.251 21.557 C 373.854 21.118,373.349 20.758,373.130 20.758 C 372.910 20.758,373.056 21.118,373.453 21.557 M388.787 22.688 C 389.002 23.090,389.495 23.674,389.883 23.985 C 390.383 24.386,390.323 24.174,389.678 23.253 C 388.692 21.848,388.154 21.506,388.787 22.688 M307.867 27.790 L 304.391 31.229 308.084 27.917 C 310.115 26.096,311.776 24.548,311.776 24.478 C 311.776 24.039,310.958 24.732,307.867 27.790 M378.443 26.216 C 378.443 26.726,379.975 28.142,380.240 27.877 C 380.348 27.769,379.988 27.260,379.440 26.745 C 378.892 26.230,378.443 25.992,378.443 26.216 M392.256 27.745 C 392.855 28.842,393.515 29.920,393.722 30.140 C 394.314 30.765,392.556 27.440,391.822 26.547 C 391.462 26.108,391.657 26.647,392.256 27.745 M394.827 32.392 C 394.818 32.532,395.166 33.430,395.600 34.388 C 396.034 35.345,396.386 35.858,396.382 35.529 C 396.374 34.943,394.860 31.888,394.827 32.392 M295.875 39.169 C 292.729 42.254,290.254 44.878,290.375 44.999 C 290.645 45.269,296.198 39.921,299.482 36.228 C 300.800 34.746,301.815 33.539,301.738 33.546 C 301.660 33.553,299.022 36.084,295.875 39.169 M277.344 43.172 C 272.568 47.970,268.759 51.896,268.880 51.896 C 269.191 51.896,286.399 35.170,286.560 34.711 C 286.919 33.687,285.362 35.117,277.344 43.172 M385.665 36.527 C 385.665 36.747,386.098 37.735,386.627 38.723 C 387.156 39.711,387.589 40.339,387.589 40.120 C 387.589 39.900,387.156 38.912,386.627 37.924 C 386.098 36.936,385.665 36.307,385.665 36.527 M275.646 59.151 C 268.001 66.853,267.244 67.700,271.891 63.346 C 276.827 58.724,285.798 49.501,285.359 49.501 C 285.285 49.501,280.913 53.843,275.646 59.151 M244.466 75.725 C 237.257 82.929,232.073 88.238,232.945 87.525 C 235.923 85.088,258.085 63.143,257.828 62.885 C 257.687 62.744,251.674 68.522,244.466 75.725 M388.651 70.088 C 388.504 70.673,388.461 71.229,388.555 71.323 C 388.649 71.417,388.847 71.016,388.993 70.431 C 389.140 69.846,389.183 69.290,389.089 69.196 C 388.995 69.102,388.798 69.503,388.651 70.088 M394.476 80.057 C 393.807 81.525,393.935 81.838,394.658 80.504 C 394.996 79.880,395.197 79.296,395.106 79.205 C 395.015 79.113,394.731 79.497,394.476 80.057 M234.232 99.976 C 223.089 111.032,213.972 120.214,213.972 120.379 C 213.972 120.545,215.095 119.625,216.467 118.336 C 220.137 114.886,254.975 79.837,254.714 79.857 C 254.591 79.866,245.374 88.920,234.232 99.976 M383.846 81.272 C 383.474 81.840,383.238 82.374,383.322 82.457 C 383.406 82.541,383.790 82.077,384.175 81.425 C 385.036 79.968,384.779 79.849,383.846 81.272 M381.936 83.590 C 381.165 84.175,381.028 84.631,381.623 84.631 C 381.835 84.631,382.200 84.271,382.435 83.832 C 382.933 82.902,382.878 82.875,381.936 83.590 M378.848 86.820 C 378.106 87.586,377.618 88.330,377.762 88.474 C 378.094 88.806,379.045 88.023,380.086 86.562 C 381.205 84.991,380.474 85.143,378.848 86.820 M388.064 89.852 C 386.800 91.562,387.210 91.687,388.555 90.001 C 389.160 89.243,389.501 88.623,389.314 88.623 C 389.126 88.623,388.564 89.176,388.064 89.852 M230.499 89.721 C 230.081 90.105,229.478 90.778,229.158 91.218 C 228.839 91.657,229.244 91.397,230.057 90.640 C 230.871 89.884,231.537 89.210,231.537 89.143 C 231.537 88.880,231.227 89.053,230.499 89.721 M372.484 93.860 C 370.634 95.805,369.212 97.489,369.326 97.602 C 369.439 97.716,371.102 96.101,373.021 94.014 C 374.940 91.927,376.362 90.243,376.179 90.272 C 375.997 90.301,374.334 91.916,372.484 93.860 M383.885 94.411 C 382.843 95.619,382.142 96.607,382.327 96.607 C 382.733 96.607,386.427 92.908,386.427 92.501 C 386.427 91.788,385.638 92.382,383.885 94.411 M375.872 102.959 L 371.904 107.186 376.054 103.109 C 378.336 100.867,380.122 98.965,380.022 98.883 C 379.922 98.800,378.055 100.634,375.872 102.959 M275.449 100.724 C 275.449 100.792,276.016 101.376,276.708 102.021 C 277.930 103.159,277.940 102.713,276.724 101.297 C 276.203 100.691,275.449 100.352,275.449 100.724 M269.920 102.198 C 268.045 103.557,267.790 103.991,269.261 103.321 C 269.810 103.070,270.259 102.721,270.259 102.543 C 270.259 102.366,270.753 101.953,271.357 101.626 C 271.961 101.298,272.257 101.023,272.016 101.014 C 271.774 101.005,270.831 101.538,269.920 102.198 M325.683 141.063 C 304.312 162.441,285.214 181.617,283.243 183.678 C 279.166 187.942,295.354 171.938,325.151 142.245 C 348.763 118.717,365.108 102.196,364.774 102.196 C 364.646 102.196,347.055 119.686,325.683 141.063 M192.814 126.971 C 180.409 139.461,170.177 149.819,170.075 149.990 C 169.906 150.275,174.034 146.205,205.090 115.476 C 215.220 105.452,216.461 104.133,215.669 104.227 C 215.504 104.247,205.220 114.482,192.814 126.971 M264.101 107.443 C 262.648 109.012,261.516 110.352,261.586 110.421 C 261.739 110.575,267.465 105.105,267.465 104.804 C 267.465 104.114,266.436 104.921,264.101 107.443 M244.234 107.685 C 243.019 109.100,243.028 109.546,244.250 108.408 C 244.942 107.763,245.509 107.180,245.509 107.111 C 245.509 106.739,244.755 107.078,244.234 107.685 M246.707 107.385 C 246.707 107.605,246.880 107.784,247.092 107.784 C 247.304 107.784,248.144 108.368,248.960 109.082 C 250.350 110.299,250.399 110.313,249.744 109.309 C 248.737 107.765,246.707 106.479,246.707 107.385 M274.834 109.009 C 274.689 109.243,274.667 109.530,274.784 109.647 C 275.070 109.933,275.848 109.429,275.848 108.958 C 275.848 108.448,275.159 108.482,274.834 109.009 M272.977 111.277 C 271.969 112.451,271.654 113.143,272.294 112.775 C 273.240 112.232,274.251 111.271,274.251 110.916 C 274.251 110.355,273.614 110.536,272.977 111.277 M233.443 118.170 C 226.998 124.390,222.675 129.037,224.579 127.699 C 225.524 127.035,240.978 111.377,240.689 111.377 C 240.575 111.377,237.314 114.434,233.443 118.170 M256.342 115.805 C 254.505 117.564,253.117 119.118,253.257 119.259 C 253.397 119.399,253.743 119.255,254.026 118.938 C 254.309 118.622,255.771 117.061,257.276 115.469 C 260.838 111.700,260.500 111.822,256.342 115.805 M358.710 120.410 C 354.773 124.485,350.731 128.742,349.728 129.868 C 348.725 130.995,352.081 127.722,357.186 122.594 C 362.290 117.466,366.467 113.204,366.467 113.122 C 366.467 112.521,365.001 113.898,358.710 120.410 M269.678 115.279 L 268.146 117.166 269.882 115.483 C 270.837 114.557,271.526 113.708,271.414 113.596 C 271.302 113.484,270.521 114.242,269.678 115.279 M248.722 115.075 L 247.800 116.367 248.929 115.282 C 249.549 114.684,249.964 114.103,249.851 113.989 C 249.737 113.875,249.229 114.364,248.722 115.075 M245.134 119.080 L 243.393 121.158 245.330 119.275 C 246.395 118.240,247.179 117.305,247.071 117.198 C 246.964 117.090,246.092 117.937,245.134 119.080 M264.484 120.901 L 262.501 123.154 264.784 120.972 C 266.039 119.772,267.066 118.739,267.066 118.676 C 267.066 118.212,266.179 118.977,264.484 120.901 M267.465 121.158 C 266.926 121.808,267.055 121.889,268.031 121.514 C 268.379 121.381,268.663 121.111,268.663 120.915 C 268.663 120.363,268.016 120.494,267.465 121.158 M249.377 122.877 C 247.545 124.738,247.165 125.349,247.842 125.349 C 248.263 125.349,251.644 121.372,251.416 121.144 C 251.325 121.052,250.407 121.832,249.377 122.877 M272.269 121.657 C 272.293 122.197,273.866 123.871,274.116 123.622 C 274.429 123.309,273.161 121.357,272.645 121.357 C 272.431 121.357,272.261 121.492,272.269 121.657 M240.251 124.052 C 239.241 125.095,238.191 126.397,237.916 126.946 C 237.642 127.495,237.494 127.854,237.588 127.745 C 237.683 127.635,238.903 126.332,240.301 124.850 C 241.698 123.368,242.671 122.156,242.463 122.156 C 242.256 122.156,241.260 123.009,240.251 124.052 M264.676 123.547 C 263.935 124.312,263.434 125.044,263.563 125.173 C 263.797 125.407,266.667 122.832,266.667 122.389 C 266.667 121.826,265.927 122.257,264.676 123.547 M255.701 129.728 C 253.521 131.916,251.822 133.791,251.925 133.894 C 252.183 134.152,258.474 128.361,259.500 126.919 C 261.074 124.708,259.660 125.754,255.701 129.728 M244.711 128.343 C 243.966 129.112,243.526 129.728,243.734 129.712 C 244.094 129.684,246.560 126.946,246.225 126.946 C 246.137 126.946,245.455 127.575,244.711 128.343 M259.266 129.840 L 257.285 131.936 259.381 129.955 C 261.329 128.114,261.660 127.745,261.362 127.745 C 261.299 127.745,260.356 128.688,259.266 129.840 M271.952 128.537 C 271.202 129.739,271.359 129.996,272.255 129.034 C 273.101 128.127,273.248 127.745,272.751 127.745 C 272.584 127.745,272.225 128.101,271.952 128.537 M232.717 132.223 L 229.798 135.529 232.945 132.450 C 234.675 130.757,235.989 129.269,235.864 129.144 C 235.739 129.019,234.323 130.404,232.717 132.223 M269.331 132.146 C 268.516 133.238,267.930 134.132,268.029 134.132 C 268.356 134.132,271.175 130.523,270.992 130.340 C 270.894 130.242,270.146 131.054,269.331 132.146 M216.751 135.284 C 214.893 137.016,213.499 138.564,213.654 138.725 C 213.808 138.886,214.167 138.758,214.452 138.441 C 214.737 138.124,216.223 136.575,217.754 135.000 C 221.417 131.230,220.962 131.360,216.751 135.284 M254.900 134.322 C 254.026 135.069,253.443 135.811,253.602 135.971 C 253.762 136.130,253.937 136.184,253.992 136.090 C 254.047 135.996,254.711 135.248,255.468 134.427 C 257.169 132.581,256.976 132.546,254.900 134.322 M251.372 138.046 C 250.782 138.662,250.299 139.290,250.299 139.443 C 250.299 140.072,250.964 139.638,252.013 138.323 C 253.344 136.655,252.892 136.459,251.372 138.046 M263.705 138.835 L 262.938 139.920 264.004 138.952 C 265.124 137.935,265.262 137.716,264.770 137.737 C 264.606 137.744,264.126 138.238,263.705 138.835 M223.962 141.417 L 221.025 144.711 224.285 141.526 C 226.078 139.775,227.545 138.293,227.545 138.233 C 227.545 137.658,226.433 138.647,223.962 141.417 M298.403 139.145 C 297.745 139.704,297.565 139.986,298.004 139.771 C 299.186 139.192,300.459 138.151,300.000 138.138 C 299.780 138.133,299.062 138.585,298.403 139.145 M248.772 141.044 C 247.833 142.043,247.680 142.515,248.293 142.515 C 248.507 142.515,248.961 141.976,249.301 141.317 C 250.045 139.879,249.925 139.816,248.772 141.044 M209.469 142.826 C 207.108 145.212,206.234 146.762,208.420 144.685 C 209.684 143.485,212.160 140.519,211.897 140.519 C 211.817 140.519,210.724 141.557,209.469 142.826 M294.803 142.123 C 293.950 142.997,293.432 143.713,293.653 143.713 C 294.170 143.713,296.816 140.994,296.554 140.732 C 296.445 140.623,295.657 141.249,294.803 142.123 M260.515 142.415 L 259.354 143.912 260.815 142.536 C 262.340 141.100,262.470 140.918,261.976 140.918 C 261.811 140.918,261.154 141.592,260.515 142.415 M190.201 143.812 L 188.623 145.509 190.319 143.931 C 191.897 142.463,192.199 142.116,191.897 142.116 C 191.832 142.116,191.069 142.879,190.201 143.812 M246.507 143.713 C 246.107 144.154,245.870 144.606,245.980 144.715 C 246.089 144.825,246.506 144.554,246.906 144.112 C 247.306 143.670,247.543 143.219,247.434 143.109 C 247.324 142.999,246.907 143.271,246.507 143.713 M317.365 162.151 C 306.936 172.708,297.325 182.523,296.008 183.962 C 294.691 185.401,302.813 177.395,314.059 166.172 C 334.571 145.700,337.300 142.896,336.668 142.936 C 336.481 142.948,327.794 151.595,317.365 162.151 M254.535 148.548 C 252.620 150.548,251.110 152.241,251.178 152.309 C 251.364 152.495,258.714 145.556,258.697 145.210 C 258.661 144.453,257.771 145.167,254.535 148.548 M301.771 147.016 C 299.582 149.699,299.290 150.100,299.521 150.100 C 299.878 150.100,303.522 145.704,303.327 145.509 C 303.228 145.410,302.528 146.088,301.771 147.016 M187.400 147.006 L 186.228 148.303 187.525 147.131 C 188.734 146.038,189.006 145.709,188.697 145.709 C 188.629 145.709,188.045 146.292,187.400 147.006 M217.538 148.004 C 214.565 151.212,214.282 151.771,216.766 149.528 C 219.373 147.175,219.927 146.507,219.276 146.507 C 219.083 146.507,218.300 147.181,217.538 148.004 M282.849 153.678 C 278.909 157.622,275.776 160.939,275.886 161.049 C 275.995 161.158,279.398 157.931,283.448 153.878 C 287.497 149.824,290.631 146.507,290.411 146.507 C 290.191 146.507,286.788 149.734,282.849 153.678 M203.992 149.102 C 203.022 150.090,202.319 150.898,202.429 150.898 C 202.538 150.898,203.422 150.090,204.391 149.102 C 205.361 148.114,206.064 147.305,205.955 147.305 C 205.845 147.305,204.962 148.114,203.992 149.102 M150.321 183.519 C 111.356 222.329,103.903 229.801,102.800 231.159 C 102.365 231.696,103.703 230.519,105.774 228.543 C 111.653 222.935,184.799 149.701,184.522 149.701 C 184.386 149.701,168.995 164.919,150.321 183.519 M297.365 152.000 C 295.231 154.380,294.947 154.992,296.805 153.208 C 297.882 152.172,298.670 151.231,298.554 151.116 C 298.439 151.001,297.904 151.399,297.365 152.000 M199.900 153.408 C 198.475 154.629,198.048 155.298,198.703 155.282 C 198.867 155.278,199.596 154.560,200.322 153.685 C 201.909 151.775,201.851 151.737,199.900 153.408 M243.815 153.992 C 244.332 154.486,245.059 154.879,245.431 154.865 C 245.881 154.848,245.776 154.707,245.118 154.445 C 244.574 154.227,243.846 153.835,243.502 153.572 C 243.157 153.309,243.298 153.498,243.815 153.992 M209.997 156.199 L 207.862 158.683 210.200 156.402 C 211.485 155.147,212.446 154.030,212.335 153.919 C 212.224 153.807,211.172 154.834,209.997 156.199 M260.137 154.368 C 260.608 154.460,261.731 155.216,262.632 156.049 C 263.534 156.881,264.271 157.424,264.271 157.255 C 264.271 156.614,260.897 154.094,260.108 154.146 C 259.305 154.199,259.306 154.205,260.137 154.368 M257.660 155.749 L 256.487 157.007 257.784 156.073 C 258.498 155.560,259.082 154.993,259.082 154.815 C 259.082 154.298,258.902 154.416,257.660 155.749 M196.808 156.685 C 196.293 157.233,195.988 157.797,196.129 157.939 C 196.389 158.199,197.966 156.546,197.991 155.988 C 198.012 155.505,197.799 155.630,196.808 156.685 M290.610 159.153 L 287.226 162.618 290.719 159.503 C 293.640 156.899,294.713 155.689,294.103 155.689 C 294.043 155.689,292.471 157.248,290.610 159.153 M246.413 166.449 C 241.854 171.116,238.065 175.093,237.992 175.287 C 237.920 175.481,241.766 171.778,246.538 167.058 C 251.311 162.338,255.100 158.360,254.959 158.219 C 254.818 158.078,250.972 161.781,246.413 166.449 M194.909 158.982 C 194.209 159.859,193.148 162.143,193.347 162.343 C 193.453 162.449,193.651 162.184,193.788 161.754 C 193.924 161.325,194.390 160.565,194.822 160.066 C 195.537 159.242,195.842 158.483,195.458 158.483 C 195.375 158.483,195.128 158.708,194.909 158.982 M205.533 160.778 C 204.054 162.565,203.958 162.952,205.307 161.698 C 206.121 160.941,206.786 160.268,206.786 160.201 C 206.786 159.829,206.032 160.177,205.533 160.778 M261.776 163.461 C 261.392 163.989,261.078 164.545,261.078 164.695 C 261.078 165.116,262.271 164.028,262.710 163.206 C 263.278 162.147,262.597 162.332,261.776 163.461 M202.794 164.271 C 202.794 164.601,202.636 164.870,202.442 164.870 C 202.248 164.870,201.978 165.185,201.843 165.569 C 201.707 165.953,201.492 166.492,201.364 166.766 C 201.236 167.041,201.326 167.265,201.564 167.265 C 201.801 167.265,202.000 167.041,202.005 166.766 C 202.010 166.492,202.365 165.818,202.794 165.269 C 203.667 164.154,203.787 163.673,203.194 163.673 C 202.974 163.673,202.794 163.942,202.794 164.271 M258.483 167.149 C 256.494 169.513,256.468 169.969,258.430 168.081 C 260.167 166.409,260.673 165.631,259.980 165.697 C 259.815 165.713,259.142 166.367,258.483 167.149 M268.153 168.772 C 266.677 170.260,265.469 171.647,265.469 171.854 C 265.469 172.311,270.161 167.750,270.702 166.766 C 271.312 165.657,271.003 165.900,268.153 168.772 M192.147 169.860 C 192.149 171.397,192.221 171.977,192.307 171.149 C 192.394 170.321,192.392 169.063,192.304 168.354 C 192.216 167.646,192.145 168.323,192.147 169.860 M201.065 167.931 C 200.638 168.357,200.758 172.056,201.198 172.056 C 201.417 172.056,201.597 171.068,201.597 169.860 C 201.597 167.640,201.545 167.451,201.065 167.931 M252.295 173.799 L 249.701 176.643 252.495 174.050 C 255.292 171.455,255.846 170.816,255.223 170.907 C 255.040 170.933,253.723 172.235,252.295 173.799 M263.080 174.246 C 262.338 175.011,261.832 175.738,261.955 175.861 C 262.078 175.984,262.755 175.358,263.458 174.470 C 265.030 172.486,264.874 172.394,263.080 174.246 M201.996 174.599 C 201.996 174.957,202.131 175.251,202.295 175.252 C 202.460 175.254,203.022 175.882,203.544 176.649 C 204.419 177.933,205.213 178.467,205.173 177.745 C 205.137 177.078,201.996 173.969,201.996 174.599 M123.823 195.479 C 112.335 207.009,103.044 216.551,103.177 216.683 C 103.433 216.939,145.309 175.263,145.309 174.752 C 145.309 173.987,143.453 175.778,123.823 195.479 M272.627 177.285 L 269.661 180.119 272.559 177.639 C 275.228 175.356,276.132 174.451,275.744 174.451 C 275.661 174.451,274.259 175.726,272.627 177.285 M260.100 177.782 C 258.905 179.349,258.724 180.308,259.900 178.842 C 260.881 177.620,261.572 176.447,261.312 176.447 C 261.205 176.447,260.660 177.048,260.100 177.782 M229.940 183.301 C 224.168 189.380,223.682 190.444,229.258 184.795 C 232.838 181.168,235.192 178.413,234.677 178.455 C 234.597 178.461,232.465 180.642,229.940 183.301 M240.515 186.117 C 233.708 193.018,233.469 193.591,240.049 187.235 C 243.275 184.118,247.784 179.242,247.440 179.242 C 247.361 179.242,244.245 182.336,240.515 186.117 M267.866 181.436 C 267.351 181.984,267.031 182.533,267.154 182.656 C 267.277 182.779,267.769 182.331,268.247 181.660 C 269.300 180.181,269.135 180.084,267.866 181.436 M196.008 181.956 C 196.008 182.376,196.875 183.234,197.299 183.234 C 197.483 183.234,197.441 182.874,197.206 182.435 C 196.784 181.647,196.008 181.336,196.008 181.956 M259.082 182.153 C 259.082 182.496,259.555 183.149,260.134 183.604 C 261.282 184.507,261.876 184.653,261.876 184.032 C 261.876 183.812,261.620 183.633,261.306 183.633 C 260.993 183.633,260.364 183.159,259.909 182.581 C 259.342 181.860,259.082 181.725,259.082 182.153 M210.180 183.633 C 211.037 184.511,211.829 185.230,211.938 185.230 C 212.048 185.230,211.436 184.511,210.579 183.633 C 209.721 182.754,208.930 182.036,208.820 182.036 C 208.710 182.036,209.322 182.754,210.180 183.633 M198.470 184.767 C 198.637 185.189,205.820 192.016,206.096 192.016 C 206.208 192.016,204.609 190.309,202.544 188.224 C 199.056 184.702,198.134 183.919,198.470 184.767 M219.860 198.293 C 220.574 198.381,221.742 198.381,222.455 198.293 C 223.169 198.204,222.585 198.132,221.158 198.132 C 219.731 198.132,219.147 198.204,219.860 198.293 M248.833 231.134 C 236.279 243.761,224.423 255.793,222.485 257.873 C 220.548 259.953,228.663 251.953,240.519 240.096 C 264.833 215.780,272.064 208.430,271.823 208.280 C 271.732 208.222,261.386 218.507,248.833 231.134 M225.449 240.810 C 210.135 256.188,197.605 268.849,197.605 268.945 C 197.605 269.173,195.001 271.730,226.299 240.760 C 251.386 215.936,254.556 212.690,253.593 212.813 C 253.428 212.834,240.763 225.433,225.449 240.810 M85.231 234.431 C 84.393 235.364,82.883 237.026,81.875 238.124 C 80.499 239.623,80.721 239.474,82.766 237.525 C 85.216 235.191,87.344 232.735,86.918 232.735 C 86.828 232.735,86.069 233.498,85.231 234.431 M124.949 275.248 L 158.279 308.580 167.149 299.718 C 172.027 294.843,175.942 290.779,175.850 290.687 C 175.758 290.595,171.773 294.314,166.995 298.952 C 162.216 303.590,158.192 307.385,158.052 307.385 C 157.912 307.385,143.066 292.655,125.062 274.651 C 107.057 256.647,92.167 241.916,91.972 241.916 C 91.778 241.916,106.617 256.916,124.949 275.248 M86.962 251.295 C 86.837 251.419,87.823 252.589,89.153 253.894 C 90.483 255.199,91.662 256.175,91.775 256.063 C 91.887 255.951,90.901 254.781,89.583 253.464 C 88.266 252.146,87.086 251.170,86.962 251.295 M85.130 255.389 C 84.644 256.623,84.310 257.696,84.386 257.773 C 84.463 257.850,84.933 256.912,85.429 255.689 C 85.926 254.465,86.260 253.393,86.172 253.305 C 86.085 253.217,85.615 254.155,85.130 255.389 M114.170 278.360 C 123.281 287.518,130.804 295.010,130.887 295.010 C 131.349 295.010,112.048 275.566,102.372 266.284 C 99.750 263.769,105.059 269.203,114.170 278.360 M70.492 264.528 C 70.158 265.399,70.602 265.804,71.073 265.058 C 71.546 264.312,71.556 263.872,71.101 263.872 C 70.905 263.872,70.631 264.167,70.492 264.528 M69.303 267.700 C 68.982 268.536,68.997 268.663,69.418 268.663 C 69.917 268.663,70.298 267.536,69.885 267.281 C 69.698 267.165,69.436 267.354,69.303 267.700 M76.254 277.944 C 76.259 278.670,76.334 278.728,76.647 278.244 C 77.147 277.470,77.147 277.046,76.647 277.046 C 76.427 277.046,76.250 277.450,76.254 277.944 M75.455 279.940 C 75.460 280.666,75.535 280.724,75.848 280.240 C 76.348 279.466,76.348 279.042,75.848 279.042 C 75.629 279.042,75.452 279.446,75.455 279.940 M178.442 302.075 C 168.013 312.548,160.559 320.140,161.876 318.947 C 166.446 314.807,198.020 283.034,197.564 283.034 C 197.475 283.034,188.870 291.602,178.442 302.075 M61.921 287.470 C 61.675 288.175,61.543 288.822,61.629 288.907 C 61.714 288.993,61.985 288.485,62.231 287.780 C 62.477 287.075,62.608 286.427,62.523 286.342 C 62.438 286.257,62.167 286.764,61.921 287.470 M134.132 298.419 C 134.132 298.638,136.137 300.789,138.588 303.200 C 141.039 305.612,142.490 306.866,141.811 305.988 C 140.176 303.871,134.132 297.914,134.132 298.419 M54.323 306.928 C 54.079 307.383,54.045 307.832,54.245 307.955 C 54.440 308.076,54.703 307.780,54.829 307.298 C 55.135 306.127,54.859 305.925,54.323 306.928 M144.112 309.314 C 144.112 309.497,144.830 310.224,145.709 310.930 C 147.625 312.470,147.739 312.298,146.066 310.393 C 144.875 309.036,144.112 308.615,144.112 309.314 M62.301 314.985 C 62.287 315.323,62.807 316.221,63.457 316.981 C 64.107 317.741,64.646 318.167,64.654 317.926 C 64.663 317.686,64.290 317.147,63.825 316.729 C 63.360 316.310,62.833 315.609,62.653 315.170 C 62.428 314.621,62.318 314.564,62.301 314.985 M142.515 315.569 C 141.966 315.883,141.697 316.139,141.916 316.139 C 142.136 316.139,142.764 315.883,143.313 315.569 C 143.862 315.255,144.132 314.998,143.912 314.998 C 143.693 314.998,143.064 315.255,142.515 315.569 M48.104 319.760 C 47.704 320.202,47.467 320.654,47.576 320.763 C 47.686 320.873,48.103 320.601,48.503 320.160 C 48.903 319.718,49.140 319.267,49.030 319.157 C 48.921 319.047,48.504 319.319,48.104 319.760 M67.370 321.158 C 72.724 327.452,84.510 338.632,85.281 338.148 C 85.692 337.889,85.758 337.759,85.429 337.857 C 85.051 337.970,81.242 334.489,75.081 328.399 C 69.719 323.099,66.249 319.840,67.370 321.158 M126.604 321.713 C 126.227 321.952,126.196 322.139,126.504 322.329 C 126.747 322.479,126.946 322.401,126.946 322.156 C 126.946 321.910,127.113 321.813,127.318 321.939 C 127.522 322.065,127.802 321.986,127.940 321.763 C 128.244 321.271,127.355 321.237,126.604 321.713 M45.579 322.680 C 44.583 323.740,44.403 324.504,45.331 323.734 C 45.938 323.231,46.877 321.756,46.591 321.756 C 46.511 321.756,46.056 322.172,45.579 322.680 M122.555 323.353 C 122.071 323.666,122.128 323.741,122.854 323.746 C 123.348 323.750,123.752 323.573,123.752 323.353 C 123.752 322.853,123.329 322.853,122.555 323.353 M119.373 324.535 C 119.050 324.740,118.889 325.011,119.016 325.137 C 119.331 325.452,120.559 324.951,120.559 324.508 C 120.559 324.053,120.119 324.063,119.373 324.535 M43.243 325.449 C 42.002 326.827,41.642 327.665,42.683 326.751 C 43.519 326.016,44.527 324.551,44.195 324.551 C 44.116 324.551,43.687 324.955,43.243 325.449 M117.764 325.373 C 117.764 325.605,117.585 325.685,117.365 325.549 C 117.146 325.413,116.966 325.492,116.966 325.725 C 116.966 326.215,117.073 326.235,117.931 325.905 C 118.628 325.638,118.795 324.950,118.164 324.950 C 117.944 324.950,117.764 325.140,117.764 325.373 M54.146 327.328 C 53.128 328.417,52.295 329.441,52.295 329.605 C 52.295 329.904,55.226 327.269,56.141 326.148 C 56.560 325.634,56.841 325.794,58.103 327.265 C 58.913 328.208,59.678 328.879,59.802 328.754 C 60.102 328.454,57.055 325.349,56.461 325.349 C 56.206 325.349,55.165 326.240,54.146 327.328 M40.095 329.441 L 38.922 330.739 40.220 329.566 C 41.429 328.473,41.700 328.144,41.392 328.144 C 41.323 328.144,40.740 328.728,40.095 329.441 M105.190 330.353 C 104.191 330.834,104.158 330.890,104.990 330.686 C 106.121 330.410,107.393 329.762,106.786 329.771 C 106.567 329.774,105.848 330.036,105.190 330.353 M133.733 330.938 C 133.733 331.438,134.156 331.438,134.930 330.938 C 135.414 330.625,135.357 330.550,134.631 330.545 C 134.137 330.542,133.733 330.719,133.733 330.938 M50.058 331.838 C 48.130 334.062,47.885 334.591,49.499 333.048 C 50.466 332.122,51.163 331.269,51.047 331.153 C 50.930 331.037,50.485 331.345,50.058 331.838 M37.219 332.547 C 36.502 333.199,36.064 333.733,36.246 333.733 C 36.428 333.733,37.093 333.194,37.725 332.535 C 39.192 331.003,38.908 331.010,37.219 332.547 M33.807 336.050 C 33.217 336.666,32.735 337.294,32.735 337.447 C 32.735 338.076,33.399 337.642,34.448 336.327 C 35.779 334.659,35.327 334.463,33.807 336.050 M45.327 337.235 L 43.795 339.122 45.531 337.439 C 46.485 336.513,47.175 335.664,47.063 335.552 C 46.951 335.441,46.170 336.198,45.327 337.235 M30.744 339.515 C 30.003 340.280,29.514 341.024,29.658 341.168 C 29.921 341.431,31.196 340.130,31.957 338.822 C 32.560 337.786,32.247 337.965,30.744 339.515 M41.301 341.617 L 40.191 343.114 41.652 341.738 C 43.209 340.273,43.314 340.120,42.762 340.120 C 42.568 340.120,41.911 340.793,41.301 341.617 M27.551 343.108 C 26.809 343.873,26.337 344.634,26.502 344.798 C 26.788 345.085,27.913 343.901,28.768 342.415 C 29.363 341.381,29.055 341.556,27.551 343.108 M73.250 344.116 C 72.621 344.772,72.288 345.309,72.510 345.309 C 73.024 345.309,74.853 343.383,74.590 343.120 C 74.482 343.011,73.878 343.460,73.250 344.116 M37.542 345.551 C 36.847 346.342,36.380 347.092,36.504 347.216 C 36.773 347.485,38.637 345.804,39.172 344.810 C 39.825 343.600,38.877 344.030,37.542 345.551 M97.816 344.495 C 97.493 344.700,97.350 344.988,97.498 345.136 C 97.645 345.283,98.057 345.114,98.413 344.758 C 99.115 344.056,98.759 343.899,97.816 344.495 M94.910 345.612 C 94.526 345.697,94.212 345.934,94.212 346.137 C 94.212 346.605,94.644 346.600,95.398 346.123 C 96.115 345.670,95.858 345.401,94.910 345.612 M24.330 347.206 L 22.954 348.703 24.451 347.327 C 25.844 346.046,26.132 345.709,25.827 345.709 C 25.760 345.709,25.086 346.382,24.330 347.206 M69.839 347.156 C 69.008 348.029,68.780 348.440,69.261 348.191 C 70.276 347.666,72.124 345.709,71.605 345.709 C 71.390 345.709,70.595 346.360,69.839 347.156 M92.374 346.707 C 91.792 347.148,91.755 347.282,92.216 347.287 C 93.068 347.296,93.976 346.655,93.515 346.370 C 93.304 346.240,92.791 346.391,92.374 346.707 M34.489 349.004 C 32.561 351.228,32.316 351.756,33.930 350.213 C 34.898 349.288,35.594 348.435,35.478 348.319 C 35.361 348.202,34.916 348.510,34.489 349.004 M66.246 350.372 L 64.870 351.842 66.567 350.538 C 67.500 349.821,68.263 349.160,68.263 349.068 C 68.263 348.557,67.457 349.078,66.246 350.372 M21.163 350.693 C 20.422 351.458,19.893 352.145,19.987 352.220 C 20.082 352.295,20.764 351.669,21.503 350.829 C 23.183 348.920,22.966 348.833,21.163 350.693 M80.624 352.479 C 79.863 353.129,79.432 353.667,79.666 353.676 C 79.899 353.685,80.606 353.154,81.238 352.495 C 82.703 350.965,82.403 350.957,80.624 352.479 M30.349 353.793 L 29.027 355.489 30.561 354.005 C 31.405 353.189,32.000 352.426,31.883 352.309 C 31.766 352.192,31.076 352.860,30.349 353.793 M62.450 353.759 L 61.277 355.023 62.774 353.911 C 64.293 352.784,64.532 352.495,63.947 352.495 C 63.768 352.495,63.095 353.064,62.450 353.759 M17.665 354.325 C 16.951 354.887,16.367 355.514,16.367 355.718 C 16.367 356.438,16.980 356.071,18.081 354.691 C 19.409 353.026,19.364 352.986,17.665 354.325 M77.430 355.273 C 76.670 355.923,76.239 356.462,76.472 356.471 C 76.706 356.480,77.413 355.948,78.044 355.289 C 79.509 353.760,79.210 353.752,77.430 355.273 M58.853 356.942 C 57.967 357.886,57.886 358.084,58.516 357.758 C 59.480 357.261,60.478 356.154,60.207 355.883 C 60.105 355.781,59.496 356.257,58.853 356.942 M26.772 357.807 L 25.800 359.082 27.071 357.909 C 28.395 356.690,28.546 356.472,28.044 356.509 C 27.879 356.521,27.307 357.105,26.772 357.807 M14.441 357.810 C 13.963 358.318,13.573 358.857,13.573 359.008 C 13.573 359.630,14.277 359.206,15.107 358.084 C 16.151 356.671,15.689 356.482,14.441 357.810 M73.852 358.283 C 73.337 358.832,73.094 359.281,73.314 359.281 C 73.533 359.281,74.135 358.832,74.651 358.283 C 75.166 357.735,75.409 357.285,75.189 357.285 C 74.970 357.285,74.368 357.735,73.852 358.283 M55.689 359.681 C 55.062 360.335,54.639 360.960,54.749 361.070 C 54.859 361.179,55.461 360.734,56.088 360.080 C 56.714 359.426,57.137 358.801,57.028 358.691 C 56.918 358.581,56.315 359.027,55.689 359.681 M11.618 361.092 C 10.212 362.693,10.070 363.070,11.078 362.524 C 11.725 362.174,13.444 359.681,13.038 359.681 C 12.939 359.681,12.300 360.316,11.618 361.092 M23.336 361.577 L 22.227 363.074 23.688 361.698 C 25.245 360.233,25.350 360.080,24.798 360.080 C 24.604 360.080,23.947 360.753,23.336 361.577 M53.070 361.776 C 51.936 362.759,50.111 364.987,50.699 364.673 C 51.620 364.179,53.125 362.753,53.544 361.976 C 53.989 361.150,53.857 361.094,53.070 361.776 M67.265 364.072 C 66.639 364.726,66.216 365.351,66.326 365.461 C 66.435 365.571,67.038 365.125,67.665 364.471 C 68.291 363.817,68.714 363.192,68.604 363.082 C 68.495 362.972,67.892 363.418,67.265 364.072 M9.182 364.271 C 8.666 364.820,8.410 365.264,8.613 365.257 C 8.954 365.245,10.600 363.273,10.268 363.273 C 10.186 363.273,9.697 363.723,9.182 364.271 M20.388 364.724 C 19.151 366.297,19.391 366.779,20.758 365.469 C 21.417 364.838,21.956 364.176,21.956 363.997 C 21.956 363.346,21.195 363.699,20.388 364.724 M48.079 366.535 L 46.906 367.801 48.192 366.916 C 49.568 365.968,50.165 365.269,49.599 365.269 C 49.408 365.269,48.724 365.839,48.079 366.535 M63.779 367.254 C 63.062 367.906,62.666 368.445,62.899 368.451 C 63.133 368.458,63.840 367.924,64.471 367.265 C 65.951 365.721,65.473 365.713,63.779 367.254 M17.156 368.563 L 16.197 369.860 17.458 368.862 C 18.698 367.880,19.076 367.265,18.438 367.265 C 18.260 367.265,17.683 367.849,17.156 368.563 M44.486 369.759 L 43.313 371.055 44.511 370.064 C 45.170 369.520,45.879 368.936,46.088 368.768 C 46.323 368.579,46.314 368.463,46.063 368.463 C 45.840 368.463,45.131 369.046,44.486 369.759 M60.664 370.044 C 59.903 370.693,59.472 371.232,59.706 371.241 C 59.939 371.250,60.646 370.719,61.277 370.060 C 62.743 368.530,62.443 368.522,60.664 370.044 M3.992 370.858 C 3.523 371.517,3.229 372.056,3.339 372.056 C 3.449 372.056,3.922 371.517,4.391 370.858 C 4.860 370.200,5.154 369.661,5.044 369.661 C 4.935 369.661,4.461 370.200,3.992 370.858 M41.292 372.521 L 40.120 373.785 41.617 372.673 C 43.135 371.546,43.374 371.257,42.789 371.257 C 42.611 371.257,41.937 371.826,41.292 372.521 M57.208 373.041 C 56.592 373.583,56.281 374.032,56.517 374.039 C 56.753 374.046,57.369 373.603,57.884 373.054 C 59.090 371.771,58.661 371.763,57.208 373.041 M1.178 375.288 C 0.719 376.188,0.412 376.992,0.496 377.076 C 0.579 377.160,1.039 376.424,1.516 375.440 C 2.604 373.201,2.310 373.069,1.178 375.288 M37.892 375.505 C 36.971 376.507,36.967 376.534,37.802 376.100 C 38.729 375.618,39.317 374.912,39.030 374.626 C 38.936 374.531,38.424 374.927,37.892 375.505 M53.862 375.912 L 52.894 376.973 54.192 376.036 C 55.541 375.062,55.714 374.850,55.159 374.850 C 54.978 374.850,54.394 375.328,53.862 375.912 M34.132 378.443 C 33.337 379.273,33.170 379.641,33.588 379.641 C 34.181 379.641,35.928 378.057,35.928 377.519 C 35.928 376.937,35.232 377.295,34.132 378.443 M48.305 380.637 C 47.790 381.185,47.457 381.722,47.565 381.830 C 47.673 381.938,48.158 381.489,48.643 380.833 C 49.717 379.380,49.567 379.293,48.305 380.637 M31.138 381.352 L 30.140 382.621 31.437 381.702 C 32.151 381.197,32.735 380.617,32.735 380.412 C 32.735 379.726,32.144 380.074,31.138 381.352 M45.110 383.433 C 44.594 383.982,44.352 384.431,44.571 384.431 C 44.791 384.431,45.393 383.982,45.908 383.433 C 46.424 382.884,46.666 382.435,46.447 382.435 C 46.227 382.435,45.625 382.884,45.110 383.433 M28.505 383.695 L 27.745 384.555 28.842 383.848 C 29.974 383.120,30.188 382.834,29.603 382.834 C 29.417 382.834,28.923 383.221,28.505 383.695 M25.733 385.939 C 24.389 387.143,24.732 387.036,26.501 385.700 C 27.134 385.222,27.494 384.835,27.299 384.841 C 27.105 384.847,26.400 385.341,25.733 385.939 M42.515 385.629 C 42.118 386.068,41.972 386.427,42.192 386.427 C 42.411 386.427,42.916 386.068,43.313 385.629 C 43.711 385.190,43.856 384.830,43.637 384.830 C 43.417 384.830,42.912 385.190,42.515 385.629 M40.042 387.812 C 39.426 388.354,39.115 388.803,39.352 388.810 C 39.588 388.817,40.203 388.373,40.719 387.824 C 41.924 386.541,41.495 386.533,40.042 387.812 M2.412 390.329 C 2.928 391.267,3.692 392.343,4.108 392.720 C 4.525 393.097,4.203 392.419,3.393 391.214 C 1.531 388.441,1.214 388.155,2.412 390.329 M37.325 390.020 C 36.928 390.459,36.782 390.818,37.002 390.818 C 37.222 390.818,37.726 390.459,38.124 390.020 C 38.521 389.581,38.667 389.222,38.447 389.222 C 38.228 389.222,37.723 389.581,37.325 390.020 " stroke="none" fill="#d4d4d4" fill-rule="evenodd"></path><path id="path1" d="M334.731 1.032 C 323.368 3.030,314.672 7.786,304.902 17.345 C 268.274 53.183,200.085 120.811,141.091 179.809 L 80.785 240.120 78.866 245.309 C 77.810 248.164,76.622 251.218,76.226 252.096 C 75.830 252.974,72.780 260.968,69.448 269.860 C 63.393 286.016,58.356 299.118,57.276 301.521 C 56.961 302.221,55.512 305.848,54.056 309.581 C 52.600 313.313,51.114 316.939,50.754 317.639 C 50.055 318.997,44.326 325.609,25.589 346.681 C 4.714 370.159,1.391 374.443,0.373 379.189 C -1.176 386.411,5.726 396.426,13.514 398.259 C 18.559 399.447,25.646 398.702,28.543 396.680 C 32.365 394.011,60.196 370.127,79.079 353.310 L 82.908 349.900 95.845 345.011 C 102.961 342.322,112.712 338.597,117.515 336.735 C 122.318 334.872,126.389 333.436,126.563 333.543 C 126.736 333.650,126.938 333.577,127.012 333.381 C 127.120 333.093,138.436 328.616,153.892 322.746 C 159.523 320.608,159.232 320.854,175.661 304.312 C 184.341 295.573,222.418 257.255,260.278 219.162 C 394.923 83.685,389.686 89.124,393.859 80.439 C 404.570 58.149,400.614 34.558,383.245 17.143 C 378.265 12.149,368.596 5.586,364.671 4.534 C 364.451 4.475,362.475 3.807,360.279 3.050 C 352.805 0.471,342.535 -0.340,334.731 1.032 M352.575 10.541 C 370.374 12.461,390.641 34.514,391.260 52.636 C 391.533 60.626,390.122 71.856,388.844 71.856 C 388.706 71.856,388.564 72.260,388.529 72.754 C 388.493 73.249,387.476 75.629,386.269 78.044 C 382.610 85.362,380.354 87.693,285.230 182.451 C 249.661 217.882,206.635 260.757,189.617 277.727 C 172.599 294.698,158.497 308.583,158.279 308.583 C 158.061 308.583,142.891 293.591,124.568 275.267 L 91.254 241.951 156.705 176.786 C 305.031 29.108,315.203 19.155,321.196 15.841 C 326.985 12.639,335.009 9.877,336.693 10.506 C 336.931 10.595,337.485 10.538,337.924 10.379 C 338.825 10.052,349.099 10.166,352.575 10.541 M272.504 101.529 C 269.412 103.248,264.129 108.456,249.238 124.468 C 240.801 133.540,240.359 134.280,241.890 136.791 C 244.185 140.554,248.535 137.414,264.105 120.758 C 273.851 110.332,277.046 106.308,277.046 104.455 C 277.046 103.003,276.091 101.397,275.227 101.397 C 274.910 101.397,274.651 101.218,274.651 100.998 C 274.651 100.447,274.293 100.536,272.504 101.529 M245.693 107.443 C 244.242 108.601,221.198 131.757,215.359 137.924 C 195.720 158.667,193.214 161.810,193.214 165.691 C 193.214 166.092,193.073 166.507,192.902 166.612 C 192.401 166.922,193.083 174.069,193.822 176.248 C 195.790 182.048,209.215 195.416,214.770 197.107 C 217.522 197.944,224.193 198.024,226.852 197.252 C 229.298 196.541,235.129 191.270,245.933 180.001 C 260.489 164.819,264.271 160.530,264.271 159.208 C 264.271 158.257,261.085 154.890,260.184 154.890 C 259.266 154.890,251.910 161.919,239.922 174.251 C 233.946 180.399,227.953 186.534,226.604 187.884 L 224.152 190.339 221.956 189.990 C 220.749 189.799,219.132 189.576,218.363 189.494 C 215.891 189.233,214.285 188.047,208.339 182.091 C 201.561 175.301,200.798 174.082,200.798 170.036 C 200.798 164.922,199.174 166.878,231.936 132.527 C 242.501 121.450,250.699 112.364,250.699 111.732 C 250.699 111.300,248.535 109.052,246.876 107.760 C 246.436 107.418,245.904 107.275,245.693 107.443 M267.463 122.444 C 263.362 125.839,248.205 142.640,245.094 147.239 C 242.873 150.522,242.630 151.901,244.038 153.224 C 246.895 155.908,250.964 152.809,263.678 138.270 C 274.075 126.379,275.040 124.405,271.703 121.843 C 270.132 120.636,269.546 120.720,267.463 122.444 M298.962 139.783 C 297.996 140.476,295.839 142.268,294.169 143.766 C 292.499 145.263,291.017 146.403,290.876 146.298 C 290.734 146.193,290.711 146.230,290.824 146.379 C 290.937 146.529,286.306 151.424,280.534 157.258 C 262.504 175.480,258.757 179.851,259.664 181.605 C 260.985 184.158,263.624 184.361,266.578 182.136 C 271.990 178.060,296.590 152.981,302.563 145.452 C 304.835 142.587,304.712 140.423,302.204 139.126 C 300.735 138.367,301.016 138.310,298.962 139.783 M111.588 274.950 C 143.679 306.995,149.249 312.926,148.115 313.844 C 147.197 314.587,135.497 319.247,94.851 335.057 L 84.511 339.079 73.407 327.847 C 67.088 321.456,62.196 316.188,62.054 315.625 C 61.780 314.532,62.943 311.155,68.198 297.778 C 69.961 293.292,73.857 283.244,76.856 275.449 C 84.809 254.778,86.365 251.098,87.150 251.098 C 87.453 251.098,98.450 261.831,111.588 274.950 M61.392 329.280 C 66.088 333.628,74.850 342.763,74.850 343.310 C 74.850 343.820,49.071 366.822,31.850 381.677 C 23.998 388.452,19.285 391.221,17.728 389.976 C 17.488 389.785,17.182 389.738,17.047 389.872 C 16.065 390.855,10.054 385.189,9.257 382.529 C 8.036 378.452,10.343 375.291,31.736 351.729 C 34.810 348.343,38.958 343.727,40.952 341.471 C 46.895 334.750,56.058 324.950,56.399 324.950 C 56.574 324.950,58.821 326.898,61.392 329.280 " stroke="none" fill="#040404" fill-rule="evenodd"></path><path id="path2" d="M342.615 0.286 C 343.219 0.377,344.207 0.377,344.810 0.286 C 345.414 0.194,344.920 0.120,343.713 0.120 C 342.505 0.120,342.011 0.194,342.615 0.286 M366.500 5.340 C 366.909 5.710,370.060 7.181,370.060 7.002 C 370.060 6.775,367.047 5.190,366.616 5.190 C 366.461 5.190,366.409 5.257,366.500 5.340 M317.265 7.015 C 315.773 7.824,315.864 8.162,317.365 7.385 C 318.024 7.045,318.563 6.681,318.563 6.577 C 318.563 6.320,318.520 6.334,317.265 7.015 M337.924 10.364 C 337.455 10.556,338.197 10.605,339.721 10.481 C 341.148 10.366,342.390 10.206,342.482 10.126 C 342.818 9.831,338.697 10.047,337.924 10.364 M346.707 10.178 C 347.722 10.522,350.960 10.664,350.453 10.342 C 350.149 10.150,349.092 10.004,348.104 10.018 C 347.116 10.032,346.487 10.104,346.707 10.178 M353.327 10.925 C 353.418 11.006,354.212 11.181,355.090 11.315 C 356.203 11.484,356.445 11.448,355.888 11.196 C 355.122 10.849,352.984 10.623,353.327 10.925 M305.988 15.170 C 305.852 15.389,305.882 15.569,306.054 15.569 C 306.225 15.569,305.113 16.871,303.582 18.463 L 300.799 21.357 303.872 18.393 C 305.563 16.763,306.855 15.280,306.743 15.100 C 306.476 14.667,306.288 14.684,305.988 15.170 M382.720 15.830 C 382.577 16.062,382.947 16.682,383.542 17.207 C 384.295 17.872,384.429 17.920,383.981 17.365 C 383.627 16.926,383.257 16.306,383.159 15.988 C 383.046 15.622,382.884 15.564,382.720 15.830 M376.647 23.553 C 377.950 24.870,379.107 25.948,379.217 25.948 C 379.326 25.948,378.350 24.870,377.046 23.553 C 375.742 22.236,374.586 21.158,374.476 21.158 C 374.366 21.158,375.343 22.236,376.647 23.553 M311.957 23.224 C 310.635 24.622,310.581 24.735,311.628 23.923 C 312.707 23.085,314.018 21.557,313.657 21.557 C 313.590 21.557,312.825 22.307,311.957 23.224 M390.656 26.048 C 391.466 27.310,392.204 28.343,392.295 28.343 C 392.562 28.343,391.118 26.029,390.110 24.844 C 389.600 24.244,389.845 24.785,390.656 26.048 M393.613 31.138 C 394.061 32.016,394.517 32.735,394.627 32.735 C 394.737 32.735,394.460 32.016,394.012 31.138 C 393.564 30.259,393.108 29.541,392.998 29.541 C 392.888 29.541,393.165 30.259,393.613 31.138 M301.582 33.234 L 299.601 35.329 301.697 33.348 C 303.644 31.508,303.975 31.138,303.678 31.138 C 303.614 31.138,302.671 32.081,301.582 33.234 M287.547 33.699 C 287.590 33.937,287.400 34.087,287.126 34.032 C 286.851 33.977,286.627 34.154,286.627 34.425 C 286.627 34.696,284.516 37.077,281.936 39.715 C 277.717 44.029,277.817 43.950,282.934 38.928 C 289.422 32.560,288.783 33.267,288.046 33.267 C 287.729 33.267,287.504 33.461,287.547 33.699 M387.271 38.922 C 387.279 39.142,387.630 40.040,388.053 40.918 C 388.475 41.796,388.709 42.066,388.572 41.517 C 388.291 40.387,387.250 38.312,387.271 38.922 M286.821 47.605 L 281.637 52.894 286.926 47.710 C 291.840 42.895,292.397 42.315,292.110 42.315 C 292.052 42.315,289.672 44.696,286.821 47.605 M389.465 45.110 C 389.601 45.878,389.874 46.776,390.071 47.106 C 390.496 47.815,390.088 45.745,389.559 44.511 C 389.329 43.972,389.298 44.167,389.465 45.110 M391.018 56.886 C 391.018 58.711,391.150 59.996,391.311 59.742 C 391.473 59.489,391.605 58.204,391.605 56.886 C 391.605 55.569,391.473 54.284,391.311 54.030 C 391.150 53.777,391.018 55.062,391.018 56.886 M257.681 63.573 L 249.701 71.657 257.784 63.676 C 265.295 56.262,266.048 55.489,265.765 55.489 C 265.708 55.489,262.070 59.127,257.681 63.573 M390.647 62.903 C 390.500 63.488,390.470 64.056,390.580 64.166 C 390.690 64.276,390.900 63.887,391.046 63.302 C 391.193 62.717,391.224 62.148,391.114 62.039 C 391.004 61.929,390.794 62.318,390.647 62.903 M263.070 70.958 L 256.088 78.044 263.174 71.062 C 269.757 64.576,270.440 63.872,270.155 63.872 C 270.098 63.872,266.910 67.061,263.070 70.958 M387.425 74.912 C 387.090 75.714,386.908 76.462,387.021 76.575 C 387.133 76.688,387.226 76.682,387.226 76.562 C 387.226 76.443,387.497 75.694,387.830 74.899 C 388.162 74.104,388.344 73.453,388.234 73.453 C 388.124 73.453,387.760 74.109,387.425 74.912 M244.311 76.846 C 243.342 77.834,242.638 78.643,242.748 78.643 C 242.858 78.643,243.741 77.834,244.711 76.846 C 245.680 75.858,246.384 75.050,246.274 75.050 C 246.164 75.050,245.281 75.858,244.311 76.846 M393.096 82.047 C 392.507 83.249,392.109 84.232,392.213 84.232 C 392.482 84.232,394.495 80.191,394.316 80.011 C 394.234 79.930,393.685 80.846,393.096 82.047 M250.488 83.533 L 247.705 86.427 250.599 83.643 C 252.191 82.112,253.493 80.810,253.493 80.749 C 253.493 80.456,253.074 80.845,250.488 83.533 M378.651 88.214 C 378.259 88.648,377.754 88.890,377.530 88.751 C 377.287 88.601,377.245 88.698,377.426 88.990 C 377.684 89.408,379.641 88.140,379.641 87.555 C 379.641 87.259,379.325 87.470,378.651 88.214 M222.576 98.182 C 219.520 101.244,216.872 103.658,216.691 103.546 C 216.510 103.434,216.249 103.668,216.112 104.067 C 215.975 104.465,212.518 108.204,208.431 112.375 C 204.344 116.547,207.152 113.853,214.672 106.389 C 222.191 98.926,228.343 92.773,228.343 92.717 C 228.343 92.437,227.732 93.016,222.576 98.182 M370.252 97.106 L 366.267 101.198 370.359 97.213 C 374.160 93.512,374.633 93.014,374.344 93.014 C 374.285 93.014,372.443 94.855,370.252 97.106 M379.230 98.902 L 376.647 101.597 379.341 99.014 C 381.844 96.614,382.218 96.208,381.925 96.208 C 381.863 96.208,380.651 97.420,379.230 98.902 M277.046 104.215 C 277.046 104.667,277.226 104.926,277.445 104.790 C 277.665 104.655,277.844 104.285,277.844 103.968 C 277.844 103.652,277.665 103.393,277.445 103.393 C 277.226 103.393,277.046 103.763,277.046 104.215 M368.058 110.456 C 365.097 113.463,363.489 115.201,364.484 114.320 C 366.458 112.572,373.871 104.990,373.606 104.990 C 373.516 104.990,371.019 107.450,368.058 110.456 M241.903 110.878 L 239.721 113.174 242.016 110.992 C 244.148 108.965,244.494 108.583,244.198 108.583 C 244.136 108.583,243.103 109.616,241.903 110.878 M260.868 111.876 L 258.084 114.770 260.978 111.987 C 262.570 110.456,263.872 109.153,263.872 109.093 C 263.872 108.800,263.453 109.188,260.868 111.876 M205.387 128.243 C 196.167 137.519,192.673 141.105,197.623 136.212 C 202.573 131.319,206.750 127.412,206.904 127.530 C 207.059 127.648,207.089 127.618,206.971 127.464 C 206.853 127.309,210.310 123.626,214.652 119.280 C 218.995 114.933,222.458 111.377,222.350 111.377 C 222.241 111.377,214.608 118.967,205.387 128.243 M248.478 114.671 L 247.305 115.968 248.603 114.796 C 249.316 114.151,249.900 113.567,249.900 113.498 C 249.900 113.190,249.571 113.461,248.478 114.671 M350.292 117.465 L 346.307 121.557 350.399 117.572 C 352.650 115.381,354.491 113.540,354.491 113.481 C 354.491 113.192,353.993 113.665,350.292 117.465 M245.509 117.964 C 244.539 118.952,243.836 119.760,243.946 119.760 C 244.055 119.760,244.939 118.952,245.908 117.964 C 246.878 116.976,247.581 116.168,247.472 116.168 C 247.362 116.168,246.479 116.976,245.509 117.964 M266.053 118.663 L 264.072 120.758 266.168 118.777 C 268.115 116.937,268.447 116.567,268.149 116.567 C 268.086 116.567,267.142 117.510,266.053 118.663 M254.505 118.549 C 253.881 119.200,253.174 119.620,252.933 119.483 C 252.692 119.346,252.628 119.380,252.791 119.560 C 252.954 119.740,252.887 120.128,252.642 120.422 C 251.678 121.585,252.622 120.863,254.291 119.162 C 255.261 118.174,255.961 117.365,255.846 117.365 C 255.732 117.365,255.128 117.898,254.505 118.549 M241.118 122.754 C 240.148 123.743,239.445 124.551,239.554 124.551 C 239.664 124.551,240.547 123.743,241.517 122.754 C 242.487 121.766,243.190 120.958,243.080 120.958 C 242.971 120.958,242.087 121.766,241.118 122.754 M259.867 125.250 L 257.685 127.545 259.980 125.363 C 261.243 124.163,262.275 123.130,262.275 123.068 C 262.275 122.771,261.894 123.117,259.867 125.250 M247.883 125.649 L 246.507 127.146 248.004 125.770 C 249.397 124.490,249.685 124.152,249.380 124.152 C 249.313 124.152,248.639 124.825,247.883 125.649 M264.671 124.750 C 264.397 125.080,263.896 125.349,263.557 125.349 C 263.218 125.349,263.065 125.473,263.216 125.624 C 263.367 125.776,262.725 126.719,261.788 127.720 C 260.851 128.722,261.296 128.378,262.777 126.958 C 264.258 125.537,265.469 124.324,265.469 124.263 C 265.469 123.991,265.128 124.199,264.671 124.750 M224.925 127.844 L 223.752 129.142 225.050 127.969 C 225.763 127.324,226.347 126.741,226.347 126.672 C 226.347 126.363,226.018 126.635,224.925 127.844 M333.329 134.431 L 327.146 140.719 333.433 134.536 C 339.274 128.792,339.901 128.144,339.616 128.144 C 339.558 128.144,336.729 130.973,333.329 134.431 M233.519 130.838 L 231.337 133.134 233.633 130.952 C 234.895 129.752,235.928 128.719,235.928 128.656 C 235.928 128.360,235.546 128.706,233.519 130.838 M220.946 131.836 L 218.563 134.331 221.058 131.949 C 222.430 130.638,223.553 129.515,223.553 129.454 C 223.553 129.159,223.159 129.519,220.946 131.836 M257.260 132.635 L 256.088 133.932 257.385 132.760 C 258.099 132.115,258.683 131.531,258.683 131.462 C 258.683 131.154,258.353 131.425,257.260 132.635 M251.497 133.533 C 250.527 134.521,249.824 135.329,249.934 135.329 C 250.043 135.329,250.927 134.521,251.896 133.533 C 252.866 132.545,253.569 131.737,253.460 131.737 C 253.350 131.737,252.467 132.545,251.497 133.533 M338.519 140.419 L 329.940 149.102 338.623 140.522 C 346.690 132.551,347.485 131.737,347.202 131.737 C 347.145 131.737,343.238 135.644,338.519 140.419 M240.985 133.599 C 240.511 134.073,240.702 135.556,241.339 136.351 C 241.930 137.088,241.938 137.080,241.501 136.183 C 241.248 135.664,241.124 134.811,241.224 134.287 C 241.420 133.262,241.395 133.189,240.985 133.599 M226.338 138.423 L 222.954 141.916 226.447 138.532 C 228.368 136.670,229.940 135.098,229.940 135.039 C 229.940 134.748,229.482 135.179,226.338 138.423 M264.446 137.425 L 263.273 138.723 264.571 137.550 C 265.284 136.905,265.868 136.321,265.868 136.253 C 265.868 135.944,265.539 136.216,264.446 137.425 M242.659 138.100 C 243.714 139.020,244.235 139.103,245.110 138.491 C 245.576 138.164,245.505 138.129,244.791 138.330 C 244.231 138.488,243.453 138.334,242.795 137.934 L 241.717 137.278 242.659 138.100 M214.170 138.831 C 213.149 139.711,211.379 141.717,211.624 141.717 C 211.726 141.717,212.603 140.908,213.573 139.920 C 215.347 138.112,215.655 137.551,214.170 138.831 M261.652 140.619 L 260.479 141.916 261.776 140.744 C 262.490 140.099,263.074 139.515,263.074 139.446 C 263.074 139.138,262.744 139.409,261.652 140.619 M257.260 145.409 L 256.088 146.707 257.385 145.534 C 258.099 144.889,258.683 144.305,258.683 144.237 C 258.683 143.928,258.353 144.200,257.260 145.409 M206.568 147.006 L 204.990 148.703 206.687 147.125 C 208.264 145.657,208.567 145.309,208.265 145.309 C 208.199 145.309,207.436 146.073,206.568 147.006 M217.943 147.206 L 216.567 148.703 217.990 147.398 C 218.773 146.681,219.565 146.232,219.751 146.400 C 219.936 146.569,219.959 146.482,219.801 146.208 C 219.421 145.547,219.511 145.499,217.943 147.206 M316.960 150.798 L 312.375 155.489 317.066 150.905 C 321.423 146.647,321.938 146.108,321.650 146.108 C 321.592 146.108,319.481 148.219,316.960 150.798 M168.257 152.196 L 163.872 156.687 168.363 152.302 C 170.833 149.891,172.854 147.870,172.854 147.811 C 172.854 147.523,172.329 148.024,168.257 152.196 M299.206 149.297 C 298.577 149.954,298.146 150.574,298.247 150.676 C 298.349 150.778,298.928 150.241,299.533 149.482 C 300.886 147.787,300.734 147.701,299.206 149.297 M242.981 149.967 C 242.389 150.559,242.758 152.408,243.613 153.132 L 244.511 153.892 243.765 153.010 C 243.268 152.422,243.078 151.722,243.197 150.914 C 243.389 149.604,243.381 149.567,242.981 149.967 M201.771 152.196 L 200.599 153.493 201.896 152.321 C 202.610 151.676,203.194 151.092,203.194 151.023 C 203.194 150.715,202.864 150.986,201.771 152.196 M210.966 154.591 L 208.583 157.086 211.078 154.703 C 212.450 153.393,213.573 152.270,213.573 152.208 C 213.573 151.913,213.179 152.273,210.966 154.591 M294.988 153.992 L 293.613 155.489 295.110 154.113 C 296.503 152.833,296.790 152.495,296.485 152.495 C 296.419 152.495,295.745 153.169,294.988 153.992 M177.037 156.587 L 173.852 159.880 177.146 156.696 C 178.957 154.945,180.439 153.463,180.439 153.403 C 180.439 153.111,179.994 153.528,177.037 156.587 M246.507 154.092 L 245.309 154.397 246.384 154.444 C 246.974 154.470,247.569 154.311,247.705 154.092 C 247.840 153.872,247.896 153.714,247.828 153.740 C 247.760 153.766,247.166 153.924,246.507 154.092 M262.903 156.924 C 263.546 157.713,264.152 158.291,264.251 158.209 C 264.350 158.126,263.824 157.480,263.082 156.774 L 261.735 155.489 262.903 156.924 M290.001 159.381 L 288.423 161.078 290.120 159.500 C 291.698 158.032,292.000 157.685,291.698 157.685 C 291.633 157.685,290.869 158.448,290.001 159.381 M253.892 159.880 C 252.923 160.868,252.219 161.677,252.329 161.677 C 252.439 161.677,253.322 160.868,254.291 159.880 C 255.261 158.892,255.965 158.084,255.855 158.084 C 255.745 158.084,254.862 158.892,253.892 159.880 M205.967 159.980 L 204.591 161.477 206.088 160.101 C 207.481 158.821,207.768 158.483,207.464 158.483 C 207.397 158.483,206.723 159.157,205.967 159.980 M124.973 195.386 C 106.215 214.146,90.751 229.423,90.610 229.336 C 90.468 229.248,90.353 229.453,90.353 229.790 C 90.353 230.128,105.862 214.896,124.817 195.941 C 143.772 176.987,159.281 161.433,159.281 161.378 C 159.281 161.099,156.687 163.670,124.973 195.386 M276.647 172.771 L 270.459 178.932 276.747 173.041 C 280.205 169.802,283.034 166.997,283.034 166.809 C 283.034 166.369,283.714 165.734,276.647 172.771 M241.910 171.956 L 236.926 177.046 242.016 172.062 C 246.744 167.432,247.287 166.866,247.000 166.866 C 246.942 166.866,244.651 169.157,241.910 171.956 M269.243 168.563 L 267.665 170.259 269.361 168.681 C 270.939 167.214,271.241 166.866,270.939 166.866 C 270.874 166.866,270.111 167.630,269.243 168.563 M255.264 170.160 L 254.092 171.457 255.389 170.285 C 256.103 169.640,256.687 169.056,256.687 168.987 C 256.687 168.679,256.357 168.950,255.264 170.160 M264.500 173.615 L 263.331 175.050 264.679 173.765 C 265.420 173.059,265.946 172.413,265.848 172.330 C 265.749 172.248,265.143 172.826,264.500 173.615 M302.187 177.146 L 298.802 180.639 302.295 177.254 C 304.217 175.393,305.788 173.821,305.788 173.761 C 305.788 173.471,305.330 173.902,302.187 177.146 M248.494 177.345 L 245.309 180.639 248.603 177.454 C 251.662 174.497,252.078 174.052,251.787 174.052 C 251.727 174.052,250.245 175.534,248.494 177.345 M208.377 182.194 C 211.118 184.961,213.445 187.226,213.548 187.226 C 213.852 187.226,205.061 178.267,204.192 177.692 C 203.752 177.401,205.636 179.427,208.377 182.194 M227.557 186.615 C 224.722 189.464,224.034 189.965,223.175 189.799 L 222.156 189.602 223.134 190.028 C 224.039 190.421,224.383 190.182,227.722 186.843 C 229.708 184.858,231.239 183.234,231.126 183.234 C 231.013 183.234,229.407 184.755,227.557 186.615 M278.643 188.623 C 277.007 190.269,275.759 191.617,275.868 191.617 C 275.978 191.617,277.406 190.269,279.042 188.623 C 280.678 186.976,281.926 185.629,281.816 185.629 C 281.707 185.629,280.278 186.976,278.643 188.623 M277.842 201.495 C 270.049 209.343,265.783 213.702,268.363 211.182 C 270.943 208.662,273.054 206.754,273.054 206.942 C 273.054 207.130,273.321 207.061,273.648 206.790 C 273.975 206.519,274.144 206.137,274.024 205.943 C 273.904 205.748,274.085 205.589,274.428 205.589 C 274.770 205.589,275.050 205.374,275.050 205.111 C 275.050 204.848,278.952 200.716,283.721 195.929 C 288.489 191.142,292.306 187.226,292.201 187.226 C 292.097 187.226,285.635 193.647,277.842 201.495 M205.173 190.519 C 206.152 191.562,207.005 192.415,207.069 192.415 C 207.369 192.415,207.052 192.057,205.289 190.402 L 203.393 188.623 205.173 190.519 M216.966 189.222 C 217.405 189.410,218.034 189.565,218.363 189.565 C 218.741 189.565,218.667 189.438,218.164 189.222 C 217.725 189.033,217.096 188.878,216.766 188.878 C 216.389 188.878,216.463 189.005,216.966 189.222 M219.960 189.603 C 220.289 189.825,220.903 190.010,221.324 190.014 C 222.345 190.022,222.027 189.794,220.559 189.465 C 219.684 189.270,219.523 189.307,219.960 189.603 M232.117 193.713 L 230.539 195.409 232.236 193.831 C 233.813 192.364,234.116 192.016,233.814 192.016 C 233.748 192.016,232.985 192.779,232.117 193.713 M243.512 223.852 L 220.160 247.305 243.613 223.953 C 265.414 202.246,267.245 200.399,266.965 200.399 C 266.909 200.399,256.355 210.953,243.512 223.852 M107.483 225.651 C 98.647 234.489,91.417 241.860,91.417 242.032 C 91.417 242.203,91.983 241.699,92.674 240.912 C 93.365 240.124,94.449 239.212,95.082 238.885 C 95.716 238.557,96.140 238.138,96.025 237.952 C 95.829 237.634,96.972 236.414,97.267 236.627 C 97.343 236.682,97.383 236.615,97.356 236.478 C 97.330 236.342,103.302 230.234,110.628 222.905 C 117.954 215.577,123.858 209.581,123.748 209.581 C 123.639 209.581,116.319 216.812,107.483 225.651 M78.668 244.935 C 78.199 246.187,77.886 247.280,77.971 247.365 C 78.056 247.450,78.504 246.491,78.967 245.235 C 79.430 243.978,79.744 242.884,79.664 242.804 C 79.584 242.725,79.136 243.684,78.668 244.935 M229.730 250.000 L 226.946 252.894 229.840 250.111 C 232.528 247.525,232.917 247.106,232.624 247.106 C 232.563 247.106,231.261 248.408,229.730 250.000 M89.005 252.794 C 89.984 253.837,90.837 254.691,90.901 254.691 C 91.201 254.691,90.884 254.332,89.122 252.678 L 87.226 250.898 89.005 252.794 M83.486 258.337 C 83.014 259.474,82.693 260.471,82.773 260.551 C 82.854 260.632,83.306 259.767,83.779 258.629 C 84.252 257.492,84.573 256.495,84.492 256.415 C 84.412 256.334,83.959 257.199,83.486 258.337 M205.387 274.351 L 191.018 288.822 205.489 274.453 C 218.938 261.098,220.140 259.880,219.858 259.880 C 219.802 259.880,213.290 266.392,205.387 274.351 M100.599 264.072 C 101.344 264.840,102.043 265.469,102.153 265.469 C 102.262 265.469,101.743 264.840,100.998 264.072 C 100.253 263.303,99.554 262.675,99.444 262.675 C 99.334 262.675,99.854 263.303,100.599 264.072 M186.449 280.418 C 183.502 283.370,180.917 285.678,180.704 285.546 C 180.490 285.414,180.431 285.493,180.573 285.721 C 180.714 285.950,180.562 286.359,180.235 286.630 C 179.908 286.902,179.641 286.984,179.641 286.813 C 179.641 286.643,179.289 286.822,178.858 287.211 C 178.428 287.601,178.113 288.123,178.160 288.371 C 178.206 288.619,178.019 288.777,177.745 288.723 C 177.470 288.668,177.290 288.847,177.345 289.122 C 177.400 289.396,177.176 289.561,176.846 289.488 C 176.517 289.415,176.389 289.496,176.562 289.669 C 176.735 289.842,172.693 294.213,167.581 299.383 C 162.468 304.553,165.874 301.238,175.150 292.018 C 184.426 282.797,192.016 275.207,192.016 275.151 C 192.016 274.872,191.416 275.440,186.449 280.418 M117.365 280.838 C 120.103 283.583,122.433 285.828,122.543 285.828 C 122.653 285.828,120.502 283.583,117.764 280.838 C 115.027 278.094,112.697 275.848,112.587 275.848 C 112.477 275.848,114.627 278.094,117.365 280.838 M61.273 290.491 C 60.936 291.298,60.712 292.115,60.775 292.306 C 60.839 292.497,61.194 291.837,61.564 290.838 C 62.369 288.668,62.146 288.402,61.273 290.491 M138.323 302.196 C 139.849 303.733,141.186 304.990,141.296 304.990 C 141.406 304.990,140.248 303.733,138.723 302.196 C 137.197 300.659,135.860 299.401,135.750 299.401 C 135.640 299.401,136.798 300.659,138.323 302.196 M65.536 304.570 C 65.302 305.240,65.196 305.788,65.300 305.788 C 65.570 305.788,66.323 303.715,66.125 303.517 C 66.035 303.427,65.770 303.901,65.536 304.570 M144.511 308.708 C 144.511 308.776,145.095 309.360,145.808 310.005 L 147.106 311.178 145.933 309.880 C 144.840 308.671,144.511 308.399,144.511 308.708 M141.893 316.389 C 141.130 317.000,141.131 317.004,141.916 316.643 C 142.355 316.441,142.984 316.176,143.313 316.054 C 143.831 315.862,143.827 315.827,143.290 315.800 C 142.948 315.783,142.319 316.048,141.893 316.389 M160.644 319.399 C 160.228 319.860,159.347 320.487,158.686 320.793 C 157.700 321.249,157.664 321.307,158.483 321.113 C 159.351 320.908,162.246 318.563,161.631 318.563 C 161.505 318.563,161.060 318.939,160.644 319.399 M74.651 329.142 C 80.027 334.521,84.515 338.922,84.625 338.922 C 84.734 338.922,80.426 334.521,75.050 329.142 C 69.674 323.762,65.186 319.361,65.076 319.361 C 64.966 319.361,69.275 323.762,74.651 329.142 M54.865 326.248 L 53.693 327.545 54.990 326.372 C 56.199 325.279,56.471 324.950,56.163 324.950 C 56.094 324.950,55.510 325.534,54.865 326.248 M65.669 333.733 C 68.076 336.148,70.136 338.124,70.246 338.124 C 70.356 338.124,68.476 336.148,66.068 333.733 C 63.660 331.317,61.600 329.341,61.491 329.341 C 61.381 329.341,63.261 331.317,65.669 333.733 M49.682 331.836 L 48.104 333.533 49.800 331.955 C 51.378 330.487,51.680 330.140,51.378 330.140 C 51.313 330.140,50.550 330.903,49.682 331.836 M100.271 332.594 C 99.103 333.043,98.216 333.478,98.299 333.562 C 98.449 333.712,102.639 332.219,102.961 331.901 C 103.314 331.552,102.310 331.811,100.271 332.594 M44.885 337.026 L 43.713 338.323 45.010 337.151 C 46.219 336.058,46.491 335.729,46.182 335.729 C 46.114 335.729,45.530 336.312,44.885 337.026 M42.091 340.220 L 40.918 341.517 42.216 340.344 C 43.425 339.252,43.696 338.922,43.388 338.922 C 43.319 338.922,42.736 339.506,42.091 340.220 M22.929 349.401 L 21.756 350.699 23.054 349.526 C 23.767 348.881,24.351 348.297,24.351 348.229 C 24.351 347.920,24.022 348.192,22.929 349.401 M66.442 350.998 L 65.269 352.295 66.567 351.123 C 67.776 350.030,68.048 349.701,67.739 349.701 C 67.671 349.701,67.087 350.284,66.442 350.998 M30.913 352.595 L 29.741 353.892 31.038 352.720 C 32.247 351.627,32.519 351.297,32.210 351.297 C 32.142 351.297,31.558 351.881,30.913 352.595 M77.620 354.591 L 76.447 355.888 77.842 354.691 C 78.610 354.032,79.313 353.448,79.406 353.393 C 79.498 353.338,79.398 353.293,79.183 353.293 C 78.968 353.293,78.264 353.877,77.620 354.591 M27.523 356.387 L 26.148 357.884 27.645 356.509 C 29.038 355.228,29.325 354.890,29.020 354.890 C 28.954 354.890,28.280 355.564,27.523 356.387 M73.628 358.184 L 72.455 359.481 73.752 358.309 C 74.962 357.216,75.233 356.886,74.925 356.886 C 74.856 356.886,74.272 357.470,73.628 358.184 M48.877 366.567 L 47.705 367.864 49.002 366.692 C 50.211 365.599,50.483 365.269,50.174 365.269 C 50.106 365.269,49.522 365.853,48.877 366.567 M45.487 369.561 L 44.112 371.058 45.609 369.682 C 47.002 368.402,47.289 368.064,46.984 368.064 C 46.918 368.064,46.244 368.738,45.487 369.561 M61.048 369.162 L 60.080 370.259 61.277 369.261 C 61.936 368.713,62.550 368.219,62.641 368.164 C 62.733 368.109,62.629 368.064,62.412 368.064 C 62.194 368.064,61.580 368.558,61.048 369.162 M42.294 372.355 L 40.918 373.852 42.415 372.477 C 43.809 371.196,44.096 370.858,43.791 370.858 C 43.724 370.858,43.051 371.532,42.294 372.355 M57.854 371.956 L 56.886 373.054 58.084 372.056 C 58.743 371.507,59.356 371.013,59.448 370.958 C 59.539 370.903,59.436 370.858,59.218 370.858 C 59.000 370.858,58.386 371.352,57.854 371.956 M8.782 380.416 C 8.782 381.061,8.930 381.681,9.111 381.793 C 9.292 381.904,9.426 381.377,9.410 380.620 C 9.375 378.950,8.782 378.757,8.782 380.416 M11.959 386.527 C 12.938 387.570,13.792 388.423,13.856 388.423 C 14.155 388.423,13.838 388.065,12.076 386.410 L 10.180 384.631 11.959 386.527 M5.788 394.012 C 6.646 394.890,7.437 395.609,7.547 395.609 C 7.657 395.609,7.045 394.890,6.188 394.012 C 5.330 393.134,4.539 392.415,4.429 392.415 C 4.319 392.415,4.931 393.134,5.788 394.012 M18.463 399.078 C 18.847 399.178,19.476 399.178,19.860 399.078 C 20.245 398.977,19.930 398.895,19.162 398.895 C 18.393 398.895,18.079 398.977,18.463 399.078 " stroke="none" fill="#575757" fill-rule="evenodd"></path><path id="path3" d="M308.379 13.579 C 308.241 13.803,307.975 13.890,307.787 13.774 C 307.600 13.658,307.031 14.147,306.523 14.860 L 305.600 16.157 306.827 15.283 C 308.091 14.383,309.253 13.174,308.855 13.174 C 308.731 13.174,308.517 13.356,308.379 13.579 M384.419 17.942 C 385.047 19.115,385.621 19.307,385.092 18.167 C 384.838 17.620,384.490 17.170,384.317 17.169 C 384.145 17.167,384.191 17.515,384.419 17.942 M294.634 26.923 C 292.569 28.996,290.695 30.658,290.468 30.616 C 290.242 30.573,290.048 30.808,290.038 31.138 C 290.028 31.467,289.840 31.739,289.621 31.743 C 289.218 31.749,287.026 33.798,287.026 34.169 C 287.026 34.634,288.998 32.887,289.009 32.412 C 289.016 32.124,289.169 31.980,289.349 32.091 C 289.529 32.202,291.726 30.237,294.233 27.723 C 296.739 25.210,298.699 23.154,298.588 23.154 C 298.478 23.154,296.698 24.850,294.634 26.923 M280.414 53.992 L 279.242 55.289 280.539 54.117 C 281.252 53.472,281.836 52.888,281.836 52.820 C 281.836 52.511,281.507 52.783,280.414 53.992 M390.933 56.886 C 390.936 57.984,391.013 58.386,391.105 57.779 C 391.197 57.172,391.194 56.274,391.099 55.783 C 391.005 55.292,390.930 55.788,390.933 56.886 M264.250 70.160 L 262.874 71.657 264.371 70.281 C 265.765 69.000,266.052 68.663,265.747 68.663 C 265.680 68.663,265.007 69.336,264.250 70.160 M245.908 88.024 C 244.939 89.012,244.235 89.820,244.345 89.820 C 244.455 89.820,245.338 89.012,246.307 88.024 C 247.277 87.036,247.981 86.228,247.871 86.228 C 247.761 86.228,246.878 87.036,245.908 88.024 M229.316 91.517 L 228.144 92.814 229.441 91.642 C 230.155 90.997,230.739 90.413,230.739 90.344 C 230.739 90.036,230.409 90.308,229.316 91.517 M217.842 102.349 C 217.031 103.092,216.367 103.847,216.367 104.027 C 216.367 104.207,217.086 103.652,217.964 102.794 C 218.842 101.937,219.561 101.182,219.561 101.117 C 219.561 100.840,219.237 101.072,217.842 102.349 M365.045 102.295 L 363.872 103.593 365.170 102.420 C 365.883 101.775,366.467 101.192,366.467 101.123 C 366.467 100.815,366.138 101.086,365.045 102.295 M374.829 103.693 L 373.453 105.190 374.950 103.814 C 376.343 102.533,376.631 102.196,376.326 102.196 C 376.259 102.196,375.585 102.869,374.829 103.693 M368.008 110.878 C 367.032 112.057,366.528 112.954,367.269 112.194 C 367.601 111.855,368.197 111.262,368.595 110.878 C 368.993 110.494,369.154 110.180,368.953 110.180 C 368.751 110.180,368.326 110.494,368.008 110.878 M352.889 126.048 L 347.106 131.936 352.994 126.153 C 358.464 120.780,359.063 120.160,358.777 120.160 C 358.720 120.160,356.070 122.809,352.889 126.048 M210.966 123.054 L 208.583 125.549 211.078 123.166 C 212.450 121.856,213.573 120.733,213.573 120.671 C 213.573 120.376,213.179 120.736,210.966 123.054 M206.185 127.747 C 205.787 128.187,205.548 128.635,205.655 128.742 C 205.762 128.849,206.238 128.488,206.714 127.941 C 207.738 126.764,207.241 126.581,206.185 127.747 M186.815 133.633 L 184.232 136.327 186.926 133.744 C 188.408 132.323,189.621 131.111,189.621 131.049 C 189.621 130.756,189.214 131.130,186.815 133.633 M337.899 141.417 L 336.727 142.715 338.024 141.542 C 338.738 140.897,339.321 140.313,339.321 140.245 C 339.321 139.936,338.992 140.208,337.899 141.417 M184.024 149.601 L 180.240 153.493 184.132 149.708 C 187.747 146.193,188.206 145.709,187.916 145.709 C 187.857 145.709,186.106 147.460,184.024 149.601 M288.810 148.603 L 286.427 151.098 288.922 148.715 C 290.294 147.405,291.417 146.282,291.417 146.220 C 291.417 145.925,291.023 146.285,288.810 148.603 M280.632 156.786 L 276.447 161.078 280.739 156.893 C 283.099 154.592,285.030 152.661,285.030 152.602 C 285.030 152.314,284.518 152.800,280.632 156.786 M162.257 158.123 C 161.389 159.022,160.319 159.909,159.880 160.093 C 159.328 160.325,159.271 160.436,159.696 160.454 C 160.033 160.468,161.194 159.581,162.275 158.483 C 163.357 157.385,164.150 156.487,164.038 156.487 C 163.926 156.487,163.125 157.223,162.257 158.123 M170.247 163.373 L 167.864 165.868 170.359 163.486 C 172.677 161.272,173.037 160.878,172.742 160.878 C 172.680 160.878,171.557 162.001,170.247 163.373 M274.943 162.076 C 274.567 162.515,274.409 162.874,274.593 162.874 C 274.776 162.874,275.251 162.515,275.649 162.076 C 276.046 161.637,276.204 161.277,275.999 161.277 C 275.794 161.277,275.319 161.637,274.943 162.076 M284.210 165.494 C 283.453 166.275,283.104 166.802,283.433 166.664 C 283.984 166.433,286.083 164.072,285.737 164.072 C 285.654 164.072,284.967 164.712,284.210 165.494 M149.900 170.060 C 147.272 172.695,145.212 174.850,145.322 174.850 C 145.432 174.850,147.672 172.695,150.299 170.060 C 152.927 167.425,154.988 165.269,154.878 165.269 C 154.768 165.269,152.528 167.425,149.900 170.060 M280.228 169.960 L 277.645 172.655 280.339 170.071 C 281.821 168.651,283.034 167.438,283.034 167.377 C 283.034 167.083,282.627 167.457,280.228 169.960 M192.508 169.661 C 192.508 170.429,192.590 170.744,192.690 170.359 C 192.791 169.975,192.791 169.346,192.690 168.962 C 192.590 168.578,192.508 168.892,192.508 169.661 M296.196 171.158 L 293.613 173.852 296.307 171.269 C 297.789 169.848,299.002 168.636,299.002 168.574 C 299.002 168.281,298.596 168.655,296.196 171.158 M158.876 174.750 L 154.291 179.441 158.982 174.857 C 163.339 170.599,163.854 170.060,163.566 170.060 C 163.508 170.060,161.397 172.171,158.876 174.750 M306.965 172.355 L 305.589 173.852 307.086 172.477 C 308.479 171.196,308.766 170.858,308.462 170.858 C 308.395 170.858,307.721 171.532,306.965 172.355 M297.187 182.136 L 295.609 183.832 297.305 182.254 C 298.883 180.787,299.185 180.439,298.883 180.439 C 298.818 180.439,298.055 181.203,297.187 182.136 M282.809 184.531 L 281.637 185.828 282.934 184.656 C 283.648 184.011,284.232 183.427,284.232 183.358 C 284.232 183.050,283.902 183.322,282.809 184.531 M274.068 193.197 C 273.219 194.066,272.399 194.699,272.244 194.604 C 272.089 194.508,271.642 194.785,271.249 195.219 C 270.856 195.653,270.684 196.008,270.866 196.008 C 271.048 196.008,270.780 196.452,270.271 196.994 C 269.762 197.536,269.216 197.899,269.057 197.802 C 268.899 197.704,268.448 197.979,268.055 198.413 C 267.663 198.847,267.481 199.202,267.652 199.202 C 267.822 199.202,267.727 199.516,267.439 199.900 C 267.152 200.284,268.926 198.626,271.382 196.214 C 273.839 193.803,275.848 191.782,275.848 191.723 C 275.848 191.443,275.495 191.736,274.068 193.197 M277.508 202.161 C 275.349 204.410,274.746 205.190,275.166 205.190 C 275.230 205.190,276.512 203.932,278.016 202.395 C 279.519 200.858,280.573 199.601,280.358 199.601 C 280.143 199.601,278.861 200.753,277.508 202.161 M272.854 206.786 C 272.223 207.445,271.804 207.984,271.922 207.984 C 272.040 207.984,272.701 207.445,273.390 206.786 C 274.080 206.128,274.499 205.589,274.323 205.589 C 274.146 205.589,273.485 206.128,272.854 206.786 M257.178 209.646 C 255.363 211.432,253.935 212.951,254.006 213.021 C 254.076 213.091,255.647 211.628,257.497 209.768 C 259.347 207.909,260.775 206.390,260.670 206.393 C 260.565 206.397,258.994 207.860,257.178 209.646 M99.619 220.297 L 96.443 223.752 99.918 220.368 C 101.829 218.507,103.393 216.935,103.393 216.875 C 103.393 216.381,102.337 217.339,99.619 220.297 M98.403 235.130 C 96.657 236.886,95.353 238.323,95.505 238.323 C 95.657 238.323,96.281 237.813,96.892 237.190 C 100.165 233.853,101.945 231.936,101.772 231.936 C 101.665 231.936,100.149 233.373,98.403 235.130 M93.298 240.309 C 92.373 241.182,91.805 241.901,92.035 241.906 C 92.265 241.912,93.154 241.198,94.012 240.319 C 96.031 238.252,95.486 238.244,93.298 240.309 M103.393 254.002 C 103.393 254.062,104.785 255.455,106.487 257.096 L 109.581 260.080 106.597 256.986 C 103.825 254.113,103.393 253.710,103.393 254.002 M223.335 256.387 L 221.756 258.084 223.453 256.506 C 224.386 255.638,225.150 254.874,225.150 254.809 C 225.150 254.507,224.802 254.809,223.335 256.387 M91.862 255.689 C 92.037 256.142,102.196 266.101,102.196 265.819 C 102.196 265.719,99.836 263.308,96.952 260.463 C 94.068 257.617,91.777 255.469,91.862 255.689 M205.779 261.178 L 202.595 264.471 205.888 261.287 C 208.947 258.329,209.364 257.884,209.072 257.884 C 209.012 257.884,207.530 259.366,205.779 261.178 M123.752 274.451 C 125.609 276.317,127.218 277.844,127.328 277.844 C 127.437 277.844,126.008 276.317,124.152 274.451 C 122.295 272.585,120.686 271.058,120.577 271.058 C 120.467 271.058,121.896 272.585,123.752 274.451 M202.652 277.502 C 199.766 280.387,198.124 282.161,199.002 281.443 C 200.960 279.843,208.523 272.255,208.160 272.255 C 208.016 272.255,205.537 274.616,202.652 277.502 M192.989 273.952 L 191.816 275.250 193.114 274.077 C 194.323 272.984,194.595 272.655,194.286 272.655 C 194.218 272.655,193.634 273.239,192.989 273.952 M178.972 287.348 C 177.913 288.403,176.787 289.616,176.470 290.042 C 176.153 290.469,177.096 289.656,178.566 288.235 C 180.035 286.814,181.238 285.602,181.238 285.540 C 181.238 285.197,180.702 285.624,178.972 287.348 M141.717 292.415 C 143.573 294.281,145.182 295.808,145.292 295.808 C 145.402 295.808,143.972 294.281,142.116 292.415 C 140.259 290.549,138.650 289.022,138.541 289.022 C 138.431 289.022,139.860 290.549,141.717 292.415 M175.228 304.890 L 173.852 306.387 175.349 305.012 C 176.743 303.731,177.030 303.393,176.725 303.393 C 176.658 303.393,175.985 304.067,175.228 304.890 M60.335 328.842 C 60.365 329.007,62.476 331.115,65.026 333.527 L 69.661 337.911 65.076 333.227 C 60.450 328.500,60.235 328.301,60.335 328.842 " stroke="none" fill="#7c7c7c" fill-rule="evenodd"></path><path id="path4" d="M310.180 11.776 C 309.664 12.325,309.047 12.774,308.809 12.774 C 308.571 12.774,308.131 13.166,307.832 13.645 C 307.250 14.577,309.909 12.665,310.966 11.392 C 311.787 10.402,311.202 10.688,310.180 11.776 M385.629 19.162 C 386.098 19.820,386.571 20.359,386.681 20.359 C 386.791 20.359,386.497 19.820,386.028 19.162 C 385.559 18.503,385.085 17.964,384.976 17.964 C 384.866 17.964,385.160 18.503,385.629 19.162 M300.200 21.357 C 299.230 22.345,298.526 23.154,298.636 23.154 C 298.746 23.154,299.629 22.345,300.599 21.357 C 301.568 20.369,302.272 19.561,302.162 19.561 C 302.052 19.561,301.169 20.369,300.200 21.357 M376.248 23.809 C 377.126 24.694,377.915 25.361,378.001 25.293 C 378.258 25.089,377.201 23.974,375.884 23.058 C 374.835 22.329,374.889 22.441,376.248 23.809 M311.140 24.413 L 310.379 25.273 311.477 24.567 C 312.609 23.838,312.823 23.553,312.238 23.553 C 312.052 23.553,311.558 23.940,311.140 24.413 M305.788 29.341 C 304.819 30.329,304.115 31.138,304.225 31.138 C 304.335 31.138,305.218 30.329,306.188 29.341 C 307.157 28.353,307.861 27.545,307.751 27.545 C 307.641 27.545,306.758 28.353,305.788 29.341 M290.719 30.374 C 289.193 31.833,288.788 32.335,289.138 32.335 C 289.203 32.335,290.048 31.527,291.018 30.539 C 293.214 28.301,293.006 28.186,290.719 30.374 M294.800 40.020 L 292.016 42.914 294.910 40.130 C 297.598 37.545,297.987 37.126,297.694 37.126 C 297.633 37.126,296.331 38.428,294.800 40.020 M277.067 44.091 C 274.561 46.604,272.335 48.552,272.122 48.420 C 271.908 48.288,271.844 48.359,271.979 48.578 C 272.222 48.971,270.262 51.064,269.014 51.744 C 268.659 51.937,266.510 54.072,264.239 56.487 L 260.110 60.878 263.887 57.300 C 269.424 52.056,282.070 39.527,281.830 39.524 C 281.716 39.522,279.573 41.577,277.067 44.091 M287.026 47.705 C 286.056 48.693,285.353 49.501,285.463 49.501 C 285.572 49.501,286.455 48.693,287.425 47.705 C 288.395 46.717,289.098 45.908,288.989 45.908 C 288.879 45.908,287.996 46.717,287.026 47.705 M272.451 61.976 L 265.669 68.862 272.555 62.080 C 276.342 58.350,279.441 55.251,279.441 55.194 C 279.441 54.909,278.752 55.578,272.451 61.976 M258.683 75.649 C 254.286 80.060,253.458 81.304,257.287 77.745 C 259.359 75.819,263.320 71.457,262.998 71.457 C 262.922 71.457,260.980 73.343,258.683 75.649 M243.903 76.946 L 240.519 80.439 244.012 77.055 C 245.933 75.193,247.505 73.621,247.505 73.562 C 247.505 73.271,247.047 73.702,243.903 76.946 M237.137 83.620 C 236.628 84.163,236.030 84.494,235.808 84.357 C 235.587 84.220,235.516 84.287,235.651 84.506 C 235.898 84.904,234.361 86.518,232.156 88.177 C 231.509 88.664,230.936 89.352,230.884 89.707 C 230.832 90.062,232.485 88.664,234.557 86.601 C 236.628 84.538,238.323 82.802,238.323 82.742 C 238.323 82.466,237.990 82.712,237.137 83.620 M376.455 89.611 C 376.177 89.946,376.101 90.220,376.285 90.220 C 376.469 90.220,375.638 91.252,374.437 92.515 L 372.255 94.810 374.381 92.814 C 376.474 90.850,377.479 89.522,377.135 89.178 C 377.039 89.081,376.733 89.276,376.455 89.611 M233.929 100.100 L 224.950 109.182 234.032 100.203 C 242.471 91.860,243.294 91.018,243.011 91.018 C 242.954 91.018,238.867 95.105,233.929 100.100 M223.946 96.507 L 219.361 101.198 224.052 96.613 C 228.409 92.355,228.924 91.816,228.636 91.816 C 228.578 91.816,226.467 93.927,223.946 96.507 M366.467 100.399 C 365.497 101.387,364.794 102.196,364.904 102.196 C 365.013 102.196,365.897 101.387,366.866 100.399 C 367.836 99.411,368.539 98.603,368.430 98.603 C 368.320 98.603,367.437 99.411,366.467 100.399 M377.420 101.098 L 376.248 102.395 377.545 101.223 C 378.258 100.578,378.842 99.994,378.842 99.925 C 378.842 99.617,378.513 99.888,377.420 101.098 M268.563 103.622 C 267.070 104.431,267.161 104.768,268.663 103.992 C 269.321 103.651,269.860 103.288,269.860 103.183 C 269.860 102.926,269.817 102.941,268.563 103.622 M363.277 103.988 C 363.006 104.315,362.597 104.466,362.368 104.325 C 362.140 104.184,362.066 104.252,362.204 104.476 C 362.486 104.932,361.164 106.303,360.746 105.989 C 360.599 105.879,360.575 105.915,360.693 106.069 C 360.811 106.223,357.804 109.457,354.011 113.255 C 350.218 117.052,347.204 120.160,347.313 120.160 C 347.423 120.160,351.281 116.387,355.888 111.776 C 360.495 107.166,364.153 103.393,364.017 103.393 C 363.882 103.393,363.548 103.661,363.277 103.988 M264.057 108.283 L 262.076 110.379 264.172 108.398 C 266.119 106.557,266.451 106.188,266.153 106.188 C 266.090 106.188,265.146 107.131,264.057 108.283 M370.259 108.583 C 369.402 109.461,368.886 110.180,369.114 110.180 C 369.341 110.180,370.105 109.461,370.810 108.583 C 371.516 107.705,372.032 106.986,371.956 106.986 C 371.881 106.986,371.117 107.705,370.259 108.583 M240.506 111.876 L 238.124 114.371 240.619 111.989 C 241.991 110.678,243.114 109.555,243.114 109.494 C 243.114 109.199,242.720 109.559,240.506 111.876 M204.581 115.868 L 201.397 119.162 204.691 115.977 C 207.749 113.020,208.166 112.575,207.875 112.575 C 207.815 112.575,206.333 114.057,204.581 115.868 M230.933 121.457 L 225.349 127.146 231.038 121.562 C 236.322 116.375,236.907 115.768,236.621 115.768 C 236.564 115.768,234.004 118.328,230.933 121.457 M360.261 118.663 L 358.683 120.359 360.379 118.781 C 361.957 117.314,362.259 116.966,361.957 116.966 C 361.892 116.966,361.129 117.730,360.261 118.663 M264.845 120.259 L 263.673 121.557 264.970 120.384 C 265.684 119.740,266.267 119.156,266.267 119.087 C 266.267 118.779,265.938 119.050,264.845 120.259 M251.896 120.359 C 251.614 120.699,251.473 121.067,251.583 121.177 C 251.693 121.287,252.013 121.098,252.295 120.758 C 252.578 120.419,252.719 120.051,252.609 119.941 C 252.499 119.831,252.178 120.019,251.896 120.359 M191.804 128.643 L 189.421 131.138 191.916 128.755 C 194.234 126.542,194.594 126.148,194.299 126.148 C 194.237 126.148,193.114 127.270,191.804 128.643 M237.387 126.878 C 236.659 127.682,236.499 128.331,237.124 127.945 C 237.540 127.688,238.462 126.148,238.200 126.148 C 238.116 126.148,237.751 126.476,237.387 126.878 M198.603 135.398 L 191.816 142.243 198.703 135.723 C 204.517 130.219,206.131 128.513,205.489 128.549 C 205.434 128.552,202.335 131.634,198.603 135.398 M344.905 134.418 C 341.724 137.650,340.649 138.873,342.515 137.138 C 344.381 135.402,346.432 133.432,347.072 132.759 C 350.304 129.365,351.045 128.543,350.874 128.543 C 350.772 128.543,348.086 131.187,344.905 134.418 M333.726 133.633 L 329.142 138.323 333.832 133.739 C 338.189 129.481,338.704 128.942,338.417 128.942 C 338.358 128.942,336.247 131.053,333.726 133.633 M221.535 130.838 L 220.160 132.335 221.657 130.960 C 223.050 129.679,223.337 129.341,223.032 129.341 C 222.966 129.341,222.292 130.015,221.535 130.838 M257.863 131.637 L 256.487 133.134 257.984 131.758 C 259.377 130.478,259.665 130.140,259.360 130.140 C 259.293 130.140,258.619 130.813,257.863 131.637 M216.143 136.627 L 214.970 137.924 216.267 136.752 C 216.981 136.107,217.565 135.523,217.565 135.454 C 217.565 135.146,217.235 135.417,216.143 136.627 M182.651 137.708 C 181.802 138.577,180.912 139.177,180.674 139.041 C 180.435 138.905,180.379 138.948,180.550 139.135 C 180.963 139.589,176.432 144.143,175.879 143.829 C 175.643 143.695,175.584 143.734,175.749 143.916 C 175.915 144.098,175.752 144.576,175.388 144.978 C 175.024 145.380,174.802 145.709,174.894 145.709 C 174.987 145.709,177.212 143.553,179.840 140.918 C 182.468 138.283,184.523 136.128,184.406 136.128 C 184.289 136.128,183.500 136.839,182.651 137.708 M211.750 140.818 C 210.833 142.044,210.795 142.172,211.540 141.521 C 212.406 140.765,213.388 139.321,213.035 139.321 C 212.944 139.321,212.366 139.995,211.750 140.818 M222.166 142.904 C 220.868 144.215,219.886 145.366,219.983 145.461 C 220.080 145.556,221.207 144.483,222.486 143.076 C 225.408 139.865,225.255 139.782,222.166 142.904 M208.558 144.611 L 207.385 145.908 208.683 144.736 C 209.396 144.091,209.980 143.507,209.980 143.438 C 209.980 143.130,209.651 143.401,208.558 144.611 M292.175 145.010 L 291.281 146.307 292.547 145.135 C 293.911 143.871,294.011 143.713,293.440 143.713 C 293.236 143.713,292.666 144.296,292.175 145.010 M185.619 148.393 C 183.978 150.088,183.153 151.032,183.786 150.488 C 185.538 148.985,189.133 145.309,188.852 145.309 C 188.715 145.309,187.260 146.697,185.619 148.393 M314.965 152.395 L 309.581 157.884 315.070 152.501 C 320.169 147.499,320.740 146.906,320.454 146.906 C 320.396 146.906,317.926 149.376,314.965 152.395 M164.671 155.108 C 161.816 157.841,159.663 160.077,159.886 160.078 C 160.109 160.079,162.532 157.834,165.269 155.090 C 168.007 152.345,170.160 150.109,170.054 150.120 C 169.947 150.131,167.525 152.376,164.671 155.108 M325.538 153.792 L 322.754 156.687 325.649 153.903 C 328.337 151.317,328.725 150.898,328.432 150.898 C 328.372 150.898,327.069 152.201,325.538 153.792 M295.332 153.992 C 294.629 154.811,294.101 155.689,294.313 155.689 C 294.394 155.689,294.859 155.150,295.346 154.491 C 296.308 153.190,296.299 152.866,295.332 153.992 M256.687 156.935 C 255.295 158.155,255.295 158.156,256.575 157.305 C 257.282 156.835,257.966 156.279,258.095 156.069 C 258.480 155.446,258.161 155.642,256.687 156.935 M158.104 161.584 C 155.297 164.716,154.995 165.224,157.211 163.086 C 158.569 161.776,159.681 160.653,159.681 160.591 C 159.681 160.187,158.936 160.656,158.104 161.584 M314.164 165.170 L 310.379 169.062 314.271 165.277 C 317.887 161.762,318.345 161.277,318.056 161.277 C 317.997 161.277,316.245 163.029,314.164 165.170 M285.605 164.371 C 284.144 166.197,284.136 166.223,285.392 165.070 C 286.590 163.969,287.682 162.475,287.288 162.475 C 287.197 162.475,286.439 163.328,285.605 164.371 M303.937 162.753 C 304.090 162.906,302.997 164.298,301.509 165.847 L 298.802 168.663 301.677 165.898 C 304.167 163.504,304.836 162.475,303.902 162.475 C 303.769 162.475,303.784 162.600,303.937 162.753 M272.497 164.658 C 270.194 167.167,270.217 167.312,272.563 165.085 C 273.711 163.995,274.651 163.052,274.651 162.989 C 274.651 162.568,273.835 163.200,272.497 164.658 M244.703 168.762 L 240.918 172.655 244.810 168.870 C 246.951 166.789,248.703 165.037,248.703 164.978 C 248.703 164.689,248.218 165.147,244.703 168.762 M165.655 167.964 L 163.473 170.259 165.768 168.078 C 167.901 166.050,168.247 165.669,167.950 165.669 C 167.888 165.669,166.855 166.702,165.655 167.964 M275.638 174.289 L 273.653 176.123 275.749 174.451 C 277.598 172.977,278.116 172.455,277.734 172.455 C 277.673 172.455,276.730 173.280,275.638 174.289 M290.838 176.428 C 289.323 177.954,287.891 179.093,287.655 178.958 C 287.419 178.824,287.361 178.863,287.526 179.045 C 287.940 179.502,286.625 180.879,286.074 180.565 C 285.829 180.426,285.766 180.462,285.934 180.647 C 286.101 180.831,285.753 181.489,285.160 182.108 C 284.567 182.727,284.163 183.234,284.263 183.234 C 284.362 183.234,286.594 181.078,289.222 178.443 C 291.849 175.808,293.908 173.653,293.795 173.653 C 293.683 173.653,292.352 174.901,290.838 176.428 M235.907 177.360 C 234.686 178.418,232.943 181.008,234.077 180.078 C 234.769 179.511,237.305 176.435,237.059 176.461 C 236.986 176.469,236.467 176.874,235.907 177.360 M205.902 179.042 C 206.131 179.481,206.896 180.379,207.602 181.038 C 208.491 181.867,208.758 181.990,208.469 181.437 C 208.240 180.998,207.475 180.100,206.769 179.441 C 205.880 178.612,205.613 178.489,205.902 179.042 M240.515 185.729 L 233.733 192.615 240.619 185.833 C 244.406 182.103,247.505 179.004,247.505 178.947 C 247.505 178.662,246.815 179.331,240.515 185.729 M135.527 198.104 L 116.766 216.966 135.629 198.205 C 146.003 187.887,154.491 179.399,154.491 179.343 C 154.491 179.062,152.965 180.571,135.527 198.104 M197.372 183.090 C 197.429 183.474,197.684 183.859,197.939 183.944 C 198.588 184.160,198.519 183.427,197.836 182.861 C 197.381 182.483,197.290 182.528,197.372 183.090 M288.619 191.110 C 283.901 195.882,282.623 197.274,285.780 194.204 C 288.936 191.134,291.990 188.148,292.566 187.567 C 295.716 184.391,297.553 182.435,297.387 182.435 C 297.283 182.435,293.338 186.339,288.619 191.110 M202.595 188.423 C 203.898 189.741,205.055 190.818,205.165 190.818 C 205.274 190.818,204.298 189.741,202.994 188.423 C 201.690 187.106,200.534 186.028,200.424 186.028 C 200.314 186.028,201.291 187.106,202.595 188.423 M274.687 192.124 C 271.962 194.809,267.658 199.162,265.121 201.796 C 262.585 204.431,264.860 202.277,270.175 197.009 C 275.491 191.741,279.840 187.385,279.840 187.328 C 279.840 187.073,279.354 187.525,274.687 192.124 M266.060 213.673 L 262.475 217.365 266.168 213.781 C 269.597 210.452,270.042 209.980,269.752 209.980 C 269.693 209.980,268.031 211.642,266.060 213.673 M253.883 225.848 L 250.499 229.341 253.992 225.957 C 257.236 222.814,257.667 222.355,257.376 222.355 C 257.317 222.355,255.745 223.927,253.883 225.848 M91.816 228.057 C 89.291 230.522,86.720 233.214,86.102 234.041 C 85.436 234.931,84.785 235.433,84.505 235.273 C 84.245 235.124,84.172 235.155,84.342 235.343 C 84.513 235.530,83.620 236.772,82.359 238.101 C 81.097 239.431,82.119 238.453,84.630 235.928 C 91.986 228.531,96.806 223.552,96.599 223.565 C 96.494 223.572,94.341 225.593,91.816 228.057 M241.111 238.623 L 236.926 242.914 241.218 238.730 C 243.578 236.428,245.509 234.497,245.509 234.438 C 245.509 234.150,244.997 234.637,241.111 238.623 M223.353 243.513 C 220.725 246.148,218.665 248.303,218.775 248.303 C 218.885 248.303,221.125 246.148,223.752 243.513 C 226.380 240.878,228.441 238.723,228.331 238.723 C 228.221 238.723,225.981 240.878,223.353 243.513 M96.407 247.106 C 98.153 248.862,99.672 250.299,99.782 250.299 C 99.891 250.299,98.553 248.862,96.806 247.106 C 95.060 245.349,93.542 243.912,93.432 243.912 C 93.322 243.912,94.661 245.349,96.407 247.106 M211.164 255.788 L 208.982 258.084 211.277 255.902 C 213.410 253.875,213.756 253.493,213.459 253.493 C 213.397 253.493,212.364 254.526,211.164 255.788 M221.158 258.882 C 219.522 260.529,218.359 261.854,218.573 261.827 C 218.962 261.777,224.653 255.888,224.312 255.888 C 224.213 255.888,222.793 257.236,221.158 258.882 M95.210 259.481 C 96.513 260.798,97.670 261.876,97.779 261.876 C 97.889 261.876,96.912 260.798,95.609 259.481 C 94.305 258.164,93.149 257.086,93.039 257.086 C 92.929 257.086,93.906 258.164,95.210 259.481 M114.770 265.469 C 117.838 268.543,120.438 271.058,120.548 271.058 C 120.658 271.058,118.238 268.543,115.170 265.469 C 112.102 262.395,109.502 259.880,109.392 259.880 C 109.282 259.880,111.702 262.395,114.770 265.469 M211.970 268.164 L 206.986 273.253 212.076 268.269 C 216.804 263.640,217.347 263.074,217.060 263.074 C 217.002 263.074,214.711 265.364,211.970 268.164 M199.501 267.305 C 198.458 268.309,197.605 268.981,197.604 268.797 C 197.604 268.613,196.886 269.271,196.008 270.259 C 193.113 273.519,194.346 272.902,198.004 269.261 C 199.980 267.295,201.597 265.637,201.597 265.577 C 201.597 265.327,201.303 265.569,199.501 267.305 M103.992 267.864 C 105.073 268.962,106.048 269.860,106.158 269.860 C 106.267 269.860,105.473 268.962,104.391 267.864 C 103.310 266.766,102.335 265.868,102.226 265.868 C 102.116 265.868,102.911 266.766,103.992 267.864 M187.400 279.045 C 183.874 282.556,181.091 285.429,181.217 285.429 C 181.343 285.429,184.317 282.555,187.824 279.042 C 191.332 275.529,194.115 272.656,194.007 272.658 C 193.900 272.660,190.927 275.534,187.400 279.045 M116.961 280.739 C 121.962 285.837,122.555 286.408,122.555 286.122 C 122.555 286.064,120.085 283.594,117.066 280.633 L 111.577 275.250 116.961 280.739 M128.743 279.441 C 129.600 280.319,130.392 281.038,130.501 281.038 C 130.611 281.038,129.999 280.319,129.142 279.441 C 128.284 278.563,127.493 277.844,127.383 277.844 C 127.273 277.844,127.885 278.563,128.743 279.441 M133.932 284.631 C 135.678 286.387,137.197 287.824,137.307 287.824 C 137.416 287.824,136.078 286.387,134.331 284.631 C 132.585 282.874,131.067 281.437,130.957 281.437 C 130.847 281.437,132.186 282.874,133.932 284.631 M187.023 293.114 L 176.647 303.593 187.126 293.216 C 192.889 287.509,197.605 282.794,197.605 282.737 C 197.605 282.455,196.666 283.376,187.023 293.114 M130.502 294.511 C 131.904 296.103,133.132 297.405,133.231 297.405 C 133.491 297.405,129.498 292.837,128.658 292.173 C 128.271 291.867,129.101 292.919,130.502 294.511 M150.898 301.597 C 154.076 304.780,156.766 307.385,156.876 307.385 C 156.986 307.385,154.475 304.780,151.297 301.597 C 148.119 298.413,145.429 295.808,145.320 295.808 C 145.210 295.808,147.720 298.413,150.898 301.597 M142.578 306.986 C 143.065 307.645,143.643 308.184,143.862 308.184 C 144.082 308.184,143.745 307.645,143.114 306.986 C 142.483 306.327,141.905 305.788,141.830 305.788 C 141.754 305.788,142.091 306.327,142.578 306.986 M168.657 311.477 L 163.473 316.766 168.762 311.583 C 171.672 308.731,174.052 306.351,174.052 306.293 C 174.052 306.007,173.472 306.564,168.657 311.477 M62.254 314.027 C 62.034 314.607,61.928 315.155,62.019 315.245 C 62.109 315.336,62.374 314.862,62.608 314.192 C 63.127 312.703,62.813 312.557,62.254 314.027 M65.469 334.291 C 70.047 338.957,75.050 343.624,75.050 343.229 C 75.050 343.140,71.771 339.948,67.764 336.136 C 61.301 329.986,61.042 329.778,65.469 334.291 M35.873 334.118 C 35.354 334.550,35.127 334.910,35.367 334.917 C 35.608 334.924,36.130 334.571,36.527 334.132 C 37.451 333.110,37.092 333.103,35.873 334.118 M40.321 342.314 C 39.806 342.862,39.473 343.399,39.581 343.506 C 39.689 343.614,40.174 343.166,40.659 342.510 C 41.733 341.057,41.583 340.970,40.321 342.314 M12.669 360.581 L 11.965 361.876 12.769 360.934 C 13.453 360.132,13.819 359.275,13.473 359.284 C 13.418 359.285,13.056 359.869,12.669 360.581 M22.617 362.007 C 21.840 362.866,21.777 363.273,22.422 363.273 C 22.678 363.273,22.767 363.153,22.621 363.006 C 22.474 362.860,22.651 362.410,23.015 362.008 C 23.379 361.606,23.587 361.277,23.477 361.277 C 23.367 361.277,22.980 361.606,22.617 362.007 M46.906 381.637 C 46.509 382.076,46.385 382.435,46.631 382.435 C 46.877 382.435,47.270 382.076,47.505 381.637 C 47.740 381.198,47.864 380.838,47.781 380.838 C 47.697 380.838,47.304 381.198,46.906 381.637 M10.778 384.955 C 10.778 385.024,11.362 385.608,12.076 386.253 L 13.373 387.425 12.201 386.128 C 11.108 384.918,10.778 384.647,10.778 384.955 " stroke="none" fill="#848484" fill-rule="evenodd"></path></g></svg>