<svg id="svg" version="1.1" xmlns="http://www.w3.org/2000/svg" xmlns:xlink="http://www.w3.org/1999/xlink" width="400" height="400" viewBox="0, 0, 400,400"><g id="svgg"><path id="path0" d="M345.600 1.038 C 345.600 1.388,347.246 3.268,349.259 5.214 L 352.917 8.753 351.559 9.876 C 350.811 10.494,348.400 12.871,346.200 15.157 C 344.000 17.444,340.335 21.134,338.055 23.357 C 335.775 25.581,332.085 29.265,329.855 31.544 C 327.625 33.823,323.955 37.529,321.700 39.780 C 319.445 42.031,317.600 44.185,317.600 44.566 C 317.600 45.299,356.046 84.000,356.774 84.000 C 357.008 84.000,357.200 83.820,357.200 83.600 C 357.200 83.380,357.458 83.200,357.773 83.200 C 358.088 83.200,358.460 82.885,358.599 82.500 C 358.738 82.115,360.464 80.270,362.433 78.400 C 364.403 76.530,368.036 72.975,370.507 70.500 C 378.117 62.879,382.218 58.782,386.901 54.126 C 389.375 51.666,391.637 49.366,391.926 49.016 C 392.389 48.454,392.847 48.782,395.801 51.789 C 397.643 53.665,399.368 55.200,399.634 55.200 C 400.285 55.200,399.900 41.500,399.242 41.281 C 398.999 41.200,398.800 40.428,398.800 39.567 C 398.800 38.705,398.620 38.000,398.400 38.000 C 398.180 38.000,398.000 37.460,398.000 36.800 C 398.000 36.140,397.820 35.600,397.600 35.600 C 397.380 35.600,397.200 35.060,397.200 34.400 C 397.200 33.740,397.020 33.200,396.800 33.200 C 396.580 33.200,396.400 32.840,396.400 32.400 C 396.400 31.960,396.220 31.600,396.000 31.600 C 395.780 31.600,395.600 31.240,395.600 30.800 C 395.600 30.360,395.420 30.000,395.200 30.000 C 394.980 30.000,394.800 29.640,394.800 29.200 C 394.800 28.760,394.620 28.400,394.400 28.400 C 394.180 28.400,394.000 28.040,394.000 27.600 C 394.000 27.160,393.820 26.800,393.600 26.800 C 393.380 26.800,393.200 26.530,393.200 26.200 C 393.200 25.870,393.020 25.600,392.800 25.600 C 392.580 25.600,392.400 25.322,392.400 24.983 C 392.400 24.644,392.217 24.149,391.993 23.883 C 390.436 22.037,390.000 21.436,390.000 21.136 C 390.000 20.635,381.235 12.000,380.726 12.000 C 380.488 12.000,380.003 11.678,379.647 11.285 C 379.291 10.891,377.928 10.036,376.617 9.385 C 375.306 8.733,373.877 7.885,373.441 7.500 C 373.006 7.115,372.233 6.800,371.725 6.800 C 371.216 6.800,370.800 6.620,370.800 6.400 C 370.800 6.180,370.440 6.000,370.000 6.000 C 369.560 6.000,369.200 5.820,369.200 5.600 C 369.200 5.380,368.750 5.200,368.200 5.200 C 367.650 5.200,367.200 5.020,367.200 4.800 C 367.200 4.580,366.750 4.400,366.200 4.400 C 365.650 4.400,365.200 4.220,365.200 4.000 C 365.200 3.780,364.480 3.600,363.600 3.600 C 362.720 3.600,362.000 3.420,362.000 3.200 C 362.000 2.980,361.460 2.800,360.800 2.800 C 360.140 2.800,359.600 2.620,359.600 2.400 C 359.600 2.180,358.880 2.000,358.000 2.000 C 357.120 2.000,356.400 1.820,356.400 1.600 C 356.400 1.374,355.267 1.200,353.800 1.200 C 352.333 1.200,351.200 1.026,351.200 0.800 C 351.200 0.571,350.000 0.400,348.400 0.400 C 346.104 0.400,345.600 0.515,345.600 1.038 M276.400 14.000 C 276.400 14.220,276.040 14.400,275.600 14.400 C 275.160 14.400,274.800 14.568,274.800 14.773 C 274.800 14.978,274.412 15.269,273.937 15.420 C 272.299 15.940,144.284 144.373,143.289 146.496 C 141.354 150.621,143.536 157.766,146.996 158.635 C 147.548 158.773,148.000 159.047,148.000 159.243 C 148.000 159.440,148.360 159.600,148.800 159.600 C 149.240 159.600,149.600 159.780,149.600 160.000 C 149.600 160.231,150.859 160.400,152.576 160.400 C 154.213 160.400,155.664 160.220,155.800 160.000 C 155.936 159.780,156.397 159.600,156.824 159.600 C 157.251 159.600,157.600 159.432,157.600 159.227 C 157.600 159.022,157.962 158.739,158.403 158.599 C 158.845 158.459,162.807 154.712,167.206 150.272 C 171.606 145.832,175.339 142.069,175.503 141.909 C 175.841 141.577,191.434 125.986,191.961 125.452 C 192.150 125.261,199.684 117.724,208.704 108.704 C 217.724 99.684,225.261 92.145,225.452 91.951 C 225.643 91.757,228.950 88.483,232.800 84.677 C 236.650 80.871,240.367 77.136,241.060 76.378 C 243.430 73.786,250.850 66.800,251.233 66.800 C 251.743 66.800,256.800 71.875,256.800 72.387 C 256.800 72.789,254.988 74.772,249.000 80.921 C 246.252 83.743,245.185 84.979,242.604 88.323 C 242.382 88.610,240.670 90.432,238.800 92.371 C 231.001 100.458,228.527 103.112,227.204 104.809 C 226.435 105.794,225.625 106.834,225.404 107.119 C 225.182 107.405,224.767 107.855,224.483 108.119 C 221.385 110.998,219.209 113.244,218.398 114.400 C 217.858 115.170,216.062 117.153,214.408 118.807 C 212.754 120.461,210.681 122.711,209.803 123.807 C 208.924 124.903,206.850 127.150,205.195 128.800 C 203.539 130.450,201.741 132.430,201.200 133.200 C 200.659 133.970,198.858 135.950,197.199 137.600 C 195.540 139.250,193.646 141.318,192.991 142.195 C 192.336 143.073,190.267 145.323,188.393 147.195 C 186.519 149.068,184.542 151.230,184.001 152.000 C 183.459 152.770,181.658 154.750,179.999 156.400 C 178.340 158.050,176.446 160.118,175.791 160.995 C 175.136 161.873,173.067 164.123,171.193 165.995 C 169.319 167.868,167.352 170.013,166.822 170.762 C 166.291 171.511,164.179 173.796,162.129 175.840 C 160.078 177.884,158.400 179.745,158.400 179.976 C 158.400 180.206,156.420 182.385,154.000 184.818 C 151.580 187.251,149.600 189.391,149.600 189.574 C 149.600 189.756,147.710 191.801,145.400 194.116 C 143.090 196.432,141.200 198.525,141.200 198.768 C 141.200 199.011,139.355 201.083,137.100 203.373 C 129.601 210.990,124.001 217.116,124.000 217.705 C 124.000 217.872,122.155 219.884,119.900 222.176 C 112.936 229.252,106.800 235.957,106.800 236.490 C 106.800 236.673,104.955 238.685,102.700 240.960 C 98.909 244.786,94.437 249.536,91.008 253.378 C 90.234 254.246,89.594 255.146,89.587 255.378 C 89.580 255.610,88.659 256.610,87.541 257.600 C 84.389 260.390,82.984 261.811,81.743 263.461 C 81.114 264.298,79.520 266.101,78.200 267.469 C 74.127 271.691,72.400 273.715,72.400 274.269 C 72.400 274.561,72.223 274.800,72.006 274.800 C 71.500 274.800,66.088 280.207,64.565 282.233 C 63.924 283.086,62.500 284.715,61.400 285.853 C 58.346 289.012,56.000 291.609,56.000 291.829 C 56.000 291.938,54.242 293.777,52.093 295.914 C 49.945 298.051,47.742 300.430,47.198 301.200 C 46.654 301.970,45.307 303.536,44.205 304.680 C 43.102 305.824,41.300 307.770,40.200 309.004 C 39.100 310.237,36.355 313.140,34.100 315.454 C 31.845 317.767,30.000 319.941,30.000 320.284 C 30.000 321.396,77.490 368.500,78.611 368.500 C 79.167 368.500,80.061 368.000,80.693 367.335 C 81.302 366.694,82.424 365.731,83.187 365.195 C 83.950 364.659,85.976 362.833,87.689 361.136 C 89.402 359.439,91.654 357.365,92.694 356.526 C 93.734 355.686,95.939 353.646,97.593 351.992 C 99.247 350.338,101.230 348.542,102.000 348.001 C 102.770 347.461,104.840 345.571,106.600 343.803 C 108.360 342.034,110.606 339.960,111.592 339.193 C 112.577 338.427,114.973 336.225,116.916 334.300 C 118.859 332.375,120.573 330.798,120.725 330.797 C 120.968 330.793,121.853 329.949,125.752 326.000 C 126.295 325.450,127.338 324.516,128.069 323.925 C 128.801 323.334,130.027 322.344,130.793 321.725 C 131.558 321.106,133.664 319.160,135.471 317.400 C 138.407 314.541,140.227 312.831,146.333 307.199 C 147.286 306.319,148.202 305.600,148.368 305.600 C 148.535 305.600,150.598 303.710,152.953 301.400 C 155.308 299.090,157.320 297.200,157.424 297.200 C 157.528 297.200,158.948 295.895,160.580 294.300 C 163.539 291.407,165.750 289.433,168.399 287.317 C 170.419 285.704,175.200 280.828,175.200 280.380 C 175.200 280.171,175.449 280.000,175.754 280.000 C 176.058 280.000,177.494 278.875,178.945 277.500 C 181.691 274.897,184.545 272.328,187.581 269.726 C 188.561 268.887,189.821 267.694,190.381 267.075 C 193.337 263.813,194.379 262.800,194.777 262.800 C 195.019 262.800,196.196 261.855,197.393 260.700 C 198.589 259.545,200.767 257.520,202.232 256.200 C 203.696 254.880,206.776 251.955,209.075 249.700 C 211.374 247.445,213.426 245.600,213.636 245.600 C 213.846 245.600,214.984 244.655,216.165 243.500 C 217.346 242.345,219.515 240.320,220.986 239.000 C 222.457 237.680,225.550 234.755,227.860 232.500 C 230.170 230.245,232.232 228.400,232.441 228.400 C 232.650 228.400,233.596 227.635,234.542 226.700 C 235.489 225.765,237.661 223.740,239.368 222.200 C 241.076 220.660,244.165 217.735,246.232 215.700 C 248.299 213.665,250.080 212.000,250.190 212.000 C 250.543 212.000,252.040 210.690,255.767 207.121 C 257.765 205.208,259.940 203.229,260.600 202.724 C 261.260 202.218,263.368 200.228,265.285 198.302 C 267.201 196.376,268.864 194.800,268.980 194.800 C 269.375 194.800,270.940 193.405,274.701 189.700 C 276.767 187.665,278.608 186.000,278.792 186.000 C 278.975 186.000,281.037 184.110,283.372 181.800 C 285.707 179.490,287.698 177.600,287.796 177.600 C 288.061 177.600,290.499 175.382,294.062 171.900 C 295.807 170.195,297.390 168.800,297.580 168.800 C 297.770 168.800,299.837 166.910,302.172 164.600 C 304.507 162.290,306.498 160.400,306.596 160.400 C 306.861 160.400,309.299 158.182,312.862 154.700 C 314.607 152.995,316.190 151.600,316.380 151.600 C 316.570 151.600,318.637 149.710,320.972 147.400 C 323.307 145.090,325.298 143.200,325.396 143.200 C 325.668 143.200,328.186 140.910,331.444 137.700 C 333.063 136.105,334.541 134.800,334.730 134.800 C 335.115 134.800,340.860 129.148,342.400 127.254 C 342.950 126.577,343.630 126.019,343.911 126.012 C 344.505 125.998,346.188 124.537,350.261 120.500 C 351.870 118.905,353.325 117.597,353.494 117.593 C 353.662 117.589,354.250 117.051,354.800 116.397 C 355.350 115.744,356.205 114.765,356.700 114.223 C 357.195 113.680,357.600 112.973,357.600 112.652 C 357.600 112.330,357.792 112.003,358.026 111.925 C 358.260 111.847,358.554 111.022,358.678 110.091 C 358.803 109.161,359.062 108.400,359.253 108.400 C 359.444 108.400,359.600 106.330,359.600 103.800 C 359.600 101.000,359.443 99.200,359.200 99.200 C 358.980 99.200,358.800 98.656,358.800 97.992 C 358.800 97.328,358.305 96.041,357.700 95.132 C 357.095 94.224,356.420 93.205,356.200 92.870 C 355.315 91.518,306.817 43.255,305.653 42.568 C 304.964 42.161,304.400 41.686,304.400 41.514 C 304.400 41.341,304.040 41.200,303.600 41.200 C 303.160 41.200,302.800 41.020,302.800 40.800 C 302.800 40.580,302.260 40.400,301.600 40.400 C 300.940 40.400,300.400 40.220,300.400 40.000 C 300.400 39.755,298.467 39.600,295.400 39.600 C 292.333 39.600,290.400 39.755,290.400 40.000 C 290.400 40.220,289.860 40.400,289.200 40.400 C 288.540 40.400,288.000 40.580,288.000 40.800 C 288.000 41.020,287.640 41.200,287.200 41.200 C 286.760 41.200,286.400 41.380,286.400 41.600 C 286.400 41.820,286.122 42.000,285.783 42.000 C 285.444 42.000,284.893 42.225,284.559 42.500 C 282.982 43.799,279.598 47.258,278.558 48.634 C 277.921 49.477,276.881 50.739,276.246 51.437 L 275.092 52.706 272.553 50.167 L 270.014 47.629 272.507 44.971 C 273.878 43.509,275.616 41.747,276.369 41.056 C 280.484 37.280,287.561 29.954,287.789 29.234 C 287.935 28.775,288.222 28.400,288.427 28.400 C 288.632 28.400,288.800 28.040,288.800 27.600 C 288.800 27.160,288.980 26.800,289.200 26.800 C 289.431 26.800,289.600 25.533,289.600 23.800 C 289.600 22.067,289.431 20.800,289.200 20.800 C 288.980 20.800,288.800 20.440,288.800 20.000 C 288.800 19.560,288.620 19.200,288.400 19.200 C 288.180 19.200,288.000 18.948,288.000 18.640 C 288.000 17.912,285.288 15.200,284.560 15.200 C 284.252 15.200,284.000 15.020,284.000 14.800 C 284.000 14.580,283.640 14.400,283.200 14.400 C 282.760 14.400,282.400 14.220,282.400 14.000 C 282.400 13.769,281.133 13.600,279.400 13.600 C 277.667 13.600,276.400 13.769,276.400 14.000 M27.344 325.537 C 26.770 325.930,24.800 330.307,24.800 331.187 C 24.800 331.608,24.620 332.064,24.400 332.200 C 24.180 332.336,24.000 332.797,24.000 333.224 C 24.000 333.651,23.820 334.000,23.600 334.000 C 23.380 334.000,23.200 334.360,23.200 334.800 C 23.200 335.240,23.020 335.600,22.800 335.600 C 22.580 335.600,22.400 336.039,22.400 336.576 C 22.400 337.113,22.220 337.664,22.000 337.800 C 21.780 337.936,21.600 338.397,21.600 338.824 C 21.600 339.251,21.420 339.600,21.200 339.600 C 20.980 339.600,20.800 339.960,20.800 340.400 C 20.800 340.840,20.620 341.200,20.400 341.200 C 20.180 341.200,20.000 341.650,20.000 342.200 C 20.000 342.750,19.820 343.200,19.600 343.200 C 19.380 343.200,19.200 343.560,19.200 344.000 C 19.200 344.440,19.020 344.800,18.800 344.800 C 18.580 344.800,18.400 345.160,18.400 345.600 C 18.400 346.040,18.220 346.400,18.000 346.400 C 17.780 346.400,17.600 346.839,17.600 347.376 C 17.600 347.913,17.420 348.464,17.200 348.600 C 16.980 348.736,16.800 349.197,16.800 349.624 C 16.800 350.051,16.620 350.400,16.400 350.400 C 16.180 350.400,16.000 350.760,16.000 351.200 C 16.000 351.640,15.820 352.000,15.600 352.000 C 15.380 352.000,15.200 352.540,15.200 353.200 C 15.200 353.860,15.020 354.400,14.800 354.400 C 14.580 354.400,14.400 354.760,14.400 355.200 C 14.400 355.640,14.220 356.000,14.000 356.000 C 13.780 356.000,13.600 356.360,13.600 356.800 C 13.600 357.240,13.420 357.600,13.200 357.600 C 12.980 357.600,12.800 357.942,12.800 358.359 C 12.800 358.777,12.260 360.145,11.600 361.400 C 10.940 362.655,10.400 364.023,10.400 364.441 C 10.400 364.858,10.220 365.200,10.000 365.200 C 9.780 365.200,9.600 365.449,9.600 365.754 C 9.600 366.059,9.331 366.824,9.002 367.454 C 8.674 368.084,8.404 369.095,8.402 369.700 C 8.401 370.305,8.220 370.800,8.000 370.800 C 7.780 370.800,7.600 371.160,7.600 371.600 C 7.600 372.040,7.420 372.400,7.200 372.400 C 6.980 372.400,6.800 372.760,6.800 373.200 C 6.800 373.640,6.620 374.000,6.400 374.000 C 6.180 374.000,6.000 374.450,6.000 375.000 C 6.000 375.550,5.820 376.000,5.600 376.000 C 5.380 376.000,5.200 376.360,5.200 376.800 C 5.200 377.240,5.020 377.600,4.800 377.600 C 4.580 377.600,4.400 377.960,4.400 378.400 C 4.400 378.840,4.220 379.200,4.000 379.200 C 3.780 379.200,3.600 379.740,3.600 380.400 C 3.600 381.060,3.420 381.600,3.200 381.600 C 2.980 381.600,2.800 381.960,2.800 382.400 C 2.800 382.840,2.620 383.200,2.400 383.200 C 2.180 383.200,2.000 383.560,2.000 384.000 C 2.000 384.440,1.820 384.800,1.600 384.800 C 1.380 384.800,1.200 385.325,1.200 385.967 C 1.200 386.608,1.007 387.198,0.770 387.277 C 0.534 387.355,0.242 388.511,0.121 389.844 L -0.099 392.269 3.535 395.934 C 7.176 399.607,9.304 400.650,10.200 399.200 C 10.336 398.980,10.797 398.800,11.224 398.800 C 11.651 398.800,12.000 398.620,12.000 398.400 C 12.000 398.180,12.360 398.000,12.800 398.000 C 13.240 398.000,13.600 397.820,13.600 397.600 C 13.600 397.380,14.050 397.200,14.600 397.200 C 15.150 397.200,15.600 397.020,15.600 396.800 C 15.600 396.580,16.050 396.400,16.600 396.400 C 17.150 396.400,17.600 396.220,17.600 396.000 C 17.600 395.780,17.960 395.600,18.400 395.600 C 18.840 395.600,19.200 395.420,19.200 395.200 C 19.200 394.980,19.650 394.800,20.200 394.800 C 20.750 394.800,21.200 394.620,21.200 394.400 C 21.200 394.180,21.549 394.000,21.976 394.000 C 22.403 394.000,22.864 393.820,23.000 393.600 C 23.136 393.380,23.597 393.200,24.024 393.200 C 24.451 393.200,24.800 393.020,24.800 392.800 C 24.800 392.580,25.149 392.400,25.576 392.400 C 26.003 392.400,26.454 392.236,26.578 392.035 C 26.703 391.834,27.523 391.548,28.402 391.400 C 29.281 391.251,30.000 390.966,30.000 390.765 C 30.000 390.564,30.272 390.400,30.605 390.400 C 31.193 390.400,31.618 390.233,33.495 389.262 C 33.987 389.008,34.662 388.800,34.995 388.800 C 35.328 388.800,35.600 388.620,35.600 388.400 C 35.600 388.180,35.872 388.000,36.205 388.000 C 36.538 388.000,37.123 387.834,37.505 387.632 C 39.670 386.485,43.637 384.800,44.175 384.800 C 44.519 384.800,44.800 384.620,44.800 384.400 C 44.800 384.180,45.160 384.000,45.600 384.000 C 46.040 384.000,46.400 383.820,46.400 383.600 C 46.400 383.380,46.749 383.200,47.176 383.200 C 47.603 383.200,48.064 383.020,48.200 382.800 C 48.336 382.580,48.887 382.400,49.424 382.400 C 49.961 382.400,50.400 382.220,50.400 382.000 C 50.400 381.780,50.760 381.600,51.200 381.600 C 51.640 381.600,52.000 381.420,52.000 381.200 C 52.000 380.980,52.272 380.800,52.605 380.800 C 53.193 380.800,53.618 380.633,55.495 379.662 C 55.987 379.408,56.662 379.200,56.995 379.200 C 57.328 379.200,57.600 379.020,57.600 378.800 C 57.600 378.580,57.949 378.400,58.376 378.400 C 58.803 378.400,59.264 378.220,59.400 378.000 C 59.536 377.780,59.997 377.600,60.424 377.600 C 60.851 377.600,61.200 377.420,61.200 377.200 C 61.200 376.980,61.560 376.800,62.000 376.800 C 62.440 376.800,62.800 376.620,62.800 376.400 C 62.800 376.180,63.239 376.000,63.776 376.000 C 64.313 376.000,64.864 375.820,65.000 375.600 C 65.136 375.380,65.524 375.200,65.863 375.200 C 66.202 375.200,67.136 374.912,67.940 374.559 C 68.743 374.207,69.760 373.775,70.200 373.600 C 73.018 372.478,74.000 371.889,74.000 371.318 C 74.000 370.627,29.431 325.882,28.364 325.501 C 28.014 325.376,27.555 325.392,27.344 325.537 " stroke="none" fill="#040404" fill-rule="evenodd"></path><path id="path1" d="" stroke="none" fill="#080404" fill-rule="evenodd"></path><path id="path2" d="" stroke="none" fill="#080404" fill-rule="evenodd"></path><path id="path3" d="" stroke="none" fill="#080404" fill-rule="evenodd"></path><path id="path4" d="" stroke="none" fill="#080404" fill-rule="evenodd"></path></g></svg>