<svg id="svg" version="1.1" xmlns="http://www.w3.org/2000/svg" xmlns:xlink="http://www.w3.org/1999/xlink" width="400" height="400" viewBox="0, 0, 400,400"><g id="svgg"><path id="path0" d="M166.181 146.979 L 36.400 276.759 36.400 278.556 C 36.400 279.544,36.237 280.454,36.037 280.577 C 35.838 280.700,35.546 282.511,35.390 284.601 C 35.233 286.690,34.946 288.400,34.752 288.400 C 34.559 288.400,34.400 289.300,34.400 290.400 C 34.400 291.500,34.239 292.400,34.043 292.400 C 33.847 292.400,33.557 294.200,33.400 296.400 C 33.243 298.600,32.953 300.400,32.757 300.400 C 32.561 300.400,32.400 301.300,32.400 302.400 C 32.400 303.500,32.243 304.400,32.052 304.400 C 31.860 304.400,31.577 306.018,31.422 307.995 C 31.267 309.972,30.974 311.692,30.770 311.818 C 30.567 311.944,30.400 312.836,30.400 313.800 C 30.400 314.764,30.237 315.654,30.037 315.777 C 29.838 315.900,29.546 317.711,29.390 319.801 C 29.233 321.890,28.946 323.600,28.752 323.600 C 28.559 323.600,28.400 324.489,28.400 325.576 C 28.400 326.663,28.237 327.654,28.037 327.777 C 27.838 327.900,27.546 329.711,27.390 331.801 C 27.233 333.890,26.946 335.600,26.752 335.600 C 26.559 335.600,26.400 336.500,26.400 337.600 C 26.400 338.700,26.241 339.600,26.048 339.600 C 25.854 339.600,25.567 341.310,25.410 343.399 C 25.254 345.489,24.962 347.300,24.763 347.423 C 24.563 347.546,24.400 348.436,24.400 349.400 C 24.400 350.364,24.237 351.254,24.037 351.377 C 23.838 351.500,23.546 353.311,23.390 355.401 C 23.233 357.490,22.946 359.200,22.752 359.200 C 22.559 359.200,22.400 360.100,22.400 361.200 C 22.400 362.300,22.239 363.200,22.043 363.200 C 21.847 363.200,21.557 365.000,21.400 367.200 C 21.243 369.400,20.953 371.200,20.757 371.200 C 20.561 371.200,20.400 372.085,20.400 373.167 C 20.400 374.248,20.247 375.193,20.061 375.267 C 19.875 375.340,19.612 376.608,19.478 378.083 L 19.233 380.767 21.917 380.522 C 23.392 380.388,24.660 380.125,24.733 379.939 C 24.807 379.753,25.752 379.600,26.833 379.600 C 27.915 379.600,28.800 379.439,28.800 379.243 C 28.800 379.047,30.600 378.757,32.800 378.600 C 35.000 378.443,36.800 378.153,36.800 377.957 C 36.800 377.761,37.700 377.600,38.800 377.600 C 39.900 377.600,40.800 377.439,40.800 377.243 C 40.800 377.047,42.600 376.757,44.800 376.600 C 47.000 376.443,48.800 376.153,48.800 375.957 C 48.800 375.761,49.700 375.600,50.800 375.600 C 51.900 375.600,52.800 375.441,52.800 375.248 C 52.800 375.054,54.510 374.767,56.600 374.610 C 58.690 374.454,60.400 374.162,60.400 373.963 C 60.400 373.763,61.300 373.600,62.400 373.600 C 63.500 373.600,64.400 373.439,64.400 373.243 C 64.400 373.047,66.200 372.757,68.400 372.600 C 70.600 372.443,72.400 372.153,72.400 371.957 C 72.400 371.761,73.300 371.600,74.400 371.600 C 75.500 371.600,76.400 371.441,76.400 371.248 C 76.400 371.054,78.110 370.767,80.199 370.610 C 82.289 370.454,84.100 370.162,84.223 369.963 C 84.346 369.763,85.236 369.600,86.200 369.600 C 87.164 369.600,88.052 369.439,88.174 369.243 C 88.295 369.046,90.016 368.757,91.997 368.600 C 93.979 368.443,95.600 368.154,95.600 367.958 C 95.600 367.761,96.489 367.600,97.576 367.600 C 98.663 367.600,99.654 367.437,99.777 367.237 C 99.900 367.038,101.711 366.746,103.801 366.590 C 105.890 366.433,107.600 366.146,107.600 365.952 C 107.600 365.759,108.500 365.600,109.600 365.600 C 110.700 365.600,111.600 365.439,111.600 365.243 C 111.600 365.047,113.400 364.757,115.600 364.600 C 117.800 364.443,119.600 364.153,119.600 363.957 C 119.600 363.761,120.419 363.600,121.421 363.600 L 123.241 363.600 253.021 233.819 C 324.399 162.440,382.800 103.859,382.800 103.639 C 382.800 103.117,296.883 17.200,296.361 17.200 C 296.141 17.200,237.560 75.601,166.181 146.979 M307.482 58.300 L 318.200 68.999 201.480 185.700 C 137.284 249.885,84.581 302.400,84.361 302.400 C 84.141 302.400,79.145 297.586,73.258 291.702 L 62.555 281.005 179.177 164.329 C 243.320 100.157,296.017 47.641,296.282 47.627 C 296.547 47.612,301.587 52.415,307.482 58.300 M352.400 103.638 C 352.400 103.859,299.884 156.556,235.698 220.743 L 118.995 337.445 108.298 326.742 C 102.414 320.855,97.600 315.859,97.600 315.639 C 97.600 315.419,150.115 262.716,214.300 198.520 L 331.000 81.800 341.700 92.518 C 347.585 98.413,352.400 103.417,352.400 103.638 M55.394 299.580 C 55.530 300.008,55.983 300.467,56.400 300.600 C 56.817 300.733,57.267 301.183,57.400 301.600 C 57.533 302.017,57.983 302.467,58.400 302.600 C 58.817 302.733,59.267 303.183,59.400 303.600 C 59.533 304.017,59.983 304.467,60.400 304.600 C 60.817 304.733,61.267 305.183,61.400 305.600 C 61.533 306.017,61.983 306.467,62.400 306.600 C 62.817 306.733,63.267 307.183,63.400 307.600 C 63.533 308.017,63.983 308.467,64.400 308.600 C 64.817 308.733,65.267 309.183,65.400 309.600 C 65.533 310.017,65.983 310.467,66.400 310.600 C 66.817 310.733,67.267 311.183,67.400 311.600 C 67.533 312.017,67.983 312.467,68.400 312.600 C 68.817 312.733,69.267 313.183,69.400 313.600 C 69.533 314.017,69.983 314.467,70.400 314.600 C 70.817 314.733,71.267 315.183,71.400 315.600 C 71.533 316.017,71.983 316.467,72.400 316.600 C 72.817 316.733,73.267 317.183,73.400 317.600 C 73.533 318.017,73.983 318.467,74.400 318.600 C 74.817 318.733,75.267 319.183,75.400 319.600 C 75.533 320.017,75.983 320.467,76.400 320.600 C 76.817 320.733,77.267 321.183,77.400 321.600 C 77.533 322.017,77.983 322.467,78.400 322.600 C 78.817 322.733,79.267 323.183,79.400 323.600 C 79.533 324.017,79.983 324.467,80.400 324.600 C 80.817 324.733,81.267 325.183,81.400 325.600 C 81.533 326.017,81.983 326.467,82.400 326.600 C 82.817 326.733,83.267 327.183,83.400 327.600 C 83.533 328.017,83.983 328.467,84.400 328.600 C 84.817 328.733,85.267 329.183,85.400 329.600 C 85.533 330.017,85.983 330.467,86.400 330.600 C 86.817 330.733,87.267 331.183,87.400 331.600 C 87.533 332.017,87.983 332.467,88.400 332.600 C 88.817 332.733,89.267 333.183,89.400 333.600 C 89.533 334.017,89.983 334.467,90.400 334.600 C 90.817 334.733,91.267 335.183,91.400 335.600 C 91.533 336.017,91.983 336.467,92.400 336.600 C 92.817 336.733,93.267 337.183,93.400 337.600 C 93.533 338.017,93.983 338.467,94.400 338.600 C 94.817 338.733,95.267 339.183,95.400 339.600 C 95.533 340.017,95.983 340.467,96.400 340.600 C 96.817 340.733,97.267 341.183,97.400 341.600 C 97.533 342.017,97.983 342.467,98.400 342.600 C 98.817 342.733,99.267 343.183,99.400 343.600 C 99.533 344.017,99.992 344.470,100.420 344.606 C 101.805 345.046,101.249 345.600,99.424 345.600 C 98.447 345.600,97.536 345.780,97.400 346.000 C 97.264 346.220,96.353 346.400,95.376 346.400 C 94.399 346.400,93.600 346.561,93.600 346.757 C 93.600 346.953,91.800 347.243,89.600 347.400 C 87.400 347.557,85.600 347.847,85.600 348.043 C 85.600 348.239,84.700 348.400,83.600 348.400 C 82.500 348.400,81.600 348.561,81.600 348.757 C 81.600 348.953,79.800 349.243,77.600 349.400 C 75.400 349.557,73.600 349.847,73.600 350.043 C 73.600 350.239,72.801 350.400,71.824 350.400 C 70.847 350.400,69.952 350.554,69.836 350.741 C 69.720 350.929,68.171 351.204,66.393 351.352 L 63.160 351.622 58.030 346.511 C 55.208 343.700,52.316 340.950,51.602 340.400 C 48.302 337.856,48.307 337.866,48.619 334.050 C 48.774 332.153,49.058 330.540,49.251 330.467 C 49.443 330.393,49.600 329.448,49.600 328.367 C 49.600 327.285,49.761 326.400,49.957 326.400 C 50.153 326.400,50.443 324.600,50.600 322.400 C 50.757 320.200,51.047 318.400,51.243 318.400 C 51.439 318.400,51.600 317.500,51.600 316.400 C 51.600 315.300,51.759 314.400,51.952 314.400 C 52.146 314.400,52.433 312.690,52.590 310.600 C 52.746 308.510,53.038 306.800,53.237 306.800 C 53.437 306.800,53.600 305.900,53.600 304.800 C 53.600 303.700,53.780 302.800,54.000 302.800 C 54.220 302.800,54.400 301.900,54.400 300.800 C 54.400 298.787,54.934 298.131,55.394 299.580 " stroke="none" fill="#040404" fill-rule="evenodd"></path><path id="path1" d="" stroke="none" fill="#080404" fill-rule="evenodd"></path><path id="path2" d="" stroke="none" fill="#080404" fill-rule="evenodd"></path><path id="path3" d="" stroke="none" fill="#080404" fill-rule="evenodd"></path><path id="path4" d="" stroke="none" fill="#080404" fill-rule="evenodd"></path></g></svg>